<svg xmlns="http://www.w3.org/2000/svg" width="512" height="512" id="close-button"><path d="M256 16C123.359 16 16 123.34 16 256c0 132.642 107.34 240 240 240 132.643 0 240-107.339 240-240 0-132.642-107.339-240-240-240zm155.564 395.563c-85.975 85.975-225.141 85.987-311.128 0-85.778-85.777-85.778-225.349 0-311.127 85.974-85.975 225.141-85.988 311.128 0 85.778 85.779 85.778 225.35 0 311.127z"></path><path d="M347.924 164.076c-3.904-3.904-10.236-3.904-14.143 0L256 241.857l-77.781-77.782c-3.905-3.904-10.237-3.904-14.143 0-3.905 3.905-3.905 10.237 0 14.143L241.857 256l-77.781 77.781c-3.905 3.905-3.905 10.237 0 14.143 3.906 3.905 10.237 3.904 14.143 0L256 270.143l77.781 77.781c3.906 3.904 10.237 3.905 14.143 0s3.905-10.237 0-14.143L270.143 256l77.781-77.782c3.905-3.905 3.905-10.237 0-14.142z"></path></svg>