<svg width="410" height="278" viewBox="0 0 410 278" fill="none" xmlns="http://www.w3.org/2000/svg">
<g filter="url(#filter0_d_12_3217)">
<rect x="29" y="24" width="352" height="220" rx="7.11549" fill="#98FFE0"/>
</g>
<rect x="29" y="24" width="352" height="220" rx="7.11549" fill="#1C243F"/>
<path d="M57.9123 86.0972C57.8494 85.5391 57.59 85.1067 57.134 84.8001C56.6781 84.4896 56.1042 84.3343 55.4124 84.3343C54.9172 84.3343 54.4887 84.413 54.1271 84.5702C53.7655 84.7235 53.4845 84.9357 53.284 85.2069C53.0875 85.4742 52.9892 85.7788 52.9892 86.1208C52.9892 86.4077 53.056 86.6554 53.1897 86.8637C53.3272 87.072 53.5061 87.2469 53.7262 87.3884C53.9502 87.526 54.19 87.6419 54.4455 87.7363C54.701 87.8267 54.9466 87.9014 55.1825 87.9603L56.3617 88.2669C56.7469 88.3612 57.1419 88.489 57.5467 88.6501C57.9516 88.8113 58.327 89.0235 58.6728 89.2869C59.0187 89.5502 59.2978 89.8765 59.5101 90.2656C59.7262 90.6547 59.8343 91.1205 59.8343 91.6629C59.8343 92.3469 59.6575 92.9541 59.3037 93.4848C58.9539 94.0154 58.4449 94.434 57.7767 94.7406C57.1124 95.0472 56.3086 95.2005 55.3653 95.2005C54.4612 95.2005 53.679 95.057 53.0187 94.7701C52.3584 94.4831 51.8415 94.0763 51.4681 93.5496C51.0947 93.019 50.8883 92.3901 50.849 91.6629H52.6767C52.7121 92.0992 52.8536 92.4628 53.1012 92.7537C53.3528 93.0406 53.6731 93.2548 54.0623 93.3963C54.4553 93.5339 54.8857 93.6027 55.3535 93.6027C55.8684 93.6027 56.3263 93.5221 56.7272 93.3609C57.1321 93.1959 57.4504 92.9679 57.6823 92.677C57.9142 92.3822 58.0302 92.0383 58.0302 91.6452C58.0302 91.2876 57.928 90.9947 57.7236 90.7668C57.5232 90.5388 57.25 90.3501 56.9041 90.2007C56.5621 90.0514 56.175 89.9197 55.7426 89.8057L54.3158 89.4166C53.3489 89.1532 52.5824 88.7661 52.0164 88.2551C51.4543 87.7441 51.1733 87.0681 51.1733 86.2269C51.1733 85.5312 51.3619 84.9239 51.7393 84.4051C52.1166 83.8863 52.6276 83.4834 53.2722 83.1964C53.9168 82.9056 54.644 82.7601 55.4537 82.7601C56.2713 82.7601 56.9925 82.9036 57.6175 83.1905C58.2464 83.4775 58.7416 83.8725 59.1032 84.3756C59.4649 84.8748 59.6535 85.4487 59.6693 86.0972H57.9123ZM65.773 95.1828C64.8807 95.1828 64.1123 94.9921 63.4677 94.6109C62.827 94.2257 62.3317 93.6852 61.9819 92.9895C61.636 92.2899 61.4631 91.4703 61.4631 90.5309C61.4631 89.6033 61.636 88.7857 61.9819 88.0782C62.3317 87.3707 62.8191 86.8185 63.4441 86.4215C64.073 86.0245 64.808 85.826 65.6492 85.826C66.1601 85.826 66.6554 85.9105 67.1349 86.0795C67.6145 86.2485 68.0449 86.5139 68.4261 86.8755C68.8074 87.2371 69.1081 87.7068 69.3282 88.2846C69.5483 88.8585 69.6584 89.5561 69.6584 90.3776V91.0026H62.4595V89.6819H67.9309C67.9309 89.2181 67.8365 88.8074 67.6479 88.4497C67.4592 88.0881 67.1939 87.8031 66.8519 87.5948C66.5139 87.3864 66.1169 87.2823 65.6609 87.2823C65.1657 87.2823 64.7333 87.4041 64.3639 87.6478C63.9983 87.8876 63.7153 88.202 63.5148 88.5912C63.3183 88.9764 63.2201 89.395 63.2201 89.847V90.8788C63.2201 91.4841 63.3262 91.999 63.5384 92.4235C63.7546 92.848 64.0553 93.1723 64.4405 93.3963C64.8257 93.6164 65.2758 93.7265 65.7907 93.7265C66.1248 93.7265 66.4294 93.6793 66.7045 93.585C66.9797 93.4867 67.2175 93.3413 67.4179 93.1487C67.6184 92.9561 67.7717 92.7183 67.8778 92.4353L69.5463 92.736C69.4127 93.2273 69.1729 93.6577 68.827 94.0272C68.4851 94.3927 68.0547 94.6777 67.5358 94.8821C67.0209 95.0825 66.4333 95.1828 65.773 95.1828ZM75.5174 95.1828C74.6252 95.1828 73.8567 94.9921 73.2121 94.6109C72.5714 94.2257 72.0762 93.6852 71.7263 92.9895C71.3804 92.2899 71.2075 91.4703 71.2075 90.5309C71.2075 89.6033 71.3804 88.7857 71.7263 88.0782C72.0762 87.3707 72.5636 86.8185 73.1885 86.4215C73.8174 86.0245 74.5524 85.826 75.3936 85.826C75.9046 85.826 76.3998 85.9105 76.8793 86.0795C77.3589 86.2485 77.7893 86.5139 78.1705 86.8755C78.5518 87.2371 78.8525 87.7068 79.0726 88.2846C79.2927 88.8585 79.4028 89.5561 79.4028 90.3776V91.0026H72.2039V89.6819H77.6753C77.6753 89.2181 77.581 88.8074 77.3923 88.4497C77.2036 88.0881 76.9383 87.8031 76.5963 87.5948C76.2583 87.3864 75.8613 87.2823 75.4054 87.2823C74.9101 87.2823 74.4778 87.4041 74.1083 87.6478C73.7427 87.8876 73.4597 88.202 73.2593 88.5912C73.0627 88.9764 72.9645 89.395 72.9645 89.847V90.8788C72.9645 91.4841 73.0706 91.999 73.2829 92.4235C73.499 92.848 73.7997 93.1723 74.1849 93.3963C74.5701 93.6164 75.0202 93.7265 75.5351 93.7265C75.8692 93.7265 76.1738 93.6793 76.4489 93.585C76.7241 93.4867 76.9619 93.3413 77.1623 93.1487C77.3628 92.9561 77.5161 92.7183 77.6222 92.4353L79.2908 92.736C79.1571 93.2273 78.9174 93.6577 78.5715 94.0272C78.2295 94.3927 77.7991 94.6777 77.2803 94.8821C76.7654 95.0825 76.1777 95.1828 75.5174 95.1828ZM87.5155 89.623V95H85.7527V82.9252H87.4919V87.4179H87.604C87.8162 86.9305 88.1405 86.5433 88.5768 86.2564C89.0131 85.9695 89.583 85.826 90.2866 85.826C90.9076 85.826 91.45 85.9537 91.9139 86.2092C92.3816 86.4647 92.7432 86.846 92.9987 87.353C93.2581 87.8562 93.3878 88.485 93.3878 89.2397V95H91.625V89.452C91.625 88.7877 91.454 88.2728 91.112 87.9072C90.7701 87.5378 90.2945 87.353 89.6852 87.353C89.2686 87.353 88.8952 87.4415 88.565 87.6184C88.2388 87.7952 87.9813 88.0546 87.7926 88.3966C87.6079 88.7346 87.5155 89.1434 87.5155 89.623ZM99.5549 95.1828C98.7059 95.1828 97.965 94.9882 97.3322 94.5991C96.6993 94.21 96.208 93.6656 95.8582 92.9659C95.5084 92.2663 95.3335 91.4487 95.3335 90.5132C95.3335 89.5738 95.5084 88.7523 95.8582 88.0487C96.208 87.3452 96.6993 86.7988 97.3322 86.4097C97.965 86.0206 98.7059 85.826 99.5549 85.826C100.404 85.826 101.145 86.0206 101.778 86.4097C102.41 86.7988 102.902 87.3452 103.252 88.0487C103.601 88.7523 103.776 89.5738 103.776 90.5132C103.776 91.4487 103.601 92.2663 103.252 92.9659C102.902 93.6656 102.41 94.21 101.778 94.5991C101.145 94.9882 100.404 95.1828 99.5549 95.1828ZM99.5608 93.7029C100.111 93.7029 100.567 93.5575 100.929 93.2666C101.29 92.9757 101.558 92.5886 101.731 92.1051C101.907 91.6217 101.996 91.0891 101.996 90.5073C101.996 89.9295 101.907 89.3989 101.731 88.9154C101.558 88.4281 101.29 88.037 100.929 87.7422C100.567 87.4474 100.111 87.3 99.5608 87.3C99.0066 87.3 98.5467 87.4474 98.1812 87.7422C97.8196 88.037 97.5503 88.4281 97.3734 88.9154C97.2005 89.3989 97.114 89.9295 97.114 90.5073C97.114 91.0891 97.2005 91.6217 97.3734 92.1051C97.5503 92.5886 97.8196 92.9757 98.1812 93.2666C98.5467 93.5575 99.0066 93.7029 99.5608 93.7029ZM107.432 95L104.767 85.9439H106.589L108.363 92.5945H108.452L110.232 85.9439H112.054L113.823 92.565H113.911L115.674 85.9439H117.496L114.837 95H113.039L111.199 88.4615H111.064L109.224 95H107.432ZM124.677 98.396C124.414 98.396 124.174 98.3744 123.958 98.3312C123.742 98.2919 123.581 98.2486 123.475 98.2015L123.899 96.757C124.221 96.8434 124.508 96.8808 124.76 96.869C125.011 96.8572 125.233 96.7629 125.426 96.586C125.623 96.4091 125.796 96.1202 125.945 95.7193L126.163 95.1179L122.85 85.9439H124.736L127.03 92.9718H127.124L129.418 85.9439H131.31L127.578 96.2087C127.405 96.6803 127.185 97.0793 126.918 97.4055C126.65 97.7357 126.332 97.9833 125.963 98.1484C125.593 98.3135 125.165 98.396 124.677 98.396ZM136.473 95.1828C135.624 95.1828 134.884 94.9882 134.251 94.5991C133.618 94.21 133.127 93.6656 132.777 92.9659C132.427 92.2663 132.252 91.4487 132.252 90.5132C132.252 89.5738 132.427 88.7523 132.777 88.0487C133.127 87.3452 133.618 86.7988 134.251 86.4097C134.884 86.0206 135.624 85.826 136.473 85.826C137.322 85.826 138.063 86.0206 138.696 86.4097C139.329 86.7988 139.82 87.3452 140.17 88.0487C140.52 88.7523 140.695 89.5738 140.695 90.5132C140.695 91.4487 140.52 92.2663 140.17 92.9659C139.82 93.6656 139.329 94.21 138.696 94.5991C138.063 94.9882 137.322 95.1828 136.473 95.1828ZM136.479 93.7029C137.03 93.7029 137.486 93.5575 137.847 93.2666C138.209 92.9757 138.476 92.5886 138.649 92.1051C138.826 91.6217 138.914 91.0891 138.914 90.5073C138.914 89.9295 138.826 89.3989 138.649 88.9154C138.476 88.4281 138.209 88.037 137.847 87.7422C137.486 87.4474 137.03 87.3 136.479 87.3C135.925 87.3 135.465 87.4474 135.1 87.7422C134.738 88.037 134.469 88.4281 134.292 88.9154C134.119 89.3989 134.033 89.9295 134.033 90.5073C134.033 91.0891 134.119 91.6217 134.292 92.1051C134.469 92.5886 134.738 92.9757 135.1 93.2666C135.465 93.5575 135.925 93.7029 136.479 93.7029ZM148.399 91.2443V85.9439H150.168V95H148.435V93.4317H148.34C148.132 93.9152 147.798 94.318 147.338 94.6404C146.882 94.9587 146.314 95.1179 145.634 95.1179C145.052 95.1179 144.538 94.9902 144.09 94.7347C143.645 94.4753 143.296 94.092 143.04 93.585C142.788 93.0779 142.663 92.451 142.663 91.7042V85.9439H144.426V91.4919C144.426 92.1091 144.597 92.6004 144.939 92.9659C145.28 93.3315 145.725 93.5142 146.271 93.5142C146.601 93.5142 146.929 93.4317 147.256 93.2666C147.586 93.1015 147.859 92.8519 148.075 92.5178C148.295 92.1837 148.403 91.7592 148.399 91.2443ZM160.745 95.1828C159.869 95.1828 159.114 94.9843 158.481 94.5873C157.852 94.1864 157.369 93.6341 157.031 92.9305C156.693 92.227 156.524 91.4212 156.524 90.5132C156.524 89.5935 156.697 88.7818 157.043 88.0782C157.389 87.3707 157.876 86.8185 158.505 86.4215C159.134 86.0245 159.875 85.826 160.728 85.826C161.416 85.826 162.029 85.9537 162.567 86.2092C163.106 86.4608 163.54 86.8145 163.87 87.2705C164.204 87.7264 164.403 88.259 164.466 88.8683H162.75C162.656 88.4438 162.439 88.0782 162.101 87.7716C161.767 87.4651 161.319 87.3118 160.757 87.3118C160.266 87.3118 159.835 87.4415 159.466 87.7009C159.1 87.9564 158.815 88.3219 158.611 88.7975C158.407 89.2692 158.304 89.8273 158.304 90.472C158.304 91.1323 158.405 91.7022 158.605 92.1818C158.806 92.6613 159.089 93.0327 159.454 93.2961C159.824 93.5594 160.258 93.6911 160.757 93.6911C161.091 93.6911 161.394 93.6302 161.665 93.5083C161.94 93.3826 162.17 93.2037 162.355 92.9718C162.544 92.7399 162.675 92.4608 162.75 92.1346H164.466C164.403 92.7203 164.212 93.243 163.894 93.7029C163.575 94.1628 163.149 94.5244 162.614 94.7877C162.084 95.0511 161.461 95.1828 160.745 95.1828ZM168.986 95.2005C168.412 95.2005 167.894 95.0943 167.43 94.8821C166.966 94.6659 166.599 94.3534 166.327 93.9446C166.06 93.5359 165.926 93.0347 165.926 92.4412C165.926 91.9302 166.025 91.5096 166.221 91.1795C166.418 90.8493 166.683 90.5879 167.017 90.3953C167.351 90.2027 167.725 90.0573 168.137 89.959C168.55 89.8608 168.971 89.7861 169.399 89.735C169.941 89.6721 170.382 89.621 170.72 89.5817C171.058 89.5384 171.303 89.4697 171.457 89.3753C171.61 89.281 171.687 89.1277 171.687 88.9154V88.8742C171.687 88.3593 171.541 87.9603 171.25 87.6773C170.963 87.3943 170.535 87.2528 169.965 87.2528C169.372 87.2528 168.904 87.3845 168.562 87.6478C168.224 87.9072 167.99 88.1961 167.86 88.5145L166.203 88.1372C166.4 87.5869 166.687 87.1427 167.064 86.8047C167.446 86.4628 167.884 86.2151 168.379 86.0618C168.874 85.9046 169.395 85.826 169.941 85.826C170.303 85.826 170.686 85.8692 171.091 85.9557C171.5 86.0383 171.881 86.1915 172.235 86.4156C172.593 86.6396 172.885 86.96 173.113 87.3766C173.341 87.7893 173.455 88.3259 173.455 88.9862V95H171.734V93.7619H171.663C171.549 93.9898 171.378 94.2139 171.15 94.434C170.922 94.6541 170.629 94.8369 170.272 94.9823C169.914 95.1277 169.486 95.2005 168.986 95.2005ZM169.37 93.7854C169.857 93.7854 170.274 93.6891 170.62 93.4965C170.969 93.304 171.235 93.0524 171.415 92.7419C171.6 92.4274 171.693 92.0914 171.693 91.7337V90.5663C171.63 90.6292 171.508 90.6881 171.327 90.7432C171.15 90.7943 170.948 90.8395 170.72 90.8788C170.492 90.9142 170.27 90.9476 170.054 90.979C169.837 91.0065 169.657 91.0301 169.511 91.0498C169.169 91.093 168.857 91.1657 168.574 91.2679C168.295 91.3701 168.071 91.5175 167.902 91.7101C167.736 91.8988 167.654 92.1503 167.654 92.4648C167.654 92.9011 167.815 93.2312 168.137 93.4553C168.46 93.6754 168.87 93.7854 169.37 93.7854ZM177.566 89.623V95H175.803V85.9439H177.496V87.4179H177.608C177.816 86.9384 178.142 86.5532 178.586 86.2623C179.034 85.9714 179.598 85.826 180.278 85.826C180.896 85.826 181.436 85.9557 181.9 86.2151C182.364 86.4706 182.723 86.8519 182.979 87.3589C183.234 87.866 183.362 88.4929 183.362 89.2397V95H181.599V89.452C181.599 88.7956 181.428 88.2826 181.086 87.9131C180.744 87.5397 180.275 87.353 179.677 87.353C179.268 87.353 178.905 87.4415 178.586 87.6184C178.272 87.7952 178.022 88.0546 177.838 88.3966C177.657 88.7346 177.566 89.1434 177.566 89.623ZM190.12 95V85.9439H191.883V95H190.12ZM191.01 84.5466C190.704 84.5466 190.441 84.4444 190.22 84.24C190.004 84.0317 189.896 83.7841 189.896 83.4971C189.896 83.2063 190.004 82.9586 190.22 82.7542C190.441 82.5459 190.704 82.4418 191.01 82.4418C191.317 82.4418 191.578 82.5459 191.795 82.7542C192.015 82.9586 192.125 83.2063 192.125 83.4971C192.125 83.7841 192.015 84.0317 191.795 84.24C191.578 84.4444 191.317 84.5466 191.01 84.5466ZM196.018 89.623V95H194.255V85.9439H195.947V87.4179H196.059C196.267 86.9384 196.593 86.5532 197.038 86.2623C197.486 85.9714 198.05 85.826 198.73 85.826C199.347 85.826 199.887 85.9557 200.351 86.2151C200.815 86.4706 201.174 86.8519 201.43 87.3589C201.685 87.866 201.813 88.4929 201.813 89.2397V95H200.05V89.452C200.05 88.7956 199.879 88.2826 199.537 87.9131C199.195 87.5397 198.726 87.353 198.128 87.353C197.719 87.353 197.356 87.4415 197.038 87.6184C196.723 87.7952 196.473 88.0546 196.289 88.3966C196.108 88.7346 196.018 89.1434 196.018 89.623ZM207.992 95.1828C207.116 95.1828 206.361 94.9843 205.728 94.5873C205.099 94.1864 204.616 93.6341 204.278 92.9305C203.94 92.227 203.771 91.4212 203.771 90.5132C203.771 89.5935 203.944 88.7818 204.289 88.0782C204.635 87.3707 205.123 86.8185 205.752 86.4215C206.381 86.0245 207.121 85.826 207.974 85.826C208.662 85.826 209.275 85.9537 209.814 86.2092C210.352 86.4608 210.787 86.8145 211.117 87.2705C211.451 87.7264 211.649 88.259 211.712 88.8683H209.997C209.902 88.4438 209.686 88.0782 209.348 87.7716C209.014 87.4651 208.566 87.3118 208.004 87.3118C207.513 87.3118 207.082 87.4415 206.713 87.7009C206.347 87.9564 206.062 88.3219 205.858 88.7975C205.653 89.2692 205.551 89.8273 205.551 90.472C205.551 91.1323 205.651 91.7022 205.852 92.1818C206.052 92.6613 206.335 93.0327 206.701 93.2961C207.07 93.5594 207.505 93.6911 208.004 93.6911C208.338 93.6911 208.641 93.6302 208.912 93.5083C209.187 93.3826 209.417 93.2037 209.602 92.9718C209.79 92.7399 209.922 92.4608 209.997 92.1346H211.712C211.649 92.7203 211.459 93.243 211.14 93.7029C210.822 94.1628 210.396 94.5244 209.861 94.7877C209.33 95.0511 208.707 95.1828 207.992 95.1828ZM213.598 95V85.9439H215.301V87.3825H215.396C215.561 86.8951 215.852 86.5119 216.268 86.2328C216.689 85.9498 217.165 85.8083 217.695 85.8083C217.805 85.8083 217.935 85.8122 218.084 85.8201C218.238 85.828 218.358 85.8378 218.444 85.8496V87.5358C218.373 87.5162 218.247 87.4945 218.067 87.471C217.886 87.4434 217.705 87.4297 217.524 87.4297C217.108 87.4297 216.736 87.5181 216.41 87.695C216.088 87.8679 215.832 88.1097 215.643 88.4202C215.455 88.7268 215.36 89.0766 215.36 89.4697V95H213.598ZM223.548 95.1828C222.656 95.1828 221.888 94.9921 221.243 94.6109C220.602 94.2257 220.107 93.6852 219.757 92.9895C219.411 92.2899 219.238 91.4703 219.238 90.5309C219.238 89.6033 219.411 88.7857 219.757 88.0782C220.107 87.3707 220.595 86.8185 221.219 86.4215C221.848 86.0245 222.583 85.826 223.425 85.826C223.936 85.826 224.431 85.9105 224.91 86.0795C225.39 86.2485 225.82 86.5139 226.202 86.8755C226.583 87.2371 226.883 87.7068 227.104 88.2846C227.324 88.8585 227.434 89.5561 227.434 90.3776V91.0026H220.235V89.6819H225.706C225.706 89.2181 225.612 88.8074 225.423 88.4497C225.235 88.0881 224.969 87.8031 224.627 87.5948C224.289 87.3864 223.892 87.2823 223.436 87.2823C222.941 87.2823 222.509 87.4041 222.139 87.6478C221.774 87.8876 221.491 88.202 221.29 88.5912C221.094 88.9764 220.995 89.395 220.995 89.847V90.8788C220.995 91.4841 221.102 91.999 221.314 92.4235C221.53 92.848 221.831 93.1723 222.216 93.3963C222.601 93.6164 223.051 93.7265 223.566 93.7265C223.9 93.7265 224.205 93.6793 224.48 93.585C224.755 93.4867 224.993 93.3413 225.193 93.1487C225.394 92.9561 225.547 92.7183 225.653 92.4353L227.322 92.736C227.188 93.2273 226.948 93.6577 226.602 94.0272C226.26 94.3927 225.83 94.6777 225.311 94.8821C224.796 95.0825 224.209 95.1828 223.548 95.1828ZM232.025 95.2005C231.451 95.2005 230.932 95.0943 230.469 94.8821C230.005 94.6659 229.637 94.3534 229.366 93.9446C229.099 93.5359 228.965 93.0347 228.965 92.4412C228.965 91.9302 229.063 91.5096 229.26 91.1795C229.457 90.8493 229.722 90.5879 230.056 90.3953C230.39 90.2027 230.763 90.0573 231.176 89.959C231.589 89.8608 232.009 89.7861 232.438 89.735C232.98 89.6721 233.421 89.621 233.759 89.5817C234.097 89.5384 234.342 89.4697 234.496 89.3753C234.649 89.281 234.725 89.1277 234.725 88.9154V88.8742C234.725 88.3593 234.58 87.9603 234.289 87.6773C234.002 87.3943 233.574 87.2528 233.004 87.2528C232.41 87.2528 231.943 87.3845 231.601 87.6478C231.263 87.9072 231.029 88.1961 230.899 88.5145L229.242 88.1372C229.439 87.5869 229.726 87.1427 230.103 86.8047C230.484 86.4628 230.923 86.2151 231.418 86.0618C231.913 85.9046 232.434 85.826 232.98 85.826C233.342 85.826 233.725 85.8692 234.13 85.9557C234.539 86.0383 234.92 86.1915 235.274 86.4156C235.631 86.6396 235.924 86.96 236.152 87.3766C236.38 87.7893 236.494 88.3259 236.494 88.9862V95H234.773V93.7619H234.702C234.588 93.9898 234.417 94.2139 234.189 94.434C233.961 94.6541 233.668 94.8369 233.31 94.9823C232.953 95.1277 232.524 95.2005 232.025 95.2005ZM232.408 93.7854C232.896 93.7854 233.312 93.6891 233.658 93.4965C234.008 93.304 234.273 93.0524 234.454 92.7419C234.639 92.4274 234.731 92.0914 234.731 91.7337V90.5663C234.668 90.6292 234.547 90.6881 234.366 90.7432C234.189 90.7943 233.987 90.8395 233.759 90.8788C233.531 90.9142 233.309 90.9476 233.092 90.979C232.876 91.0065 232.695 91.0301 232.55 91.0498C232.208 91.093 231.895 91.1657 231.612 91.2679C231.333 91.3701 231.109 91.5175 230.94 91.7101C230.775 91.8988 230.693 92.1503 230.693 92.4648C230.693 92.9011 230.854 93.2312 231.176 93.4553C231.498 93.6754 231.909 93.7854 232.408 93.7854ZM245.628 88.1549L244.031 88.4379C243.964 88.2335 243.858 88.0389 243.712 87.8542C243.571 87.6694 243.378 87.5181 243.134 87.4002C242.891 87.2823 242.586 87.2233 242.221 87.2233C241.721 87.2233 241.305 87.3353 240.971 87.5594C240.637 87.7795 240.47 88.0645 240.47 88.4143C240.47 88.717 240.582 88.9606 240.806 89.1454C241.03 89.3301 241.391 89.4815 241.89 89.5994L243.329 89.9295C244.162 90.1221 244.783 90.4189 245.192 90.8198C245.601 91.2207 245.805 91.7415 245.805 92.3822C245.805 92.9246 245.648 93.4081 245.334 93.8326C245.023 94.2532 244.589 94.5834 244.031 94.8231C243.476 95.0629 242.834 95.1828 242.103 95.1828C241.089 95.1828 240.261 94.9666 239.621 94.5342C238.98 94.0979 238.587 93.4789 238.441 92.677L240.145 92.4176C240.251 92.8618 240.47 93.1978 240.8 93.4258C241.13 93.6498 241.56 93.7619 242.091 93.7619C242.669 93.7619 243.131 93.642 243.476 93.4022C243.822 93.1585 243.995 92.8618 243.995 92.5119C243.995 92.2289 243.889 91.9911 243.677 91.7985C243.469 91.6059 243.148 91.4605 242.716 91.3622L241.183 91.0262C240.338 90.8336 239.713 90.527 239.308 90.1064C238.907 89.6858 238.707 89.1532 238.707 88.5086C238.707 87.9741 238.856 87.5063 239.155 87.1054C239.453 86.7045 239.866 86.392 240.393 86.168C240.92 85.94 241.523 85.826 242.203 85.826C243.182 85.826 243.952 86.0383 244.514 86.4628C245.076 86.8833 245.448 87.4474 245.628 88.1549ZM251.647 95.1828C250.754 95.1828 249.986 94.9921 249.341 94.6109C248.701 94.2257 248.205 93.6852 247.856 92.9895C247.51 92.2899 247.337 91.4703 247.337 90.5309C247.337 89.6033 247.51 88.7857 247.856 88.0782C248.205 87.3707 248.693 86.8185 249.318 86.4215C249.947 86.0245 250.682 85.826 251.523 85.826C252.034 85.826 252.529 85.9105 253.009 86.0795C253.488 86.2485 253.919 86.5139 254.3 86.8755C254.681 87.2371 254.982 87.7068 255.202 88.2846C255.422 88.8585 255.532 89.5561 255.532 90.3776V91.0026H248.333V89.6819H253.805C253.805 89.2181 253.71 88.8074 253.522 88.4497C253.333 88.0881 253.068 87.8031 252.726 87.5948C252.388 87.3864 251.991 87.2823 251.535 87.2823C251.039 87.2823 250.607 87.4041 250.238 87.6478C249.872 87.8876 249.589 88.202 249.389 88.5912C249.192 88.9764 249.094 89.395 249.094 89.847V90.8788C249.094 91.4841 249.2 91.999 249.412 92.4235C249.628 92.848 249.929 93.1723 250.314 93.3963C250.699 93.6164 251.149 93.7265 251.664 93.7265C251.998 93.7265 252.303 93.6793 252.578 93.585C252.853 93.4867 253.091 93.3413 253.292 93.1487C253.492 92.9561 253.645 92.7183 253.752 92.4353L255.42 92.736C255.286 93.2273 255.047 93.6577 254.701 94.0272C254.359 94.3927 253.928 94.6777 253.41 94.8821C252.895 95.0825 252.307 95.1828 251.647 95.1828ZM265.272 95.1769C264.541 95.1769 263.889 94.9902 263.315 94.6168C262.745 94.2394 262.297 93.7029 261.97 93.0072C261.648 92.3075 261.487 91.4684 261.487 90.4896C261.487 89.5109 261.65 88.6737 261.976 87.978C262.306 87.2823 262.758 86.7497 263.332 86.3802C263.906 86.0107 264.557 85.826 265.284 85.826C265.846 85.826 266.298 85.9203 266.64 86.109C266.986 86.2937 267.253 86.5099 267.442 86.7576C267.634 87.0052 267.784 87.2233 267.89 87.412H267.996V82.9252H269.759V95H268.037V93.5909H267.89C267.784 93.7835 267.63 94.0036 267.43 94.2512C267.233 94.4988 266.962 94.715 266.616 94.8998C266.27 95.0845 265.822 95.1769 265.272 95.1769ZM265.661 93.6734C266.168 93.6734 266.597 93.5398 266.947 93.2725C267.3 93.0013 267.568 92.6259 267.748 92.1464C267.933 91.6669 268.025 91.1087 268.025 90.472C268.025 89.8431 267.935 89.2928 267.754 88.8211C267.573 88.3494 267.308 87.9819 266.958 87.7186C266.608 87.4552 266.176 87.3236 265.661 87.3236C265.131 87.3236 264.688 87.4611 264.335 87.7363C263.981 88.0114 263.714 88.3868 263.533 88.8624C263.356 89.338 263.267 89.8745 263.267 90.472C263.267 91.0773 263.358 91.6217 263.539 92.1051C263.719 92.5886 263.987 92.9718 264.341 93.2548C264.698 93.5339 265.138 93.6734 265.661 93.6734ZM274.91 95.2005C274.336 95.2005 273.818 95.0943 273.354 94.8821C272.89 94.6659 272.523 94.3534 272.251 93.9446C271.984 93.5359 271.85 93.0347 271.85 92.4412C271.85 91.9302 271.949 91.5096 272.145 91.1795C272.342 90.8493 272.607 90.5879 272.941 90.3953C273.275 90.2027 273.649 90.0573 274.061 89.959C274.474 89.8608 274.895 89.7861 275.323 89.735C275.865 89.6721 276.306 89.621 276.644 89.5817C276.982 89.5384 277.227 89.4697 277.381 89.3753C277.534 89.281 277.611 89.1277 277.611 88.9154V88.8742C277.611 88.3593 277.465 87.9603 277.174 87.6773C276.887 87.3943 276.459 87.2528 275.889 87.2528C275.296 87.2528 274.828 87.3845 274.486 87.6478C274.148 87.9072 273.914 88.1961 273.784 88.5145L272.128 88.1372C272.324 87.5869 272.611 87.1427 272.988 86.8047C273.37 86.4628 273.808 86.2151 274.303 86.0618C274.798 85.9046 275.319 85.826 275.865 85.826C276.227 85.826 276.61 85.8692 277.015 85.9557C277.424 86.0383 277.805 86.1915 278.159 86.4156C278.517 86.6396 278.81 86.96 279.037 87.3766C279.265 87.7893 279.379 88.3259 279.379 88.9862V95H277.658V93.7619H277.587C277.473 93.9898 277.302 94.2139 277.074 94.434C276.846 94.6541 276.553 94.8369 276.196 94.9823C275.838 95.1277 275.41 95.2005 274.91 95.2005ZM275.294 93.7854C275.781 93.7854 276.198 93.6891 276.544 93.4965C276.893 93.304 277.159 93.0524 277.339 92.7419C277.524 92.4274 277.617 92.0914 277.617 91.7337V90.5663C277.554 90.6292 277.432 90.6881 277.251 90.7432C277.074 90.7943 276.872 90.8395 276.644 90.8788C276.416 90.9142 276.194 90.9476 275.978 90.979C275.761 91.0065 275.581 91.0301 275.435 91.0498C275.093 91.093 274.781 91.1657 274.498 91.2679C274.219 91.3701 273.995 91.5175 273.826 91.7101C273.66 91.8988 273.578 92.1503 273.578 92.4648C273.578 92.9011 273.739 93.2312 274.061 93.4553C274.384 93.6754 274.794 93.7854 275.294 93.7854ZM281.727 95V85.9439H283.49V95H281.727ZM282.618 84.5466C282.311 84.5466 282.048 84.4444 281.828 84.24C281.612 84.0317 281.503 83.7841 281.503 83.4971C281.503 83.2063 281.612 82.9586 281.828 82.7542C282.048 82.5459 282.311 82.4418 282.618 82.4418C282.924 82.4418 283.186 82.5459 283.402 82.7542C283.622 82.9586 283.732 83.2063 283.732 83.4971C283.732 83.7841 283.622 84.0317 283.402 84.24C283.186 84.4444 282.924 84.5466 282.618 84.5466ZM287.625 82.9252V95H285.862V82.9252H287.625ZM291.111 98.396C290.847 98.396 290.608 98.3744 290.391 98.3312C290.175 98.2919 290.014 98.2486 289.908 98.2015L290.333 96.757C290.655 96.8434 290.942 96.8808 291.193 96.869C291.445 96.8572 291.667 96.7629 291.86 96.586C292.056 96.4091 292.229 96.1202 292.378 95.7193L292.597 95.1179L289.283 85.9439H291.17L293.463 92.9718H293.558L295.851 85.9439H297.744L294.012 96.2087C293.839 96.6803 293.619 97.0793 293.351 97.4055C293.084 97.7357 292.766 97.9833 292.396 98.1484C292.027 98.3135 291.598 98.396 291.111 98.396ZM303.794 95V85.9439H305.557V95H303.794ZM304.685 84.5466C304.378 84.5466 304.115 84.4444 303.895 84.24C303.678 84.0317 303.57 83.7841 303.57 83.4971C303.57 83.2063 303.678 82.9586 303.895 82.7542C304.115 82.5459 304.378 82.4418 304.685 82.4418C304.991 82.4418 305.253 82.5459 305.469 82.7542C305.689 82.9586 305.799 83.2063 305.799 83.4971C305.799 83.7841 305.689 84.0317 305.469 84.24C305.253 84.4444 304.991 84.5466 304.685 84.5466ZM309.692 89.623V95H307.929V85.9439H309.621V87.4179H309.733C309.941 86.9384 310.268 86.5532 310.712 86.2623C311.16 85.9714 311.724 85.826 312.404 85.826C313.021 85.826 313.561 85.9557 314.025 86.2151C314.489 86.4706 314.849 86.8519 315.104 87.3589C315.36 87.866 315.487 88.4929 315.487 89.2397V95H313.724V89.452C313.724 88.7956 313.553 88.2826 313.212 87.9131C312.87 87.5397 312.4 87.353 311.802 87.353C311.394 87.353 311.03 87.4415 310.712 87.6184C310.397 87.7952 310.148 88.0546 309.963 88.3966C309.782 88.7346 309.692 89.1434 309.692 89.623ZM324.638 88.1549L323.04 88.4379C322.973 88.2335 322.867 88.0389 322.722 87.8542C322.58 87.6694 322.387 87.5181 322.144 87.4002C321.9 87.2823 321.595 87.2233 321.23 87.2233C320.731 87.2233 320.314 87.3353 319.98 87.5594C319.646 87.7795 319.479 88.0645 319.479 88.4143C319.479 88.717 319.591 88.9606 319.815 89.1454C320.039 89.3301 320.401 89.4815 320.9 89.5994L322.338 89.9295C323.172 90.1221 323.793 90.4189 324.201 90.8198C324.61 91.2207 324.815 91.7415 324.815 92.3822C324.815 92.9246 324.657 93.4081 324.343 93.8326C324.032 94.2532 323.598 94.5834 323.04 94.8231C322.486 95.0629 321.843 95.1828 321.112 95.1828C320.098 95.1828 319.271 94.9666 318.63 94.5342C317.989 94.0979 317.596 93.4789 317.451 92.677L319.155 92.4176C319.261 92.8618 319.479 93.1978 319.809 93.4258C320.139 93.6498 320.57 93.7619 321.1 93.7619C321.678 93.7619 322.14 93.642 322.486 93.4022C322.832 93.1585 323.005 92.8618 323.005 92.5119C323.005 92.2289 322.898 91.9911 322.686 91.7985C322.478 91.6059 322.158 91.4605 321.725 91.3622L320.192 91.0262C319.347 90.8336 318.722 90.527 318.317 90.1064C317.916 89.6858 317.716 89.1532 317.716 88.5086C317.716 87.9741 317.865 87.5063 318.164 87.1054C318.463 86.7045 318.875 86.392 319.402 86.168C319.929 85.94 320.532 85.826 321.212 85.826C322.191 85.826 322.961 86.0383 323.523 86.4628C324.085 86.8833 324.457 87.4474 324.638 88.1549ZM330.98 85.9439V87.3589H326.034V85.9439H330.98ZM327.36 83.7742H329.123V92.341C329.123 92.6829 329.174 92.9404 329.276 93.1133C329.379 93.2823 329.51 93.3983 329.671 93.4612C329.836 93.5201 330.015 93.5496 330.208 93.5496C330.349 93.5496 330.473 93.5398 330.579 93.5201C330.685 93.5005 330.768 93.4848 330.827 93.473L331.145 94.9292C331.043 94.9686 330.898 95.0079 330.709 95.0472C330.52 95.0904 330.285 95.114 330.002 95.1179C329.538 95.1258 329.105 95.0432 328.704 94.8703C328.304 94.6973 327.979 94.4301 327.732 94.0684C327.484 93.7068 327.36 93.2529 327.36 92.7065V83.7742ZM335.566 95.2005C334.992 95.2005 334.473 95.0943 334.009 94.8821C333.545 94.6659 333.178 94.3534 332.907 93.9446C332.639 93.5359 332.506 93.0347 332.506 92.4412C332.506 91.9302 332.604 91.5096 332.801 91.1795C332.997 90.8493 333.262 90.5879 333.597 90.3953C333.931 90.2027 334.304 90.0573 334.717 89.959C335.129 89.8608 335.55 89.7861 335.978 89.735C336.521 89.6721 336.961 89.621 337.299 89.5817C337.637 89.5384 337.883 89.4697 338.036 89.3753C338.189 89.281 338.266 89.1277 338.266 88.9154V88.8742C338.266 88.3593 338.121 87.9603 337.83 87.6773C337.543 87.3943 337.114 87.2528 336.544 87.2528C335.951 87.2528 335.483 87.3845 335.141 87.6478C334.803 87.9072 334.569 88.1961 334.44 88.5145L332.783 88.1372C332.979 87.5869 333.266 87.1427 333.644 86.8047C334.025 86.4628 334.463 86.2151 334.958 86.0618C335.454 85.9046 335.975 85.826 336.521 85.826C336.883 85.826 337.266 85.8692 337.671 85.9557C338.079 86.0383 338.461 86.1915 338.814 86.4156C339.172 86.6396 339.465 86.96 339.693 87.3766C339.921 87.7893 340.035 88.3259 340.035 88.9862V95H338.313V93.7619H338.243C338.129 93.9898 337.958 94.2139 337.73 94.434C337.502 94.6541 337.209 94.8369 336.851 94.9823C336.493 95.1277 336.065 95.2005 335.566 95.2005ZM335.949 93.7854C336.436 93.7854 336.853 93.6891 337.199 93.4965C337.549 93.304 337.814 93.0524 337.995 92.7419C338.18 92.4274 338.272 92.0914 338.272 91.7337V90.5663C338.209 90.6292 338.087 90.6881 337.906 90.7432C337.73 90.7943 337.527 90.8395 337.299 90.8788C337.071 90.9142 336.849 90.9476 336.633 90.979C336.417 91.0065 336.236 91.0301 336.091 91.0498C335.749 91.093 335.436 91.1657 335.153 91.2679C334.874 91.3701 334.65 91.5175 334.481 91.7101C334.316 91.8988 334.233 92.1503 334.233 92.4648C334.233 92.9011 334.394 93.2312 334.717 93.4553C335.039 93.6754 335.45 93.7854 335.949 93.7854ZM344.146 82.9252V95H342.383V82.9252H344.146ZM348.28 82.9252V95H346.517V82.9252H348.28ZM357.438 88.1549L355.84 88.4379C355.773 88.2335 355.667 88.0389 355.522 87.8542C355.38 87.6694 355.188 87.5181 354.944 87.4002C354.7 87.2823 354.396 87.2233 354.03 87.2233C353.531 87.2233 353.114 87.3353 352.78 87.5594C352.446 87.7795 352.279 88.0645 352.279 88.4143C352.279 88.717 352.391 88.9606 352.615 89.1454C352.839 89.3301 353.201 89.4815 353.7 89.5994L355.139 89.9295C355.972 90.1221 356.593 90.4189 357.002 90.8198C357.411 91.2207 357.615 91.7415 357.615 92.3822C357.615 92.9246 357.458 93.4081 357.143 93.8326C356.833 94.2532 356.398 94.5834 355.84 94.8231C355.286 95.0629 354.643 95.1828 353.912 95.1828C352.898 95.1828 352.071 94.9666 351.43 94.5342C350.789 94.0979 350.396 93.4789 350.251 92.677L351.955 92.4176C352.061 92.8618 352.279 93.1978 352.609 93.4258C352.939 93.6498 353.37 93.7619 353.901 93.7619C354.478 93.7619 354.94 93.642 355.286 93.4022C355.632 93.1585 355.805 92.8618 355.805 92.5119C355.805 92.2289 355.699 91.9911 355.486 91.7985C355.278 91.6059 354.958 91.4605 354.525 91.3622L352.993 91.0262C352.147 90.8336 351.522 90.527 351.118 90.1064C350.717 89.6858 350.516 89.1532 350.516 88.5086C350.516 87.9741 350.666 87.5063 350.964 87.1054C351.263 86.7045 351.676 86.392 352.202 86.168C352.729 85.94 353.333 85.826 354.013 85.826C354.991 85.826 355.762 86.0383 356.324 86.4628C356.886 86.8833 357.257 87.4474 357.438 88.1549Z" fill="white"/>
<path d="M117.575 149.889H118.168V149.296H117.575V149.889ZM116.389 217.111H115.796V217.704H116.389V217.111ZM166.301 149.889H166.894V149.296H166.301V149.889ZM165.115 217.111H164.522V217.704H165.115V217.111ZM216.228 217.111V217.704H216.821V217.111H216.228ZM215.042 149.889V149.296H214.449V149.889H215.042ZM267.708 149.889H268.301V149.296H267.708V149.889ZM266.522 217.111H265.929V217.704H266.522V217.111ZM72.5868 217.111V217.704H73.1798V217.111H72.5868ZM71.4009 151.745V151.152H70.8079V151.745H71.4009ZM318.556 149.889V149.296H317.963V149.889H318.556ZM319.742 217.111V217.704H320.335V217.111H319.742ZM117.575 149.296H116.982V150.482H117.575V149.296ZM115.796 149.889V152.29H116.982V149.889H115.796ZM115.796 157.091V161.893H116.982V157.091H115.796ZM115.796 166.694V171.496H116.982V166.694H115.796ZM115.796 176.298V181.099H116.982V176.298H115.796ZM115.796 185.901V190.702H116.982V185.901H115.796ZM115.796 195.504V200.306H116.982V195.504H115.796ZM115.796 205.107V209.909H116.982V205.107H115.796ZM115.796 214.71V217.111H116.982V214.71H115.796ZM116.389 217.704H116.982V216.518H116.389V217.704ZM118.168 217.111V214.71H116.982V217.111H118.168ZM118.168 209.909V205.107H116.982V209.909H118.168ZM118.168 200.306V195.504H116.982V200.306H118.168ZM118.168 190.702V185.901H116.982V190.702H118.168ZM118.168 181.099V176.298H116.982V181.099H118.168ZM118.168 171.496V166.694H116.982V171.496H118.168ZM118.168 161.893V157.091H116.982V161.893H118.168ZM118.168 152.29V149.889H116.982V152.29H118.168ZM166.301 149.296H165.708V150.482H166.301V149.296ZM164.522 149.889V152.29H165.708V149.889H164.522ZM164.522 157.091V161.893H165.708V157.091H164.522ZM164.522 166.694V171.496H165.708V166.694H164.522ZM164.522 176.298V181.099H165.708V176.298H164.522ZM164.522 185.901V190.702H165.708V185.901H164.522ZM164.522 195.504V200.306H165.708V195.504H164.522ZM164.522 205.107V209.909H165.708V205.107H164.522ZM164.522 214.71V217.111H165.708V214.71H164.522ZM165.115 217.704H165.708V216.518H165.115V217.704ZM166.894 217.111V214.71H165.708V217.111H166.894ZM166.894 209.909V205.107H165.708V209.909H166.894ZM166.894 200.306V195.504H165.708V200.306H166.894ZM166.894 190.702V185.901H165.708V190.702H166.894ZM166.894 181.099V176.298H165.708V181.099H166.894ZM166.894 171.496V166.694H165.708V171.496H166.894ZM166.894 161.893V157.091H165.708V161.893H166.894ZM166.894 152.29V149.889H165.708V152.29H166.894ZM216.228 216.518H215.635V217.704H216.228V216.518ZM215.635 217.111V214.71H214.449V217.111H215.635ZM215.635 209.909V205.107H214.449V209.909H215.635ZM215.635 200.306V195.504H214.449V200.306H215.635ZM215.635 190.702V185.901H214.449V190.702H215.635ZM215.635 181.099V176.298H214.449V181.099H215.635ZM215.635 171.496V166.694H214.449V171.496H215.635ZM215.635 161.893V157.091H214.449V161.893H215.635ZM215.635 152.29V149.889H214.449V152.29H215.635ZM215.042 150.482H215.635V149.296H215.042V150.482ZM215.635 149.889V152.29H216.821V149.889H215.635ZM215.635 157.091V161.893H216.821V157.091H215.635ZM215.635 166.694V171.496H216.821V166.694H215.635ZM215.635 176.298V181.099H216.821V176.298H215.635ZM215.635 185.901V190.702H216.821V185.901H215.635ZM215.635 195.504V200.306H216.821V195.504H215.635ZM215.635 205.107V209.909H216.821V205.107H215.635ZM215.635 214.71V217.111H216.821V214.71H215.635ZM267.708 149.296H267.115V150.482H267.708V149.296ZM265.929 149.889V152.29H267.115V149.889H265.929ZM265.929 157.091V161.893H267.115V157.091H265.929ZM265.929 166.694V171.496H267.115V166.694H265.929ZM265.929 176.298V181.099H267.115V176.298H265.929ZM265.929 185.901V190.702H267.115V185.901H265.929ZM265.929 195.504V200.306H267.115V195.504H265.929ZM265.929 205.107V209.909H267.115V205.107H265.929ZM265.929 214.71V217.111H267.115V214.71H265.929ZM266.522 217.704H267.115V216.518H266.522V217.704ZM268.301 217.111V214.71H267.115V217.111H268.301ZM268.301 209.909V205.107H267.115V209.909H268.301ZM268.301 200.306V195.504H267.115V200.306H268.301ZM268.301 190.702V185.901H267.115V190.702H268.301ZM268.301 181.099V176.298H267.115V181.099H268.301ZM268.301 171.496V166.694H267.115V171.496H268.301ZM268.301 161.893V157.091H267.115V161.893H268.301ZM268.301 152.29V149.889H267.115V152.29H268.301ZM72.5868 216.518H71.9938V217.704H72.5868V216.518ZM71.9938 217.111V214.777H70.8079V217.111H71.9938ZM71.9938 210.108V205.439H70.8079V210.108H71.9938ZM71.9938 200.77V196.101H70.8079V200.77H71.9938ZM71.9938 191.432V186.763H70.8079V191.432H71.9938ZM71.9938 182.094V177.425H70.8079V182.094H71.9938ZM71.9938 172.756V168.087H70.8079V172.756H71.9938ZM71.9938 163.418V158.749H70.8079V163.418H71.9938ZM71.9938 154.08V151.745H70.8079V154.08H71.9938ZM71.4009 152.338H71.9938V151.152H71.4009V152.338ZM71.9938 151.745V154.08H73.1798V151.745H71.9938ZM71.9938 158.749V163.418H73.1798V158.749H71.9938ZM71.9938 168.087V172.756H73.1798V168.087H71.9938ZM71.9938 177.425V182.094H73.1798V177.425H71.9938ZM71.9938 186.763V191.432H73.1798V186.763H71.9938ZM71.9938 196.101V200.77H73.1798V196.101H71.9938ZM71.9938 205.439V210.108H73.1798V205.439H71.9938ZM71.9938 214.777V217.111H73.1798V214.777H71.9938ZM319.149 217.111V214.71H317.963V217.111H319.149ZM319.149 209.909V205.107H317.963V209.909H319.149ZM319.149 200.306V195.504H317.963V200.306H319.149ZM319.149 190.702V185.901H317.963V190.702H319.149ZM319.149 181.099V176.298H317.963V181.099H319.149ZM319.149 171.496V166.694H317.963V171.496H319.149ZM319.149 161.893V157.091H317.963V161.893H319.149ZM319.149 152.29V149.889H317.963V152.29H319.149ZM318.556 150.482H319.149V149.296H318.556V150.482ZM319.149 149.889V152.29H320.335V149.889H319.149ZM319.149 157.091V161.893H320.335V157.091H319.149ZM319.149 166.694V171.496H320.335V166.694H319.149ZM319.149 176.298V181.099H320.335V176.298H319.149ZM319.149 185.901V190.702H320.335V185.901H319.149ZM319.149 195.504V200.306H320.335V195.504H319.149ZM319.149 205.107V209.909H320.335V205.107H319.149ZM319.149 214.71V217.111H320.335V214.71H319.149ZM319.742 216.518H319.149V217.704H319.742V216.518Z" fill="#0A1826"/>
<path d="M70.9045 217.111L116.154 189.734L161.6 207.796L209.789 175.912L259.527 194.41L320.238 149.889" stroke="#0BB885" stroke-width="2.96479"/>
<g filter="url(#filter1_d_12_3217)">
<circle cx="328.358" cy="151.598" r="9.48732" fill="#1C243F"/>
<circle cx="328.358" cy="151.598" r="6.52254" stroke="#0BB885" stroke-width="5.92958"/>
</g>
<path d="M62.483 57.2805L59.9808 57.7237C59.8762 57.4036 59.71 57.099 59.4822 56.8097C59.2607 56.5204 58.959 56.2834 58.5774 56.0987C58.1958 55.9141 57.7188 55.8217 57.1463 55.8217C56.3646 55.8217 55.7121 55.9972 55.1889 56.348C54.6657 56.6927 54.4041 57.139 54.4041 57.6868C54.4041 58.1607 54.5795 58.5424 54.9304 58.8317C55.2813 59.121 55.8475 59.358 56.6293 59.5426L58.8821 60.0597C60.187 60.3613 61.1596 60.826 61.7997 61.4538C62.4399 62.0817 62.7599 62.8973 62.7599 63.9006C62.7599 64.75 62.5137 65.5071 62.0213 66.1719C61.535 66.8305 60.8549 67.3475 59.9808 67.723C59.1129 68.0985 58.1065 68.2862 56.9616 68.2862C55.3736 68.2862 54.0779 67.9477 53.0746 67.2706C52.0713 66.5874 51.4557 65.6179 51.228 64.3622L53.8963 63.956C54.0625 64.6515 54.4041 65.1778 54.9212 65.5348C55.4382 65.8857 56.1122 66.0611 56.9432 66.0611C57.848 66.0611 58.5713 65.8733 59.1129 65.4979C59.6546 65.1162 59.9254 64.6515 59.9254 64.1037C59.9254 63.6605 59.7592 63.2881 59.4268 62.9865C59.1006 62.6849 58.599 62.4571 57.9219 62.3033L55.5213 61.777C54.1979 61.4754 53.2192 60.9953 52.5852 60.3366C51.9574 59.678 51.6435 58.844 51.6435 57.8345C51.6435 56.9974 51.8774 56.2649 52.3452 55.6371C52.813 55.0092 53.4593 54.5199 54.2841 54.169C55.1089 53.812 56.0537 53.6335 57.1186 53.6335C58.6513 53.6335 59.8577 53.9659 60.7379 54.6307C61.6181 55.2893 62.1998 56.1726 62.483 57.2805ZM71.9075 68.2862C70.5102 68.2862 69.3069 67.9877 68.2974 67.3906C67.2941 66.7874 66.5185 65.9411 65.9707 64.8516C65.429 63.7559 65.1582 62.4725 65.1582 61.0014C65.1582 59.5488 65.429 58.2685 65.9707 57.1605C66.5185 56.0526 67.2818 55.1877 68.2605 54.5661C69.2453 53.9444 70.3964 53.6335 71.7136 53.6335C72.5138 53.6335 73.2894 53.7659 74.0403 54.0305C74.7913 54.2952 75.4653 54.7107 76.0623 55.277C76.6594 55.8433 77.1303 56.5788 77.475 57.4837C77.8197 58.3823 77.992 59.4749 77.992 60.7614V61.7401H66.7186V59.6719H75.2868C75.2868 58.9455 75.139 58.3023 74.8436 57.7422C74.5481 57.1759 74.1326 56.7296 73.5971 56.4034C73.0678 56.0772 72.4461 55.9141 71.7321 55.9141C70.9565 55.9141 70.2794 56.1049 69.7008 56.4865C69.1284 56.862 68.6852 57.3544 68.3713 57.9638C68.0635 58.567 67.9096 59.2225 67.9096 59.9304V61.5462C67.9096 62.4941 68.0758 63.3004 68.4082 63.9652C68.7467 64.63 69.2176 65.1378 69.8208 65.4886C70.4241 65.8333 71.1288 66.0057 71.9352 66.0057C72.4584 66.0057 72.9354 65.9318 73.3663 65.7841C73.7972 65.6302 74.1696 65.4025 74.4835 65.1009C74.7974 64.7992 75.0375 64.4268 75.2037 63.9837L77.8166 64.4545C77.6073 65.224 77.2318 65.898 76.6902 66.4766C76.1547 67.049 75.4806 67.4953 74.6681 67.8153C73.8618 68.1293 72.9416 68.2862 71.9075 68.2862ZM85.1822 68.3139C84.2835 68.3139 83.471 68.1477 82.7447 67.8153C82.0183 67.4768 81.4428 66.9875 81.0181 66.3473C80.5996 65.7071 80.3903 64.9223 80.3903 63.9929C80.3903 63.1927 80.5442 62.5341 80.8519 62.017C81.1597 61.5 81.5752 61.0907 82.0984 60.7891C82.6216 60.4875 83.2063 60.2597 83.8526 60.1058C84.4989 59.9519 85.1576 59.835 85.8285 59.755C86.6779 59.6565 87.3673 59.5765 87.8967 59.5149C88.426 59.4472 88.8107 59.3395 89.0508 59.1918C89.2908 59.044 89.4109 58.804 89.4109 58.4716V58.407C89.4109 57.6006 89.1831 56.9759 88.7276 56.5327C88.2783 56.0895 87.6074 55.8679 86.7148 55.8679C85.7854 55.8679 85.0529 56.0741 84.5174 56.4865C83.988 56.8928 83.6218 57.3452 83.4187 57.8438L80.8242 57.2528C81.132 56.3911 81.5813 55.6955 82.1722 55.1662C82.7693 54.6307 83.4556 54.2429 84.2312 54.0028C85.0067 53.7566 85.8223 53.6335 86.6779 53.6335C87.2442 53.6335 87.8443 53.7012 88.4783 53.8366C89.1185 53.9659 89.7156 54.206 90.2695 54.5568C90.8297 54.9077 91.2882 55.4093 91.6452 56.0618C92.0022 56.7081 92.1808 57.5483 92.1808 58.5824V68H89.4847V66.0611H89.3739C89.1954 66.4181 88.9277 66.7689 88.5707 67.1136C88.2137 67.4583 87.7551 67.7446 87.195 67.9723C86.6348 68.2 85.9639 68.3139 85.1822 68.3139ZM85.7823 66.098C86.5456 66.098 87.198 65.9472 87.7397 65.6456C88.2875 65.344 88.703 64.95 88.9862 64.4638C89.2755 63.9714 89.4201 63.4451 89.4201 62.8849V61.0568C89.3216 61.1553 89.1308 61.2476 88.8477 61.3338C88.5707 61.4138 88.2537 61.4846 87.8967 61.5462C87.5397 61.6016 87.1919 61.6539 86.8533 61.7031C86.5148 61.7462 86.2317 61.7831 86.0039 61.8139C85.4684 61.8816 84.979 61.9955 84.5359 62.1555C84.0988 62.3156 83.748 62.5464 83.4833 62.848C83.2248 63.1435 83.0955 63.5374 83.0955 64.0298C83.0955 64.7131 83.3479 65.2301 83.8526 65.581C84.3574 65.9257 85.0006 66.098 85.7823 66.098ZM95.8578 68V53.8182H98.5261V56.071H98.6738C98.9324 55.3078 99.3878 54.7076 100.04 54.2706C100.699 53.8274 101.444 53.6058 102.275 53.6058C102.447 53.6058 102.65 53.612 102.884 53.6243C103.124 53.6366 103.312 53.652 103.447 53.6705V56.3111C103.336 56.2803 103.14 56.2464 102.856 56.2095C102.573 56.1664 102.29 56.1449 102.007 56.1449C101.354 56.1449 100.773 56.2834 100.262 56.5604C99.7572 56.8312 99.3571 57.2098 99.0616 57.696C98.7662 58.1761 98.6184 58.724 98.6184 59.3395V68H95.8578ZM111.302 68.2862C109.93 68.2862 108.748 67.9754 107.757 67.3537C106.772 66.7259 106.015 65.861 105.485 64.7592C104.956 63.6574 104.691 62.3956 104.691 60.9737C104.691 59.5334 104.962 58.2623 105.504 57.1605C106.046 56.0526 106.809 55.1877 107.794 54.5661C108.779 53.9444 109.939 53.6335 111.275 53.6335C112.352 53.6335 113.312 53.8336 114.155 54.2337C114.998 54.6276 115.679 55.1816 116.196 55.8956C116.719 56.6096 117.03 57.4437 117.128 58.3977H114.441C114.294 57.733 113.955 57.1605 113.426 56.6804C112.903 56.2003 112.201 55.9602 111.321 55.9602C110.551 55.9602 109.877 56.1634 109.299 56.5696C108.726 56.9697 108.28 57.5421 107.96 58.2869C107.64 59.0256 107.48 59.8996 107.48 60.9091C107.48 61.9432 107.637 62.8357 107.951 63.5866C108.265 64.3376 108.708 64.9193 109.28 65.3317C109.859 65.7441 110.539 65.9503 111.321 65.9503C111.844 65.9503 112.318 65.8549 112.743 65.6641C113.173 65.4671 113.533 65.187 113.823 64.8239C114.118 64.4607 114.324 64.0237 114.441 63.5128H117.128C117.03 64.4299 116.731 65.2486 116.233 65.9688C115.734 66.6889 115.066 67.2552 114.229 67.6676C113.398 68.08 112.422 68.2862 111.302 68.2862ZM122.841 59.5795V68H120.08V49.0909H122.804V56.1264H122.98C123.312 55.3632 123.82 54.7569 124.503 54.3075C125.186 53.8582 126.079 53.6335 127.181 53.6335C128.153 53.6335 129.003 53.8336 129.729 54.2337C130.461 54.6338 131.028 55.2308 131.428 56.0249C131.834 56.8127 132.037 57.7976 132.037 58.9794V68H129.276V59.3118C129.276 58.2715 129.009 57.4652 128.473 56.8928C127.938 56.3142 127.193 56.0249 126.239 56.0249C125.586 56.0249 125.002 56.1634 124.485 56.4403C123.974 56.7173 123.57 57.1236 123.275 57.6591C122.986 58.1884 122.841 58.8286 122.841 59.5795ZM144.347 73.3182C143.935 73.3182 143.559 73.2843 143.221 73.2166C142.882 73.1551 142.63 73.0874 142.463 73.0135L143.128 70.7514C143.633 70.8868 144.082 70.9453 144.476 70.9268C144.87 70.9084 145.218 70.7607 145.52 70.4837C145.827 70.2067 146.098 69.7543 146.332 69.1264L146.674 68.1847L141.485 53.8182H144.439L148.031 64.8239H148.179L151.77 53.8182H154.734L148.89 69.8928C148.619 70.6314 148.274 71.2562 147.855 71.767C147.437 72.2841 146.938 72.6719 146.36 72.9304C145.781 73.1889 145.11 73.3182 144.347 73.3182ZM162.82 68.2862C161.49 68.2862 160.33 67.9815 159.339 67.3722C158.348 66.7628 157.579 65.9103 157.031 64.8146C156.483 63.719 156.209 62.4387 156.209 60.9737C156.209 59.5026 156.483 58.2161 157.031 57.1143C157.579 56.0125 158.348 55.157 159.339 54.5476C160.33 53.9382 161.49 53.6335 162.82 53.6335C164.149 53.6335 165.31 53.9382 166.301 54.5476C167.292 55.157 168.061 56.0125 168.609 57.1143C169.157 58.2161 169.431 59.5026 169.431 60.9737C169.431 62.4387 169.157 63.719 168.609 64.8146C168.061 65.9103 167.292 66.7628 166.301 67.3722C165.31 67.9815 164.149 68.2862 162.82 68.2862ZM162.829 65.9688C163.691 65.9688 164.405 65.741 164.971 65.2855C165.537 64.83 165.956 64.2237 166.227 63.4666C166.504 62.7095 166.642 61.8755 166.642 60.9645C166.642 60.0597 166.504 59.2287 166.227 58.4716C165.956 57.7083 165.537 57.0959 164.971 56.6342C164.405 56.1726 163.691 55.9418 162.829 55.9418C161.961 55.9418 161.241 56.1726 160.669 56.6342C160.102 57.0959 159.681 57.7083 159.404 58.4716C159.133 59.2287 158.997 60.0597 158.997 60.9645C158.997 61.8755 159.133 62.7095 159.404 63.4666C159.681 64.2237 160.102 64.83 160.669 65.2855C161.241 65.741 161.961 65.9688 162.829 65.9688ZM181.496 62.1186V53.8182H184.266V68H181.551V65.544H181.403C181.077 66.3011 180.554 66.9321 179.834 67.4368C179.12 67.9354 178.23 68.1847 177.165 68.1847C176.254 68.1847 175.448 67.9846 174.746 67.5845C174.051 67.1783 173.503 66.5781 173.103 65.7841C172.709 64.9901 172.512 64.0083 172.512 62.8388V53.8182H175.273V62.5064C175.273 63.4728 175.54 64.2422 176.076 64.8146C176.612 65.3871 177.307 65.6733 178.163 65.6733C178.68 65.6733 179.194 65.544 179.705 65.2855C180.222 65.027 180.649 64.6361 180.988 64.1129C181.333 63.5897 181.502 62.925 181.496 62.1186ZM187.975 68V53.8182H190.643V56.071H190.791C191.05 55.3078 191.505 54.7076 192.157 54.2706C192.816 53.8274 193.561 53.6058 194.392 53.6058C194.564 53.6058 194.767 53.612 195.001 53.6243C195.241 53.6366 195.429 53.652 195.564 53.6705V56.3111C195.454 56.2803 195.257 56.2464 194.974 56.2095C194.69 56.1664 194.407 56.1449 194.124 56.1449C193.472 56.1449 192.89 56.2834 192.379 56.5604C191.874 56.8312 191.474 57.2098 191.179 57.696C190.883 58.1761 190.736 58.724 190.736 59.3395V68H187.975ZM208.961 68.3139C208.063 68.3139 207.25 68.1477 206.524 67.8153C205.798 67.4768 205.222 66.9875 204.797 66.3473C204.379 65.7071 204.17 64.9223 204.17 63.9929C204.17 63.1927 204.323 62.5341 204.631 62.017C204.939 61.5 205.354 61.0907 205.878 60.7891C206.401 60.4875 206.986 60.2597 207.632 60.1058C208.278 59.9519 208.937 59.835 209.608 59.755C210.457 59.6565 211.147 59.5765 211.676 59.5149C212.205 59.4472 212.59 59.3395 212.83 59.1918C213.07 59.044 213.19 58.804 213.19 58.4716V58.407C213.19 57.6006 212.962 56.9759 212.507 56.5327C212.058 56.0895 211.387 55.8679 210.494 55.8679C209.565 55.8679 208.832 56.0741 208.297 56.4865C207.767 56.8928 207.401 57.3452 207.198 57.8438L204.604 57.2528C204.911 56.3911 205.361 55.6955 205.952 55.1662C206.549 54.6307 207.235 54.2429 208.01 54.0028C208.786 53.7566 209.602 53.6335 210.457 53.6335C211.023 53.6335 211.624 53.7012 212.258 53.8366C212.898 53.9659 213.495 54.206 214.049 54.5568C214.609 54.9077 215.068 55.4093 215.425 56.0618C215.782 56.7081 215.96 57.5483 215.96 58.5824V68H213.264V66.0611H213.153C212.975 66.4181 212.707 66.7689 212.35 67.1136C211.993 67.4583 211.534 67.7446 210.974 67.9723C210.414 68.2 209.743 68.3139 208.961 68.3139ZM209.562 66.098C210.325 66.098 210.977 65.9472 211.519 65.6456C212.067 65.344 212.482 64.95 212.765 64.4638C213.055 63.9714 213.199 63.4451 213.199 62.8849V61.0568C213.101 61.1553 212.91 61.2476 212.627 61.3338C212.35 61.4138 212.033 61.4846 211.676 61.5462C211.319 61.6016 210.971 61.6539 210.633 61.7031C210.294 61.7462 210.011 61.7831 209.783 61.8139C209.248 61.8816 208.758 61.9955 208.315 62.1555C207.878 62.3156 207.527 62.5464 207.263 62.848C207.004 63.1435 206.875 63.5374 206.875 64.0298C206.875 64.7131 207.127 65.2301 207.632 65.581C208.137 65.9257 208.78 66.098 209.562 66.098ZM219.637 73.3182V53.8182H222.333V56.1172H222.564C222.724 55.8217 222.955 55.4801 223.256 55.0923C223.558 54.7045 223.977 54.366 224.512 54.0767C225.048 53.7812 225.755 53.6335 226.636 53.6335C227.781 53.6335 228.802 53.9228 229.701 54.5014C230.6 55.08 231.304 55.9141 231.815 57.0036C232.332 58.093 232.591 59.4041 232.591 60.9368C232.591 62.4695 232.335 63.7836 231.825 64.8793C231.314 65.9687 230.612 66.8089 229.719 67.3999C228.827 67.9846 227.808 68.277 226.663 68.277C225.802 68.277 225.097 68.1323 224.549 67.843C224.007 67.5537 223.583 67.2152 223.275 66.8274C222.967 66.4396 222.73 66.0949 222.564 65.7933H222.398V73.3182H219.637ZM222.342 60.9091C222.342 61.9062 222.487 62.7803 222.776 63.5312C223.066 64.2822 223.484 64.87 224.032 65.2947C224.58 65.7133 225.251 65.9226 226.045 65.9226C226.87 65.9226 227.559 65.7041 228.113 65.267C228.667 64.8239 229.085 64.2237 229.369 63.4666C229.658 62.7095 229.803 61.857 229.803 60.9091C229.803 59.9735 229.661 59.1333 229.378 58.3885C229.101 57.6437 228.682 57.0559 228.122 56.625C227.568 56.1941 226.876 55.9787 226.045 55.9787C225.245 55.9787 224.567 56.1849 224.013 56.5973C223.466 57.0097 223.05 57.5852 222.767 58.3239C222.484 59.0625 222.342 59.9242 222.342 60.9091ZM235.684 73.3182V53.8182H238.38V56.1172H238.611C238.771 55.8217 239.002 55.4801 239.303 55.0923C239.605 54.7045 240.023 54.366 240.559 54.0767C241.094 53.7812 241.802 53.6335 242.683 53.6335C243.827 53.6335 244.849 53.9228 245.748 54.5014C246.647 55.08 247.351 55.9141 247.862 57.0036C248.379 58.093 248.638 59.4041 248.638 60.9368C248.638 62.4695 248.382 63.7836 247.871 64.8793C247.361 65.9687 246.659 66.8089 245.766 67.3999C244.874 67.9846 243.855 68.277 242.71 68.277C241.848 68.277 241.144 68.1323 240.596 67.843C240.054 67.5537 239.629 67.2152 239.322 66.8274C239.014 66.4396 238.777 66.0949 238.611 65.7933H238.445V73.3182H235.684ZM238.389 60.9091C238.389 61.9062 238.534 62.7803 238.823 63.5312C239.112 64.2822 239.531 64.87 240.079 65.2947C240.627 65.7133 241.298 65.9226 242.092 65.9226C242.916 65.9226 243.606 65.7041 244.16 65.267C244.714 64.8239 245.132 64.2237 245.415 63.4666C245.705 62.7095 245.849 61.857 245.849 60.9091C245.849 59.9735 245.708 59.1333 245.425 58.3885C245.148 57.6437 244.729 57.0559 244.169 56.625C243.615 56.1941 242.923 55.9787 242.092 55.9787C241.291 55.9787 240.614 56.1849 240.06 56.5973C239.513 57.0097 239.097 57.5852 238.814 58.3239C238.531 59.0625 238.389 59.9242 238.389 60.9091ZM264.115 68.2678C262.847 68.2678 261.754 68.0369 260.837 67.5753C259.926 67.1136 259.224 66.4858 258.732 65.6918C258.239 64.8916 257.993 63.9867 257.993 62.9773C257.993 62.2079 258.153 61.5246 258.473 60.9276C258.793 60.3243 259.24 59.7673 259.812 59.2564C260.384 58.7455 261.046 58.2315 261.797 57.7145L264.844 55.5632C265.361 55.2247 265.764 54.8677 266.053 54.4922C266.343 54.1106 266.487 53.6397 266.487 53.0795C266.487 52.6364 266.297 52.2116 265.915 51.8054C265.533 51.3991 265.022 51.196 264.382 51.196C263.939 51.196 263.548 51.3037 263.21 51.5192C262.877 51.7346 262.616 52.0116 262.425 52.3501C262.24 52.6825 262.148 53.0334 262.148 53.4027C262.148 53.8336 262.265 54.2675 262.499 54.7045C262.739 55.1416 263.047 55.594 263.422 56.0618C263.798 56.5234 264.191 57.0036 264.604 57.5021L273.384 68H270.264L262.997 59.4595C262.388 58.7393 261.822 58.0623 261.298 57.4283C260.775 56.7881 260.351 56.1418 260.024 55.4893C259.704 54.8307 259.544 54.1198 259.544 53.3565C259.544 52.4886 259.741 51.7192 260.135 51.0483C260.535 50.3712 261.092 49.8419 261.806 49.4602C262.52 49.0786 263.357 48.8878 264.318 48.8878C265.29 48.8878 266.124 49.0786 266.82 49.4602C267.521 49.8357 268.06 50.3374 268.436 50.9652C268.817 51.5869 269.008 52.267 269.008 53.0057C269.008 53.9044 268.783 54.6984 268.334 55.3878C267.891 56.071 267.278 56.6989 266.497 57.2713L262.702 60.0689C261.963 60.6106 261.449 61.1461 261.16 61.6754C260.877 62.1986 260.735 62.608 260.735 62.9034C260.735 63.4451 260.874 63.9467 261.151 64.4084C261.434 64.87 261.828 65.2393 262.333 65.5163C262.843 65.7933 263.441 65.9318 264.124 65.9318C264.825 65.9318 265.509 65.781 266.173 65.4794C266.844 65.1716 267.451 64.7315 267.992 64.1591C268.54 63.5866 268.974 62.9003 269.294 62.1001C269.614 61.3 269.774 60.4044 269.774 59.4134H272.267C272.267 60.6321 272.129 61.6631 271.852 62.5064C271.575 63.3435 271.239 64.0268 270.845 64.5561C270.458 65.0793 270.091 65.4886 269.747 65.7841C269.636 65.8826 269.531 65.9811 269.433 66.0795C269.334 66.178 269.23 66.2765 269.119 66.375C268.479 67.0213 267.703 67.4983 266.792 67.8061C265.887 68.1139 264.995 68.2678 264.115 68.2678Z" fill="#0BB885"/>
<defs>
<filter id="filter0_d_12_3217" x="0.538029" y="0.281691" width="408.924" height="276.924" filterUnits="userSpaceOnUse" color-interpolation-filters="sRGB">
<feFlood flood-opacity="0" result="BackgroundImageFix"/>
<feColorMatrix in="SourceAlpha" type="matrix" values="0 0 0 0 0 0 0 0 0 0 0 0 0 0 0 0 0 0 127 0" result="hardAlpha"/>
<feOffset dy="4.74366"/>
<feGaussianBlur stdDeviation="14.231"/>
<feColorMatrix type="matrix" values="0 0 0 0 0 0 0 0 0 0 0 0 0 0 0 0 0 0 0.06 0"/>
<feBlend mode="normal" in2="BackgroundImageFix" result="effect1_dropShadow_12_3217"/>
<feBlend mode="normal" in="SourceGraphic" in2="effect1_dropShadow_12_3217" result="shape"/>
</filter>
<filter id="filter1_d_12_3217" x="309.384" y="137.367" width="33.2056" height="33.2056" filterUnits="userSpaceOnUse" color-interpolation-filters="sRGB">
<feFlood flood-opacity="0" result="BackgroundImageFix"/>
<feColorMatrix in="SourceAlpha" type="matrix" values="0 0 0 0 0 0 0 0 0 0 0 0 0 0 0 0 0 0 127 0" result="hardAlpha"/>
<feOffset dx="-2.37183" dy="2.37183"/>
<feGaussianBlur stdDeviation="3.55775"/>
<feColorMatrix type="matrix" values="0 0 0 0 0 0 0 0 0 0.811765 0 0 0 0 0.909804 0 0 0 0.6819 0"/>
<feBlend mode="normal" in2="BackgroundImageFix" result="effect1_dropShadow_12_3217"/>
<feBlend mode="normal" in="SourceGraphic" in2="effect1_dropShadow_12_3217" result="shape"/>
</filter>
</defs>
</svg>
