<svg width="415" height="218" viewBox="0 0 415 218" fill="none" xmlns="http://www.w3.org/2000/svg">
<path d="M269.858 8.98695L123.02 21.8296C114.586 22.5673 108.346 30.0026 109.085 38.4368L122.128 187.482C122.867 195.916 130.302 202.156 138.737 201.418L285.575 188.575C294.009 187.838 300.248 180.403 299.51 171.968L286.466 22.9229C285.728 14.4886 278.292 8.2493 269.858 8.98695Z" fill="white"/>
<g filter="url(#filter0_d_509_269)">
<path d="M135.198 80.7927C132.925 75.0034 132.597 68.632 134.262 62.6392C135.928 56.6468 139.497 51.358 144.431 47.5697C149.366 43.7818 155.398 41.7 161.619 41.6381C167.84 41.5766 173.913 43.5383 178.922 47.2276" stroke="#1C7DF8" stroke-opacity="0.01" stroke-width="26.7671" stroke-linecap="round"/>
</g>
<path d="M135.198 80.7927C132.925 75.0034 132.597 68.632 134.262 62.6392C135.928 56.6468 139.497 51.358 144.431 47.5697C149.366 43.7818 155.398 41.7 161.619 41.6381C167.84 41.5766 173.913 43.5383 178.922 47.2276" stroke="#1C7DF8" stroke-width="26.7671" stroke-linecap="round"/>
<g filter="url(#filter1_d_509_269)">
<path d="M178.907 47.2168C182.491 49.8531 185.412 53.2865 187.44 57.2459C189.468 61.2055 190.547 65.5819 190.591 70.0301C190.636 74.478 189.645 78.8753 187.697 82.8745C185.748 86.8737 182.896 90.3651 179.366 93.0726C175.836 95.78 171.723 97.6293 167.355 98.4745C162.986 99.3196 158.481 99.1372 154.195 97.942C149.909 96.7468 145.96 94.5711 142.66 91.5871C139.36 88.6034 136.799 84.8932 135.181 80.7493" stroke="#72D962" stroke-opacity="0.01" stroke-width="26.7671" stroke-linecap="round"/>
</g>
<path d="M178.907 47.2168C182.491 49.8531 185.412 53.2865 187.44 57.2459C189.468 61.2055 190.547 65.5819 190.591 70.0301C190.636 74.478 189.645 78.8753 187.697 82.8745C185.748 86.8737 182.896 90.3651 179.366 93.0726C175.836 95.78 171.723 97.6293 167.355 98.4745C162.986 99.3196 158.481 99.1372 154.195 97.942C149.909 96.7468 145.96 94.5711 142.66 91.5871C139.36 88.6034 136.799 84.8932 135.181 80.7493" stroke="#D9D9D9" stroke-width="26.7671" stroke-linecap="round"/>
<path d="M168.694 60.9701L153.595 62.2907C152.015 62.4288 150.846 63.8215 150.985 65.4014C151.123 66.981 152.516 68.1498 154.096 68.0117L169.195 66.6911C170.775 66.553 171.943 65.1603 171.805 63.5803C171.666 62.0004 170.274 60.832 168.694 60.9701Z" fill="#DCE3ED"/>
<path d="M174.688 69.4268L149.161 71.6591C147.075 71.8415 145.532 73.6805 145.714 75.7665C145.897 77.8525 147.736 79.3957 149.822 79.2133L175.349 76.9806C177.435 76.7982 178.978 74.9592 178.795 72.8732C178.613 70.7872 176.774 69.2443 174.688 69.4268Z" fill="#B4C2D6"/>
<g filter="url(#filter2_d_509_269)">
<path d="M268.392 61.0023C268.971 67.6124 267.239 74.2184 263.491 79.6948C259.744 85.1712 254.213 89.179 247.841 91.0359C241.468 92.8927 234.649 92.4832 228.546 89.8771C222.442 87.2713 217.43 82.6301 214.366 76.7448C211.301 70.8592 210.372 64.0935 211.738 57.6002C213.104 51.1072 216.679 45.2883 221.856 41.1352C227.032 36.9821 233.489 34.7515 240.126 34.824C246.762 34.8965 253.169 37.2669 258.254 41.532" stroke="#1C7DF8" stroke-opacity="0.01" stroke-width="26.7671" stroke-linecap="round"/>
</g>
<path d="M268.392 61.0023C268.971 67.6124 267.239 74.2184 263.491 79.6948C259.744 85.1712 254.213 89.179 247.841 91.0359C241.468 92.8927 234.649 92.4832 228.546 89.8771C222.442 87.2713 217.43 82.63 214.366 76.7448C211.301 70.8592 210.372 64.0935 211.738 57.6002C213.104 51.1072 216.679 45.2883 221.856 41.1352C227.032 36.9821 233.489 34.7515 240.126 34.824C246.762 34.8965 253.169 37.2669 258.254 41.532" stroke="#1C7DF8" stroke-width="26.7671" stroke-linecap="round"/>
<g filter="url(#filter3_d_509_269)">
<path d="M256.815 40.4023C260.107 42.824 262.844 45.921 264.842 49.4856C266.839 53.0506 268.052 57.001 268.398 61.0726" stroke="#72D962" stroke-opacity="0.01" stroke-width="26.7671" stroke-linecap="round"/>
</g>
<path d="M256.815 40.4023C260.107 42.824 262.844 45.921 264.842 49.4856C266.839 53.0506 268.052 57.001 268.398 61.0726" stroke="#D9D9D9" stroke-width="26.7671" stroke-linecap="round"/>
<path d="M244.034 54.3822L234.072 55.2535C232.492 55.3916 231.323 56.7843 231.461 58.3639C231.599 59.9435 232.992 61.1126 234.572 60.9745L244.534 60.1033C246.114 59.9648 247.283 58.5721 247.144 56.9925C247.006 55.4125 245.614 54.2438 244.034 54.3822Z" fill="#DCE3ED"/>
<path d="M248.553 62.9658L231.112 64.4911C229.026 64.6736 227.483 66.5126 227.665 68.5985C227.848 70.6845 229.687 72.2277 231.773 72.0453L249.214 70.52C251.3 70.3376 252.843 68.4986 252.66 66.4126C252.478 64.3266 250.639 62.7834 248.553 62.9658Z" fill="#B4C2D6"/>
<path d="M168.509 178.724L139.091 181.297C137.512 181.435 136.343 182.828 136.481 184.408C136.619 185.987 138.012 187.156 139.592 187.018L169.01 184.445C170.59 184.307 171.758 182.914 171.62 181.335C171.482 179.755 170.089 178.586 168.509 178.724Z" fill="#DCE3ED"/>
<path d="M146.57 118.484L134.399 119.548C132.819 119.686 131.651 121.079 131.789 122.659C131.927 124.239 133.32 125.407 134.9 125.269L147.071 124.205C148.651 124.067 149.819 122.674 149.681 121.094C149.542 119.514 148.15 118.346 146.57 118.484Z" fill="#DCE3ED"/>
<path d="M187.461 114.906L158.805 117.412C157.225 117.55 156.057 118.943 156.195 120.523V120.523C156.333 122.103 157.726 123.271 159.306 123.133L187.962 120.627C189.542 120.489 190.711 119.096 190.573 117.516C190.434 115.936 189.041 114.768 187.461 114.906Z" fill="#DCE3ED"/>
<path d="M135.117 154.094L280.746 141.357" stroke="#DCE3ED" stroke-width="1.96238" stroke-linecap="round"/>
<path d="M139.212 143.441C139.121 142.402 139.89 141.485 140.93 141.394C141.97 141.303 142.887 142.072 142.978 143.112L143.682 151.164C143.706 151.439 143.503 151.681 143.229 151.705L140.457 151.947C140.183 151.971 139.941 151.768 139.917 151.494L139.212 143.441Z" fill="#D9D9D9"/>
<path d="M163.941 141.279C163.85 140.239 164.619 139.323 165.659 139.232C166.699 139.141 167.615 139.91 167.706 140.95L168.411 149.002C168.435 149.277 168.232 149.519 167.958 149.543L165.186 149.785C164.911 149.809 164.67 149.606 164.646 149.332L163.941 141.279Z" fill="#D9D9D9"/>
<path d="M147.058 138.187C146.967 137.148 147.736 136.231 148.776 136.14C149.816 136.049 150.733 136.818 150.824 137.858L151.906 150.227C151.941 150.62 151.65 150.967 151.256 151.001L148.916 151.206C148.522 151.241 148.175 150.95 148.141 150.556L147.058 138.187Z" fill="#D9D9D9"/>
<path d="M180.029 135.305C179.938 134.265 180.707 133.348 181.747 133.257C182.787 133.167 183.704 133.936 183.795 134.975L184.877 147.344C184.912 147.738 184.621 148.085 184.227 148.119L181.887 148.324C181.493 148.358 181.146 148.067 181.112 147.673L180.029 135.305Z" fill="#D9D9D9"/>
<path d="M171.572 133.572C171.481 132.533 172.25 131.616 173.29 131.525C174.33 131.434 175.246 132.203 175.338 133.243L176.624 147.948C176.665 148.406 176.326 148.81 175.868 148.85L173.761 149.034C173.303 149.074 172.899 148.736 172.859 148.277L171.572 133.572Z" fill="#D9D9D9"/>
<path d="M154.815 131.91C154.724 130.87 155.493 129.954 156.533 129.863C157.573 129.772 158.489 130.541 158.581 131.581L160.133 149.323C160.176 149.817 159.811 150.253 159.316 150.297L157.342 150.469C156.847 150.512 156.411 150.147 156.368 149.652L154.815 131.91Z" fill="#D9D9D9"/>
<path d="M187.545 126.273C187.455 125.234 188.224 124.317 189.263 124.226C190.303 124.135 191.22 124.904 191.311 125.944L193.105 146.441C193.148 146.935 192.782 147.371 192.288 147.414L190.313 147.587C189.819 147.63 189.383 147.264 189.339 146.77L187.545 126.273Z" fill="#D9D9D9"/>
<path d="M141.02 164.101C141.111 165.14 142.028 165.91 143.068 165.819C144.107 165.728 144.877 164.811 144.786 163.771L144.081 155.719C144.057 155.445 143.815 155.242 143.541 155.266L140.769 155.508C140.494 155.532 140.292 155.774 140.315 156.048L141.02 164.101Z" fill="#1C7DF8"/>
<path d="M165.749 161.936C165.84 162.976 166.756 163.745 167.796 163.654C168.836 163.563 169.605 162.647 169.514 161.607L168.81 153.555C168.785 153.28 168.544 153.078 168.269 153.101L165.497 153.344C165.223 153.368 165.02 153.61 165.044 153.884L165.749 161.936Z" fill="#1C7DF8"/>
<path d="M149.631 167.579C149.722 168.619 150.639 169.388 151.678 169.297C152.718 169.206 153.487 168.289 153.396 167.249L152.342 155.197C152.308 154.812 151.968 154.528 151.584 154.561L149.212 154.769C148.827 154.802 148.542 155.142 148.576 155.527L149.631 167.579Z" fill="#1C7DF8"/>
<path d="M182.602 164.696C182.693 165.736 183.61 166.505 184.649 166.414C185.689 166.323 186.458 165.406 186.367 164.367L185.313 152.314C185.279 151.929 184.94 151.645 184.555 151.678L182.183 151.886C181.798 151.919 181.513 152.259 181.547 152.644L182.602 164.696Z" fill="#1C7DF8"/>
<path d="M174.603 168.201C174.694 169.241 175.611 170.01 176.65 169.919C177.69 169.828 178.459 168.912 178.368 167.872L177.081 153.168C177.041 152.71 176.637 152.372 176.179 152.411L174.073 152.596C173.615 152.636 173.276 153.04 173.316 153.498L174.603 168.201Z" fill="#1C7DF8"/>
<path d="M158.25 171.157C158.341 172.197 159.257 172.966 160.297 172.875C161.337 172.784 162.106 171.868 162.015 170.828L160.602 154.676C160.558 154.182 160.122 153.816 159.628 153.859L157.653 154.031C157.159 154.075 156.793 154.511 156.836 155.005L158.25 171.157Z" fill="#1C7DF8"/>
<path d="M191.601 172.617C191.692 173.657 192.608 174.426 193.648 174.335C194.688 174.244 195.457 173.327 195.366 172.288L193.572 151.791C193.529 151.297 193.093 150.931 192.599 150.974L190.624 151.147C190.13 151.19 189.764 151.626 189.807 152.121L191.601 172.617Z" fill="#1C7DF8"/>
<path d="M196.912 138.395C196.821 137.355 197.59 136.438 198.63 136.347C199.67 136.256 200.587 137.026 200.677 138.065L201.382 146.117C201.406 146.392 201.203 146.634 200.929 146.658L198.157 146.9C197.883 146.924 197.641 146.721 197.617 146.447L196.912 138.395Z" fill="#D9D9D9"/>
<path d="M254.612 133.348C254.521 132.308 255.29 131.391 256.33 131.3C257.369 131.209 258.286 131.978 258.377 133.018L259.082 141.071C259.106 141.345 258.903 141.587 258.629 141.611L255.857 141.853C255.582 141.877 255.34 141.674 255.316 141.4L254.612 133.348Z" fill="#D9D9D9"/>
<path d="M221.641 136.232C221.55 135.192 222.319 134.276 223.358 134.185C224.398 134.094 225.315 134.863 225.406 135.903L226.111 143.955C226.134 144.23 225.932 144.471 225.657 144.495L222.886 144.738C222.611 144.762 222.369 144.559 222.345 144.285L221.641 136.232Z" fill="#D9D9D9"/>
<path d="M204.758 133.142C204.667 132.103 205.436 131.186 206.476 131.095C207.516 131.004 208.432 131.773 208.523 132.813L209.606 145.182C209.64 145.575 209.349 145.922 208.956 145.957L206.615 146.161C206.222 146.196 205.875 145.905 205.84 145.511L204.758 133.142Z" fill="#D9D9D9"/>
<path d="M262.458 128.096C262.366 127.056 263.136 126.139 264.176 126.048C265.215 125.958 266.132 126.727 266.223 127.766L267.306 140.135C267.34 140.529 267.049 140.876 266.655 140.91L264.315 141.115C263.921 141.149 263.574 140.858 263.54 140.464L262.458 128.096Z" fill="#FFCD1D"/>
<path d="M237.729 130.258C237.638 129.218 238.407 128.301 239.447 128.21C240.487 128.12 241.404 128.889 241.495 129.928L242.577 142.297C242.611 142.691 242.32 143.038 241.927 143.072L239.587 143.277C239.193 143.311 238.846 143.02 238.812 142.626L237.729 130.258Z" fill="#D9D9D9"/>
<path d="M229.272 128.525C229.181 127.486 229.95 126.569 230.99 126.478C232.03 126.387 232.946 127.156 233.037 128.196L234.324 142.901C234.364 143.36 234.025 143.763 233.567 143.804L231.461 143.988C231.003 144.028 230.599 143.689 230.559 143.231L229.272 128.525Z" fill="#D9D9D9"/>
<path d="M212.515 126.863C212.424 125.823 213.193 124.907 214.233 124.816C215.273 124.725 216.189 125.494 216.28 126.534L217.833 144.276C217.876 144.771 217.51 145.207 217.016 145.25L215.041 145.423C214.547 145.466 214.111 145.1 214.067 144.605L212.515 126.863Z" fill="#D9D9D9"/>
<path d="M270.214 121.818C270.123 120.778 270.892 119.862 271.932 119.771C272.972 119.68 273.889 120.449 273.98 121.489L275.532 139.231C275.576 139.725 275.21 140.161 274.715 140.205L272.741 140.377C272.246 140.421 271.81 140.055 271.767 139.56L270.214 121.818Z" fill="#FFCD1D"/>
<path d="M245.245 121.227C245.154 120.187 245.924 119.27 246.963 119.179C248.003 119.088 248.92 119.858 249.011 120.897L250.805 141.394C250.848 141.888 250.482 142.324 249.987 142.368L248.013 142.54C247.518 142.584 247.082 142.218 247.039 141.723L245.245 121.227Z" fill="#D9D9D9"/>
<path d="M198.72 159.054C198.811 160.094 199.728 160.863 200.768 160.772C201.807 160.681 202.576 159.764 202.485 158.725L201.781 150.672C201.757 150.398 201.515 150.195 201.24 150.219L198.469 150.461C198.194 150.485 197.991 150.727 198.015 151.001L198.72 159.054Z" fill="#1C7DF8"/>
<path d="M256.42 154.007C256.51 155.046 257.427 155.816 258.467 155.725C259.507 155.634 260.276 154.717 260.185 153.677L259.48 145.625C259.456 145.351 259.214 145.148 258.94 145.172L256.168 145.414C255.894 145.438 255.691 145.68 255.715 145.954L256.42 154.007Z" fill="#1C7DF8"/>
<path d="M223.448 156.891C223.539 157.931 224.456 158.701 225.496 158.61C226.536 158.519 227.305 157.602 227.214 156.562L226.509 148.51C226.485 148.236 226.243 148.033 225.969 148.057L223.197 148.299C222.923 148.323 222.72 148.565 222.744 148.84L223.448 156.891Z" fill="#1C7DF8"/>
<path d="M207.33 162.534C207.421 163.573 208.338 164.343 209.378 164.252C210.418 164.161 211.187 163.244 211.096 162.204L210.041 150.152C210.008 149.767 209.668 149.483 209.283 149.516L206.912 149.724C206.527 149.758 206.242 150.097 206.276 150.481L207.33 162.534Z" fill="#1C7DF8"/>
<path d="M265.03 157.487C265.121 158.527 266.038 159.296 267.078 159.205C268.117 159.114 268.887 158.197 268.796 157.158L267.741 145.105C267.707 144.72 267.368 144.436 266.983 144.47L264.611 144.677C264.226 144.711 263.942 145.05 263.975 145.435L265.03 157.487Z" fill="#1C7DF8"/>
<path d="M240.302 159.649C240.393 160.689 241.309 161.458 242.349 161.367C243.389 161.276 244.158 160.36 244.067 159.32L243.012 147.267C242.979 146.882 242.639 146.598 242.255 146.632L239.883 146.839C239.498 146.873 239.213 147.212 239.247 147.597L240.302 159.649Z" fill="#1C7DF8"/>
<path d="M232.302 163.154C232.394 164.194 233.31 164.963 234.35 164.873C235.39 164.782 236.159 163.865 236.068 162.825L234.781 148.121C234.741 147.663 234.337 147.324 233.879 147.365L231.772 147.549C231.314 147.589 230.976 147.993 231.016 148.451L232.302 163.154Z" fill="#1C7DF8"/>
<path d="M215.949 166.11C216.04 167.15 216.957 167.919 217.997 167.829C219.036 167.738 219.806 166.821 219.715 165.781L218.301 149.629C218.258 149.135 217.822 148.769 217.327 148.812L215.353 148.985C214.858 149.028 214.492 149.464 214.536 149.958L215.949 166.11Z" fill="#1C7DF8"/>
<path d="M273.649 161.064C273.74 162.103 274.657 162.872 275.696 162.782C276.736 162.691 277.505 161.774 277.414 160.734L276.001 144.582C275.957 144.088 275.521 143.722 275.027 143.765L273.052 143.938C272.558 143.981 272.192 144.417 272.235 144.912L273.649 161.064Z" fill="#1C7DF8"/>
<path d="M249.301 167.57C249.392 168.61 250.308 169.379 251.348 169.288C252.388 169.197 253.157 168.281 253.066 167.241L251.272 146.744C251.229 146.25 250.793 145.884 250.298 145.927L248.324 146.1C247.829 146.143 247.464 146.579 247.507 147.074L249.301 167.57Z" fill="#1C7DF8"/>
<path d="M144.528 59.8851L69.1117 66.4811C65.1774 66.825 62.2669 70.2934 62.6111 74.228L66.9439 123.733C67.2881 127.668 70.7569 130.578 74.6911 130.234L150.108 123.638C154.042 123.294 156.953 119.825 156.608 115.891L152.276 66.3859C151.932 62.4513 148.463 59.5408 144.528 59.8851Z" fill="white"/>
<g filter="url(#filter4_d_509_269)">
<path d="M74.0571 121.509C75.072 115.072 79.6593 104.526 89.2692 102.757C104.55 99.9442 103.953 108.265 120.678 106.802C137.403 105.339 136.923 84.7112 145.162 87.9769" stroke="#72D962" stroke-opacity="0.01" stroke-width="7.37636" stroke-linecap="round"/>
</g>
<path d="M74.0571 121.509C75.072 115.072 79.6593 104.526 89.2692 102.757C104.55 99.9442 103.953 108.265 120.678 106.802C137.403 105.339 136.923 84.7112 145.162 87.9769" stroke="#D9D9D9" stroke-width="7.37636" stroke-linecap="round"/>
<path d="M123.975 79.119L99.6048 81.2504C98.2316 81.3706 97.2161 82.5809 97.336 83.9541C97.4563 85.3269 98.6669 86.3427 100.04 86.2225L124.41 84.0911C125.783 83.9709 126.799 82.7606 126.678 81.3875C126.558 80.0147 125.348 78.9988 123.975 79.119Z" fill="#DCE3ED"/>
<path d="M134.37 70.8717L99.1492 73.9522C97.6761 74.081 96.5861 75.38 96.7152 76.8531C96.8441 78.3266 98.143 79.4163 99.6161 79.2874L134.837 76.2072C136.31 76.0784 137.4 74.7795 137.271 73.306C137.142 71.8329 135.843 70.7428 134.37 70.8717Z" fill="#B4C2D6"/>
<path d="M81.5723 93.0279C87.8031 92.483 92.4124 86.9918 91.8672 80.7631C91.322 74.5343 85.8291 69.9263 79.5983 70.4715C73.3674 71.0164 68.7581 76.5076 69.3033 82.7364C69.8485 88.9651 75.3414 93.5731 81.5723 93.0279Z" fill="#E8FFE4"/>
<path d="M343.657 113.524L267.842 106.893C263.887 106.547 260.4 109.473 260.054 113.428L255.698 163.194C255.352 167.149 258.278 170.636 262.233 170.982L338.047 177.613C342.002 177.959 345.488 175.033 345.835 171.078L350.191 121.312C350.538 117.357 347.611 113.87 343.657 113.524Z" fill="white"/>
<g filter="url(#filter5_d_509_269)">
<path d="M263.066 162.265C265.194 156.07 271.577 146.356 281.4 146.356C291.363 146.356 299.926 154.075 310.435 154.075C320.943 154.075 336.902 142.597 340.016 137.928" stroke="#72D962" stroke-opacity="0.01" stroke-width="7.41519" stroke-linecap="round"/>
</g>
<path d="M263.066 162.265C265.194 156.07 271.577 146.356 281.4 146.356C291.363 146.356 299.926 154.075 310.435 154.075C320.943 154.075 336.902 142.597 340.016 137.928" stroke="#D9D9D9" stroke-width="7.41519" stroke-linecap="round"/>
<path d="M319.887 129.01L295.388 126.867C294.008 126.747 292.791 127.768 292.67 129.148C292.549 130.528 293.57 131.745 294.951 131.866L319.449 134.008C320.829 134.129 322.046 133.108 322.167 131.728C322.288 130.347 321.267 129.131 319.887 129.01Z" fill="#DCE3ED"/>
<path d="M331.617 122.662L296.211 119.565C294.73 119.436 293.424 120.531 293.294 122.012C293.165 123.493 294.26 124.799 295.741 124.928L331.147 128.025C332.629 128.155 333.934 127.059 334.064 125.578C334.193 124.097 333.098 122.791 331.617 122.662Z" fill="#B4C2D6"/>
<path d="M275.479 135.381C281.742 135.929 287.265 131.297 287.812 125.036C288.36 118.774 283.727 113.254 277.463 112.706C271.2 112.158 265.678 116.79 265.13 123.052C264.582 129.313 269.215 134.834 275.479 135.381Z" fill="#E8FFE4"/>
<defs>
<filter id="filter0_d_509_269" x="113.518" y="28.2539" width="85.1028" height="78.5539" filterUnits="userSpaceOnUse" color-interpolation-filters="sRGB">
<feFlood flood-opacity="0" result="BackgroundImageFix"/>
<feColorMatrix in="SourceAlpha" type="matrix" values="0 0 0 0 0 0 0 0 0 0 0 0 0 0 0 0 0 0 127 0" result="hardAlpha"/>
<feOffset dy="6.31407"/>
<feGaussianBlur stdDeviation="3.15704"/>
<feColorMatrix type="matrix" values="0 0 0 0 0.109219 0 0 0 0 0.491032 0 0 0 0 0.970833 0 0 0 0.13 0"/>
<feBlend mode="normal" in2="BackgroundImageFix" result="effect1_dropShadow_509_269"/>
<feBlend mode="normal" in="SourceGraphic" in2="effect1_dropShadow_509_269" result="shape"/>
</filter>
<filter id="filter1_d_509_269" x="110.744" y="25.9394" width="104.282" height="100.648" filterUnits="userSpaceOnUse" color-interpolation-filters="sRGB">
<feFlood flood-opacity="0" result="BackgroundImageFix"/>
<feColorMatrix in="SourceAlpha" type="matrix" values="0 0 0 0 0 0 0 0 0 0 0 0 0 0 0 0 0 0 127 0" result="hardAlpha"/>
<feOffset dy="3.15704"/>
<feGaussianBlur stdDeviation="5.52482"/>
<feColorMatrix type="matrix" values="0 0 0 0 0.44795 0 0 0 0 0.85 0 0 0 0 0.3825 0 0 0 0.17 0"/>
<feBlend mode="normal" in2="BackgroundImageFix" result="effect1_dropShadow_509_269"/>
<feBlend mode="normal" in="SourceGraphic" in2="effect1_dropShadow_509_269" result="shape"/>
</filter>
<filter id="filter2_d_509_269" x="191.426" y="21.4394" width="96.7727" height="96.7532" filterUnits="userSpaceOnUse" color-interpolation-filters="sRGB">
<feFlood flood-opacity="0" result="BackgroundImageFix"/>
<feColorMatrix in="SourceAlpha" type="matrix" values="0 0 0 0 0 0 0 0 0 0 0 0 0 0 0 0 0 0 127 0" result="hardAlpha"/>
<feOffset dy="6.31407"/>
<feGaussianBlur stdDeviation="3.15704"/>
<feColorMatrix type="matrix" values="0 0 0 0 0.109219 0 0 0 0 0.491032 0 0 0 0 0.970833 0 0 0 0.13 0"/>
<feBlend mode="normal" in2="BackgroundImageFix" result="effect1_dropShadow_509_269"/>
<feBlend mode="normal" in="SourceGraphic" in2="effect1_dropShadow_509_269" result="shape"/>
</filter>
<filter id="filter3_d_509_269" x="232.381" y="19.125" width="60.4513" height="69.5387" filterUnits="userSpaceOnUse" color-interpolation-filters="sRGB">
<feFlood flood-opacity="0" result="BackgroundImageFix"/>
<feColorMatrix in="SourceAlpha" type="matrix" values="0 0 0 0 0 0 0 0 0 0 0 0 0 0 0 0 0 0 127 0" result="hardAlpha"/>
<feOffset dy="3.15704"/>
<feGaussianBlur stdDeviation="5.52482"/>
<feColorMatrix type="matrix" values="0 0 0 0 0.44795 0 0 0 0 0.85 0 0 0 0 0.3825 0 0 0 0.17 0"/>
<feBlend mode="normal" in2="BackgroundImageFix" result="effect1_dropShadow_509_269"/>
<feBlend mode="normal" in="SourceGraphic" in2="effect1_dropShadow_509_269" result="shape"/>
</filter>
<filter id="filter4_d_509_269" x="60.0415" y="82.4642" width="99.137" height="61.9116" filterUnits="userSpaceOnUse" color-interpolation-filters="sRGB">
<feFlood flood-opacity="0" result="BackgroundImageFix"/>
<feColorMatrix in="SourceAlpha" type="matrix" values="0 0 0 0 0 0 0 0 0 0 0 0 0 0 0 0 0 0 127 0" result="hardAlpha"/>
<feOffset dy="8.85163"/>
<feGaussianBlur stdDeviation="5.16345"/>
<feColorMatrix type="matrix" values="0 0 0 0 0.44795 0 0 0 0 0.85 0 0 0 0 0.3825 0 0 0 0.37 0"/>
<feBlend mode="normal" in2="BackgroundImageFix" result="effect1_dropShadow_509_269"/>
<feBlend mode="normal" in="SourceGraphic" in2="effect1_dropShadow_509_269" result="shape"/>
</filter>
<filter id="filter5_d_509_269" x="248.976" y="132.738" width="105.129" height="52.5145" filterUnits="userSpaceOnUse" color-interpolation-filters="sRGB">
<feFlood flood-opacity="0" result="BackgroundImageFix"/>
<feColorMatrix in="SourceAlpha" type="matrix" values="0 0 0 0 0 0 0 0 0 0 0 0 0 0 0 0 0 0 127 0" result="hardAlpha"/>
<feOffset dy="8.89823"/>
<feGaussianBlur stdDeviation="5.19064"/>
<feColorMatrix type="matrix" values="0 0 0 0 0.44795 0 0 0 0 0.85 0 0 0 0 0.3825 0 0 0 0.22 0"/>
<feBlend mode="normal" in2="BackgroundImageFix" result="effect1_dropShadow_509_269"/>
<feBlend mode="normal" in="SourceGraphic" in2="effect1_dropShadow_509_269" result="shape"/>
</filter>
</defs>
</svg>
