<svg width="315" height="78" viewBox="0 0 315 78" fill="none" xmlns="http://www.w3.org/2000/svg">
<path d="M79.1591 67.0912H68.5227V12.4775H103.091V22.5003H79.1591V36.0003H100.227V45.8184H79.1591V67.0912Z" fill="#1E0D50"/>
<path d="M119.455 67.0907H109.227V29.2498H119.455V67.0907ZM108 16.7725C108 14.9316 108.614 13.4998 109.841 12.2725C111.068 11.0453 112.5 10.4316 114.341 10.4316C116.182 10.4316 117.614 11.0453 118.841 12.2725C120.068 13.4998 120.682 14.9316 120.682 16.7725C120.682 18.4089 120.068 19.8407 118.841 21.068C117.614 22.2953 116.182 22.9089 114.341 22.9089C112.5 22.9089 111.068 22.2953 109.841 21.068C108.614 19.8407 108 18.4089 108 16.7725Z" fill="#1E0D50"/>
<path d="M125.591 56.6594L134.386 54.8184C134.591 56.4548 135.204 57.8866 136.227 58.9094C137.454 59.9321 139.091 60.5457 141.136 60.5457C142.773 60.5457 144 60.1366 144.818 59.523C145.636 58.7048 146.045 57.8866 146.045 56.8639C146.045 55.023 144.614 53.7957 141.954 53.1821L137.045 51.9548C133.568 51.1366 130.909 49.7048 129.068 47.8639C127.227 45.8184 126.409 43.5684 126.409 40.7048C126.409 37.2275 127.841 34.3639 130.5 31.9094C133.159 29.4548 136.636 28.2275 140.727 28.2275C143.386 28.2275 145.636 28.6366 147.477 29.4548C149.523 30.273 150.954 31.0912 151.977 32.3184C153 33.5457 153.818 34.5684 154.432 35.7957C155.045 37.023 155.454 38.0457 155.454 39.273L147.068 40.9094C146.864 39.4775 146.25 38.4548 145.227 37.4321C144.204 36.4094 142.773 35.7957 140.932 35.7957C139.5 35.7957 138.477 36.2048 137.454 36.8184C136.432 37.6366 136.023 38.4548 136.023 39.4775C136.023 41.3184 137.25 42.5457 139.5 42.9548L144.818 44.1821C148.5 45.0003 151.159 46.4321 153.204 48.4775C155.25 50.523 156.068 52.9775 156.068 55.8412C156.068 59.3184 154.841 62.1821 152.182 64.6366C149.523 67.0912 146.045 68.3185 141.341 68.3185C138.682 68.3185 136.227 67.9094 134.182 67.0912C132.136 66.273 130.5 65.2503 129.273 64.023C128.045 62.7957 127.227 61.5684 126.614 60.3412C126.204 58.9094 125.795 57.6821 125.591 56.6594Z" fill="#1E0D50"/>
<path d="M198.818 11.25V60.1364C198.818 62.5909 199.023 65.0455 199.227 67.0909H189.409C189.205 65.8636 189 64.4318 189 62.7955C188.182 64.4318 186.75 65.6591 184.909 66.6818C183.068 67.7045 180.818 68.1136 178.364 68.1136C173.045 68.1136 168.545 66.2727 165.068 62.3864C161.591 58.5 159.955 53.7955 159.955 48.0682C159.955 42.5455 161.591 37.8409 165.068 33.9545C168.545 30.0682 172.841 28.2273 178.159 28.2273C183.682 28.2273 187.159 29.8636 188.796 32.9318V11.25H198.818ZM170.182 48.0682C170.182 51.3409 171 54 172.841 56.0455C174.682 57.8864 176.932 58.9091 179.591 58.9091C182.25 58.9091 184.5 57.8864 186.341 56.0455C188.182 54 189 51.3409 189 48.0682C189 44.7955 188.182 42.1364 186.341 40.2955C184.5 38.4545 182.455 37.4318 179.591 37.4318C176.932 37.4318 174.682 38.4545 172.841 40.2955C171 42.1364 170.182 44.7955 170.182 48.0682Z" fill="#1E0D50"/>
<path d="M218.455 56.0452C220.295 57.8861 222.545 58.9088 225.205 58.9088C227.864 58.9088 230.114 57.8861 231.955 56.0452C233.795 54.2043 234.818 51.5452 234.818 48.0679C234.818 44.5906 233.795 41.9316 231.955 40.0906C230.114 38.2497 227.864 37.227 225.205 37.227C222.545 37.227 220.295 38.2497 218.455 40.0906C216.614 41.9316 215.591 44.5906 215.591 48.0679C215.591 51.5452 216.614 54.2043 218.455 56.0452ZM211.091 33.7497C214.977 29.8634 219.682 28.0225 225.409 28.0225C231.136 28.0225 235.841 29.8634 239.523 33.7497C243.409 37.6361 245.25 42.3406 245.25 48.2725C245.25 53.9997 243.409 58.9088 239.523 62.7952C235.841 66.6816 231.136 68.5225 225.409 68.5225C219.682 68.5225 214.977 66.6816 211.091 62.7952C207.409 58.9088 205.568 54.2043 205.568 48.2725C205.364 42.3406 207.409 37.6361 211.091 33.7497Z" fill="#1E0D50"/>
<path d="M262.023 67.0912H251.795V29.2503H261.614V33.9548C262.636 32.1139 264.068 30.8866 266.318 29.8639C268.364 28.8412 270.614 28.2275 272.864 28.2275C278.386 28.2275 282.068 30.273 284.114 34.5684C286.773 30.273 290.864 28.2275 296.182 28.2275C300.068 28.2275 303.341 29.4548 305.795 31.9094C308.455 34.3639 309.886 37.8412 309.886 42.7503V67.2957H299.864V44.7957C299.864 42.5457 299.25 40.9094 298.227 39.6821C297.205 38.2503 295.568 37.6366 293.318 37.6366C291.273 37.6366 289.432 38.4548 288.204 39.8866C286.977 41.3184 286.364 43.1594 286.364 45.2048V67.5003H276.136V45.0003C276.136 42.7503 275.523 41.1139 274.5 39.8866C273.273 38.4548 271.636 37.8412 269.591 37.8412C267.341 37.8412 265.705 38.6594 264.477 40.0912C263.25 41.523 262.636 43.1594 262.636 45.4094V67.0912H262.023Z" fill="#1E0D50"/>
<path d="M29.25 46.8414V28.6369C29.25 28.2278 29.4545 28.0232 29.6591 27.8187L53.1818 12.0687C53.7955 11.6596 54.8182 12.0687 54.8182 12.8869V30.2732C54.8182 30.8869 54.4091 31.7051 53.7955 32.1141L30.8864 47.6596C30.0682 48.0687 29.25 47.6596 29.25 46.8414Z" fill="#35CB5D"/>
<path d="M26.1817 65.6592V27.6138C26.1817 27.2047 25.9772 27.0002 25.7726 26.7956L3.06809 12.682C2.45446 12.2729 1.84082 12.682 1.84082 13.5002V51.9547C1.84082 52.3638 2.04537 52.5683 2.24991 52.7729L24.5454 66.682C25.159 67.0911 26.1817 66.682 26.1817 65.6592Z" fill="#4F2DA7"/>
<path d="M29.25 65.6593V52.9775C29.25 52.5684 29.4545 52.3639 29.6591 52.1593L43.9773 42.3412C44.5909 41.9321 45.6136 42.3412 45.6136 43.1593V55.2275C45.6136 56.0457 45.2045 56.8639 44.3864 57.273L30.8864 66.4775C30.0682 67.0911 29.25 66.4775 29.25 65.6593Z" fill="#8D61FF"/>
</svg>
