<svg width="49" height="48" viewBox="0 0 49 48" fill="none" xmlns="http://www.w3.org/2000/svg">
<rect opacity="0.13" x="0.910156" width="48" height="48" rx="24" fill="#FFCD1D"/>
<g filter="url(#filter0_d_202_1569)">
<path d="M11.7396 32.5749C12.2064 32.5758 12.6559 32.3981 12.996 32.0782L21.0665 24.5081C21.1821 24.3988 21.3357 24.339 21.4947 24.3414C21.6537 24.3438 21.8055 24.4081 21.9177 24.5208L24.6324 27.2369C25.4492 28.0166 26.535 28.4517 27.6642 28.4517C28.7933 28.4517 29.8791 28.0166 30.6959 27.2369L35.2399 22.6928C35.2683 22.6644 35.3019 22.6418 35.339 22.6264C35.376 22.611 35.4158 22.6031 35.4559 22.6031C35.496 22.6031 35.5358 22.611 35.5728 22.6264C35.6099 22.6418 35.6435 22.6644 35.6719 22.6928L37.8238 24.8371C38.0537 25.0659 38.3647 25.1942 38.689 25.1941C39.0138 25.1938 39.3252 25.0647 39.555 24.8351C39.7848 24.6056 39.9142 24.2943 39.9149 23.9695V16.6497C39.9145 16.3248 39.7852 16.0133 39.5553 15.7837C39.3255 15.554 39.0139 15.4251 38.689 15.4251H31.3399C31.0967 15.4241 30.8586 15.4957 30.6562 15.6306C30.4537 15.7654 30.296 15.9576 30.2032 16.1825C30.1104 16.4073 30.0866 16.6548 30.135 16.8932C30.1834 17.1316 30.3017 17.3502 30.4748 17.5212L32.6344 19.6808C32.692 19.7384 32.7244 19.8165 32.7246 19.898C32.7248 19.9382 32.7169 19.978 32.7014 20.0151C32.6859 20.0522 32.6631 20.0858 32.6344 20.114L28.0967 24.6529C27.9814 24.767 27.8257 24.8309 27.6635 24.8309C27.5013 24.8309 27.3457 24.767 27.2303 24.6529L24.5143 21.9369C23.731 21.1458 22.6696 20.6921 21.5565 20.6726C20.4434 20.6531 19.3667 21.0695 18.5563 21.8327L10.4832 29.3965C10.2155 29.6487 10.0297 29.9755 9.94972 30.3346C9.86976 30.6936 9.89935 31.0683 10.0347 31.4104C10.17 31.7524 10.4048 32.046 10.7087 32.2531C11.0126 32.4603 11.3717 32.5715 11.7396 32.5724V32.5749Z" fill="#FFCD1D"/>
</g>
<defs>
<filter id="filter0_d_202_1569" x="3.90576" y="12.425" width="42.0093" height="29.1499" filterUnits="userSpaceOnUse" color-interpolation-filters="sRGB">
<feFlood flood-opacity="0" result="BackgroundImageFix"/>
<feColorMatrix in="SourceAlpha" type="matrix" values="0 0 0 0 0 0 0 0 0 0 0 0 0 0 0 0 0 0 127 0" result="hardAlpha"/>
<feOffset dy="3"/>
<feGaussianBlur stdDeviation="3"/>
<feColorMatrix type="matrix" values="0 0 0 0 1 0 0 0 0 0.80475 0 0 0 0 0.1125 0 0 0 0.38 0"/>
<feBlend mode="normal" in2="BackgroundImageFix" result="effect1_dropShadow_202_1569"/>
<feBlend mode="normal" in="SourceGraphic" in2="effect1_dropShadow_202_1569" result="shape"/>
</filter>
</defs>
</svg>
