<svg width="52" height="54" viewBox="0 0 52 54" fill="none" xmlns="http://www.w3.org/2000/svg">
<rect opacity="0.06" x="1.91016" y="0.818359" width="48" height="48" rx="24" fill="#1C7DF8"/>
<g filter="url(#filter0_d_202_1582)">
<path d="M25.9105 8.4624C22.6756 8.4624 19.5134 9.42165 16.8237 11.2189C14.134 13.0161 12.0376 15.5705 10.7997 18.5591C9.56177 21.5478 9.23787 24.8364 9.86897 28.0091C10.5001 31.1818 12.0578 34.0961 14.3452 36.3835C16.6326 38.6709 19.5469 40.2287 22.7197 40.8598C25.8924 41.4909 29.181 41.167 32.1696 39.929C35.1583 38.6911 37.7127 36.5947 39.5099 33.905C41.3071 31.2153 42.2663 28.0531 42.2663 24.8182C42.2613 20.4819 40.5365 16.3247 37.4702 13.2585C34.404 10.1923 30.2468 8.46745 25.9105 8.4624V8.4624ZM35.3519 19.6389L26.0223 32.2996C25.9121 32.4458 25.774 32.5685 25.6159 32.6607C25.4578 32.7529 25.2829 32.8126 25.1015 32.8365C24.92 32.8603 24.7357 32.8478 24.5591 32.7996C24.3826 32.7514 24.2174 32.6686 24.0732 32.5559L17.4109 27.2293C17.2711 27.1175 17.1548 26.9792 17.0684 26.8223C16.9821 26.6655 16.9275 26.4931 16.9077 26.3152C16.8679 25.9558 16.9724 25.5953 17.1983 25.313C17.4242 25.0307 17.7531 24.8497 18.1125 24.8098C18.2904 24.79 18.4705 24.8055 18.6425 24.8554C18.8144 24.9053 18.9749 24.9885 19.1147 25.1004L24.6702 29.5451L33.1575 18.0265C33.2597 17.8731 33.3919 17.7421 33.5461 17.6413C33.7004 17.5405 33.8734 17.4721 34.0549 17.4401C34.2363 17.408 34.4224 17.4131 34.6018 17.4551C34.7812 17.497 34.9503 17.5748 35.0988 17.6839C35.2473 17.793 35.3721 17.9311 35.4657 18.0898C35.5593 18.2485 35.6198 18.4246 35.6434 18.6073C35.6671 18.79 35.6534 18.9756 35.6033 19.1529C35.5532 19.3302 35.4677 19.4956 35.3519 19.6389Z" fill="#1C7DF8"/>
</g>
<defs>
<filter id="filter0_d_202_1582" x="0.554688" y="2.4624" width="50.7114" height="50.7117" filterUnits="userSpaceOnUse" color-interpolation-filters="sRGB">
<feFlood flood-opacity="0" result="BackgroundImageFix"/>
<feColorMatrix in="SourceAlpha" type="matrix" values="0 0 0 0 0 0 0 0 0 0 0 0 0 0 0 0 0 0 127 0" result="hardAlpha"/>
<feOffset dy="3"/>
<feGaussianBlur stdDeviation="4.5"/>
<feColorMatrix type="matrix" values="0 0 0 0 0.109219 0 0 0 0 0.491032 0 0 0 0 0.970833 0 0 0 0.24 0"/>
<feBlend mode="normal" in2="BackgroundImageFix" result="effect1_dropShadow_202_1582"/>
<feBlend mode="normal" in="SourceGraphic" in2="effect1_dropShadow_202_1582" result="shape"/>
</filter>
</defs>
</svg>
