<svg width="49" height="51" viewBox="0 0 49 51" fill="none" xmlns="http://www.w3.org/2000/svg">
<rect opacity="0.13" x="0.910156" y="0.181885" width="48" height="48" rx="24" fill="#72D962"/>
<g filter="url(#filter0_d_202_1557)">
<path d="M40.1942 17.732L38.1355 14.1664C37.8625 13.6936 37.4128 13.3485 36.8855 13.2072C36.3581 13.0659 35.7962 13.1399 35.3233 13.4129L33.8658 14.2549C32.464 12.9969 30.8137 12.0473 29.0217 11.4674V9.77109C29.0217 9.22509 28.8048 8.70146 28.4187 8.31538C28.0326 7.9293 27.509 7.7124 26.963 7.7124H22.8456C22.2996 7.7124 21.776 7.9293 21.3899 8.31538C21.0038 8.70146 20.787 9.22509 20.787 9.77109V11.4613C18.9896 12.0367 17.3355 12.9883 15.9346 14.2528L14.4812 13.4129C14.0091 13.1425 13.4492 13.07 12.9238 13.2112C12.3984 13.3524 11.9502 13.6958 11.6773 14.1664L9.61858 17.732C9.34559 18.2049 9.27162 18.7668 9.41292 19.2942C9.55422 19.8215 9.89924 20.2712 10.3721 20.5442L11.8378 21.3924C11.4425 23.2331 11.4425 25.1368 11.8378 26.9776L10.3721 27.8237C9.89924 28.0967 9.55422 28.5464 9.41292 29.0737C9.27162 29.6011 9.34559 30.163 9.61858 30.6359L11.6773 34.2015C11.9503 34.6743 12.3999 35.0193 12.9273 35.1607C13.4547 35.302 14.0166 35.228 14.4894 34.955L15.947 34.113C17.3488 35.3736 19.0009 36.3241 20.7952 36.9025V38.5927C20.7952 39.1387 21.0121 39.6623 21.3982 40.0484C21.7842 40.4345 22.3079 40.6514 22.8539 40.6514H26.9712C27.5172 40.6514 28.0409 40.4345 28.427 40.0484C28.813 39.6623 29.0299 39.1387 29.0299 38.5927V36.9046C30.8259 36.3286 32.4791 35.3778 33.8802 34.115L35.3316 34.955C35.8044 35.228 36.3663 35.302 36.8937 35.1607C37.4211 35.0193 37.8707 34.6743 38.1437 34.2015L40.2024 30.6359C40.4754 30.163 40.5494 29.6011 40.4081 29.0737C40.2668 28.5464 39.9218 28.0967 39.4489 27.8237L37.9852 26.9796C38.3816 25.1376 38.3816 23.2323 37.9852 21.3903L39.4489 20.5442C39.9204 20.2698 40.2636 19.8196 40.4034 19.2923C40.5431 18.765 40.4679 18.2039 40.1942 17.732ZM24.9043 31.3873C23.4792 31.3873 22.0861 30.9647 20.9012 30.173C19.7163 29.3812 18.7928 28.2559 18.2474 26.9393C17.702 25.6227 17.5594 24.1739 17.8374 22.7762C18.1154 21.3785 18.8016 20.0946 19.8093 19.0869C20.817 18.0792 22.1009 17.393 23.4986 17.1149C24.8963 16.8369 26.3451 16.9796 27.6617 17.525C28.9783 18.0703 30.1037 18.9939 30.8954 20.1788C31.6871 21.3637 32.1097 22.7568 32.1097 24.1819C32.1097 26.0929 31.3506 27.9256 29.9993 29.2769C28.648 30.6282 26.8153 31.3873 24.9043 31.3873Z" fill="#72D962"/>
</g>
<defs>
<filter id="filter0_d_202_1557" x="3.34277" y="5.7124" width="43.1353" height="44.939" filterUnits="userSpaceOnUse" color-interpolation-filters="sRGB">
<feFlood flood-opacity="0" result="BackgroundImageFix"/>
<feColorMatrix in="SourceAlpha" type="matrix" values="0 0 0 0 0 0 0 0 0 0 0 0 0 0 0 0 0 0 127 0" result="hardAlpha"/>
<feOffset dy="4"/>
<feGaussianBlur stdDeviation="3"/>
<feColorMatrix type="matrix" values="0 0 0 0 0.44795 0 0 0 0 0.85 0 0 0 0 0.3825 0 0 0 0.21 0"/>
<feBlend mode="normal" in2="BackgroundImageFix" result="effect1_dropShadow_202_1557"/>
<feBlend mode="normal" in="SourceGraphic" in2="effect1_dropShadow_202_1557" result="shape"/>
</filter>
</defs>
</svg>
