<svg width="149" height="138" viewBox="0 0 149 138" fill="none" xmlns="http://www.w3.org/2000/svg">
<g filter="url(#filter0_d)">
<path d="M77.7599 22.1019H30.426C23.011 22.1019 17 28.113 17 35.5279V103.9C17 111.315 23.011 117.326 30.426 117.326H77.7599C85.1749 117.326 91.1859 111.315 91.1859 103.9V35.5279C91.1859 28.113 85.1749 22.1019 77.7599 22.1019Z" fill="white" fill-opacity="0.01"/>
</g>
<path d="M77.7599 22.1018H30.426C23.011 22.1018 17 28.1128 17 35.5278V103.9C17 111.315 23.011 117.326 30.426 117.326H77.7599C85.1749 117.326 91.1859 111.315 91.1859 103.9V35.5278C91.1859 28.1128 85.1749 22.1018 77.7599 22.1018Z" fill="white"/>
<path opacity="0.4" d="M28.698 106.859C27.4774 106.688 26.3749 106.038 25.6331 105.054C24.8912 104.07 24.5707 102.831 24.7422 101.61C24.9136 100.39 25.5629 99.2872 26.5473 98.5453C27.5316 97.8035 28.7703 97.483 29.9909 97.6545C31.2115 97.8259 32.314 98.4752 33.0559 99.4595C33.7977 100.444 34.1182 101.683 33.9468 102.903C33.7753 104.124 33.126 105.226 32.1417 105.968C31.1573 106.71 29.9186 107.03 28.698 106.859Z" stroke="#DCE3ED" stroke-width="3.09831" stroke-linecap="round"/>
<g filter="url(#filter1_d)">
<path d="M27.6611 106.588C26.5599 106.161 25.6631 105.329 25.1528 104.264C24.6426 103.198 24.5573 101.979 24.9142 100.852C25.2711 99.7263 26.0435 98.7783 27.0744 98.2013C28.1052 97.6242 29.3171 97.4614 30.4637 97.7459" stroke="#1C7DF8" stroke-opacity="0.01" stroke-width="3.09831" stroke-linecap="round"/>
</g>
<path d="M27.6611 106.588C26.5599 106.161 25.6631 105.329 25.1528 104.264C24.6426 103.198 24.5573 101.979 24.9142 100.852C25.2711 99.7263 26.0435 98.7783 27.0744 98.2013C28.1052 97.6242 29.3171 97.4614 30.4637 97.7459" stroke="#1C7DF8" stroke-width="3.09831" stroke-linecap="round"/>
<path d="M44.8068 100.244H39.2499C38.1381 100.244 37.2368 101.145 37.2368 102.257V102.257C37.2368 103.369 38.1381 104.27 39.2499 104.27H44.8068C45.9186 104.27 46.8199 103.369 46.8199 102.257V102.257C46.8199 101.145 45.9186 100.244 44.8068 100.244Z" fill="#DCE3ED"/>
<path opacity="0.4" d="M59.1057 106.859C57.8851 106.688 56.7826 106.039 56.0408 105.054C55.2989 104.07 54.9785 102.831 55.1499 101.611C55.3213 100.39 55.9706 99.2876 56.955 98.5458C57.9393 97.8039 59.178 97.4834 60.3986 97.6549C61.6192 97.8263 62.7217 98.4756 63.4636 99.46C64.2055 100.444 64.5259 101.683 64.3545 102.904C64.183 104.124 63.5337 105.227 62.5494 105.969C61.5651 106.71 60.3263 107.031 59.1057 106.859Z" stroke="#DCE3ED" stroke-width="3.09831" stroke-linecap="round"/>
<g filter="url(#filter2_d)">
<path d="M61.6289 106.509C60.8822 106.838 60.0619 106.965 59.2504 106.877C58.439 106.789 57.6651 106.489 57.0066 106.007C56.348 105.524 55.8281 104.877 55.4991 104.13C55.17 103.383 55.0435 102.563 55.1323 101.752C55.221 100.94 55.5218 100.167 56.0045 99.5085C56.4872 98.8503 57.1347 98.3308 57.8819 98.0024C58.6291 97.6739 59.4496 97.548 60.2609 97.6374C61.0722 97.7267 61.8457 98.0282 62.5035 98.5114" stroke="#FFCD1D" stroke-opacity="0.01" stroke-width="3.09831" stroke-linecap="round"/>
</g>
<path d="M61.6289 106.509C60.8822 106.838 60.0619 106.965 59.2504 106.877C58.439 106.789 57.6651 106.489 57.0066 106.007C56.348 105.524 55.8281 104.877 55.4991 104.13C55.17 103.383 55.0435 102.563 55.1323 101.752C55.221 100.94 55.5218 100.167 56.0045 99.5084C56.4872 98.8502 57.1347 98.3307 57.8819 98.0023C58.6291 97.6738 59.4496 97.5479 60.2609 97.6373C61.0722 97.7266 61.8457 98.0281 62.5035 98.5113" stroke="#FFCD1D" stroke-width="3.09831" stroke-linecap="round"/>
<path d="M77.4009 100.244H70.1269C69.0151 100.244 68.1138 101.145 68.1138 102.257V102.257C68.1138 103.369 69.0151 104.27 70.1269 104.27H77.4009C78.5127 104.27 79.414 103.369 79.414 102.257V102.257C79.414 101.145 78.5127 100.244 77.4009 100.244Z" fill="#DCE3ED"/>
<path d="M53.5764 36.026H41.5756C40.1496 36.026 38.9937 37.182 38.9937 38.6079V38.6079C38.9937 40.0339 40.1496 41.1898 41.5756 41.1898H53.5764C55.0024 41.1898 56.1584 40.0339 56.1584 38.6079C56.1584 37.182 55.0024 36.026 53.5764 36.026Z" fill="#DCE3ED"/>
<g filter="url(#filter3_d)">
<path d="M29.5215 44.9814C33.0416 44.9814 35.8951 42.1278 35.8951 38.6078C35.8951 35.0877 33.0416 32.2342 29.5215 32.2342C26.0015 32.2342 23.1479 35.0877 23.1479 38.6078C23.1479 42.1278 26.0015 44.9814 29.5215 44.9814Z" fill="#FFCD1D" fill-opacity="0.01"/>
</g>
<path d="M29.5215 44.9813C33.0416 44.9813 35.8951 42.1277 35.8951 38.6077C35.8951 35.0877 33.0416 32.2341 29.5215 32.2341C26.0015 32.2341 23.1479 35.0877 23.1479 38.6077C23.1479 42.1277 26.0015 44.9813 29.5215 44.9813Z" fill="#FFCD1D"/>
<path opacity="0.21" d="M79.8737 49.0311H28.3118C25.4599 49.0311 23.1479 51.343 23.1479 54.1949V87.8939C23.1479 90.7459 25.4599 93.0578 28.3118 93.0578H79.8737C82.7256 93.0578 85.0375 90.7459 85.0375 87.8939V54.1949C85.0375 51.343 82.7256 49.0311 79.8737 49.0311Z" fill="#DCE3ED"/>
<g filter="url(#filter4_d)">
<path d="M32.9826 71.8378C32.9826 70.6971 32.0579 69.7723 30.9171 69.7723C29.7763 69.7723 28.8516 70.6971 28.8516 71.8378V85.3384C28.8516 86.4791 29.7763 87.4039 30.9171 87.4039C32.0579 87.4039 32.9826 86.4791 32.9826 85.3384V71.8378Z" fill="#FFCD1D" fill-opacity="0.01"/>
</g>
<path d="M32.9826 71.8378C32.9826 70.697 32.0579 69.7722 30.9171 69.7722C29.7763 69.7722 28.8516 70.697 28.8516 71.8378V85.3383C28.8516 86.479 29.7763 87.4038 30.9171 87.4038C32.0579 87.4038 32.9826 86.479 32.9826 85.3383V71.8378Z" fill="#FFCD1D"/>
<g filter="url(#filter5_d)">
<path d="M40.7073 76.7225C40.7073 75.5818 39.7825 74.657 38.6417 74.657C37.5009 74.657 36.5762 75.5818 36.5762 76.7225V85.3393C36.5762 86.4801 37.5009 87.4049 38.6417 87.4049C39.7825 87.4049 40.7073 86.4801 40.7073 85.3393V76.7225Z" fill="#1C7DF8" fill-opacity="0.01"/>
</g>
<path d="M40.7073 76.7225C40.7073 75.5818 39.7825 74.657 38.6417 74.657C37.5009 74.657 36.5762 75.5818 36.5762 76.7225V85.3393C36.5762 86.4801 37.5009 87.4049 38.6417 87.4049C39.7825 87.4049 40.7073 86.4801 40.7073 85.3393V76.7225Z" fill="#1C7DF8"/>
<g filter="url(#filter6_d)">
<path d="M48.4333 62.7497C48.4333 61.6089 47.5086 60.6841 46.3678 60.6841C45.227 60.6841 44.3022 61.6089 44.3022 62.7497V85.3393C44.3022 86.48 45.227 87.4048 46.3678 87.4048C47.5086 87.4048 48.4333 86.48 48.4333 85.3393V62.7497Z" fill="#FFCD1D" fill-opacity="0.01"/>
</g>
<path d="M48.4333 62.7496C48.4333 61.6089 47.5086 60.6841 46.3678 60.6841C45.227 60.6841 44.3022 61.6089 44.3022 62.7496V85.3392C44.3022 86.48 45.227 87.4048 46.3678 87.4048C47.5086 87.4048 48.4333 86.48 48.4333 85.3392V62.7496Z" fill="#FFCD1D"/>
<g filter="url(#filter7_d)">
<path d="M56.1579 66.6328C56.1579 65.4921 55.2332 64.5673 54.0924 64.5673C52.9516 64.5673 52.0269 65.4921 52.0269 66.6328V85.3391C52.0269 86.4799 52.9516 87.4047 54.0924 87.4047C55.2332 87.4047 56.1579 86.4799 56.1579 85.3391V66.6328Z" fill="#1C7DF8" fill-opacity="0.01"/>
</g>
<path d="M56.1579 66.6329C56.1579 65.4922 55.2332 64.5674 54.0924 64.5674C52.9516 64.5674 52.0269 65.4922 52.0269 66.6329V85.3392C52.0269 86.48 52.9516 87.4048 54.0924 87.4048C55.2332 87.4048 56.1579 86.48 56.1579 85.3392V66.6329Z" fill="#1C7DF8"/>
<g filter="url(#filter8_d)">
<path d="M63.883 55.4279C63.883 54.2872 62.9583 53.3624 61.8175 53.3624C60.6767 53.3624 59.752 54.2872 59.752 55.4279V85.3391C59.752 86.4798 60.6767 87.4046 61.8175 87.4046C62.9583 87.4046 63.883 86.4798 63.883 85.3391V55.4279Z" fill="#72D962" fill-opacity="0.01"/>
</g>
<path d="M63.883 55.4278C63.883 54.2871 62.9583 53.3623 61.8175 53.3623C60.6767 53.3623 59.752 54.2871 59.752 55.4278V85.339C59.752 86.4797 60.6767 87.4045 61.8175 87.4045C62.9583 87.4045 63.883 86.4797 63.883 85.339V55.4278Z" fill="#72D962"/>
<g filter="url(#filter9_d)">
<path d="M71.6081 55.4279C71.6081 54.2872 70.6834 53.3624 69.5426 53.3624C68.4018 53.3624 67.4771 54.2872 67.4771 55.4279V85.3393C67.4771 86.48 68.4018 87.4048 69.5426 87.4048C70.6834 87.4048 71.6081 86.48 71.6081 85.3393V55.4279Z" fill="#72D962" fill-opacity="0.01"/>
</g>
<path d="M71.6081 55.4278C71.6081 54.2871 70.6834 53.3623 69.5426 53.3623C68.4018 53.3623 67.4771 54.2871 67.4771 55.4278V85.3392C67.4771 86.4799 68.4018 87.4047 69.5426 87.4047C70.6834 87.4047 71.6081 86.4799 71.6081 85.3392V55.4278Z" fill="#72D962"/>
<g filter="url(#filter10_d)">
<path d="M79.3332 60.3621C79.3332 59.2214 78.4085 58.2966 77.2677 58.2966C76.1269 58.2966 75.2021 59.2214 75.2021 60.3621V85.3395C75.2021 86.4802 76.1269 87.405 77.2677 87.405C78.4085 87.405 79.3332 86.4802 79.3332 85.3395V60.3621Z" fill="#72D962" fill-opacity="0.01"/>
</g>
<path d="M79.3332 60.3622C79.3332 59.2214 78.4085 58.2966 77.2677 58.2966C76.1269 58.2966 75.2021 59.2214 75.2021 60.3622V85.3395C75.2021 86.4803 76.1269 87.405 77.2677 87.405C78.4085 87.405 79.3332 86.4803 79.3332 85.3395V60.3622Z" fill="#72D962"/>
<g filter="url(#filter11_d)">
<path d="M118.756 13H71.4226C64.0076 13 57.9966 19.011 57.9966 26.426V94.7981C57.9966 102.213 64.0076 108.224 71.4226 108.224H118.756C126.171 108.224 132.182 102.213 132.182 94.7981V26.426C132.182 19.011 126.171 13 118.756 13Z" fill="white" fill-opacity="0.01"/>
</g>
<path d="M118.756 13H71.4226C64.0076 13 57.9966 19.011 57.9966 26.426V94.7981C57.9966 102.213 64.0076 108.224 71.4226 108.224H118.756C126.171 108.224 132.182 102.213 132.182 94.7981V26.426C132.182 19.011 126.171 13 118.756 13Z" fill="white"/>
<g filter="url(#filter12_d)">
<path d="M74.9885 92.525C74.9885 93.1354 74.8683 93.7397 74.6347 94.3036C74.4012 94.8674 74.0589 95.3797 73.6273 95.8113C73.1957 96.2429 72.6834 96.5852 72.1196 96.8187C71.5557 97.0523 70.9514 97.1725 70.341 97.1725C69.7307 97.1725 69.1264 97.0523 68.5625 96.8187C67.9987 96.5852 67.4864 96.2429 67.0548 95.8113C66.6232 95.3797 66.2809 94.8674 66.0474 94.3036C65.8138 93.7397 65.6936 93.1354 65.6936 92.525C65.6936 91.9147 65.8138 91.3104 66.0474 90.7465C66.2809 90.1827 66.6232 89.6704 67.0548 89.2388C67.4864 88.8072 67.9987 88.4649 68.5625 88.2314C69.1264 87.9978 69.7307 87.8776 70.341 87.8776C70.9514 87.8776 71.5557 87.9978 72.1196 88.2314C72.6834 88.4649 73.1957 88.8072 73.6273 89.2388C74.0589 89.6704 74.4012 90.1827 74.6347 90.7465C74.8683 91.3104 74.9885 91.9147 74.9885 92.525Z" stroke="#1C7DF8" stroke-opacity="0.01" stroke-width="3.09831"/>
</g>
<path d="M74.9887 92.5251C74.9887 93.1355 74.8685 93.7398 74.6349 94.3037C74.4014 94.8675 74.0591 95.3798 73.6275 95.8114C73.1959 96.243 72.6836 96.5853 72.1198 96.8188C71.5559 97.0524 70.9516 97.1726 70.3412 97.1726C69.7309 97.1726 69.1266 97.0524 68.5627 96.8188C67.9989 96.5853 67.4866 96.243 67.055 95.8114C66.6234 95.3798 66.2811 94.8675 66.0476 94.3037C65.814 93.7398 65.6938 93.1355 65.6938 92.5251C65.6938 91.9148 65.814 91.3105 66.0476 90.7466C66.2811 90.1828 66.6234 89.6705 67.055 89.2389C67.4866 88.8073 67.9989 88.465 68.5627 88.2315C69.1266 87.9979 69.7309 87.8777 70.3412 87.8777C70.9516 87.8777 71.5559 87.9979 72.1198 88.2315C72.6836 88.465 73.1959 88.8073 73.6275 89.2389C74.0591 89.6705 74.4014 90.1828 74.6349 90.7466C74.8685 91.3105 74.9887 91.9148 74.9887 92.5251Z" stroke="#1C7DF8" stroke-width="3.09831"/>
<path d="M85.8029 90.5117H80.246C79.1342 90.5117 78.2329 91.413 78.2329 92.5248V92.5248C78.2329 93.6366 79.1342 94.5379 80.246 94.5379H85.8029C86.9147 94.5379 87.816 93.6366 87.816 92.5248V92.5248C87.816 91.413 86.9147 90.5117 85.8029 90.5117Z" fill="#DCE3ED"/>
<g filter="url(#filter13_d)">
<path d="M105.495 92.5247C105.495 93.1351 105.375 93.7394 105.141 94.3032C104.908 94.8671 104.565 95.3794 104.134 95.811C103.702 96.2426 103.19 96.5849 102.626 96.8184C102.062 97.052 101.458 97.1722 100.847 97.1722C100.237 97.1722 99.6328 97.052 99.069 96.8184C98.5051 96.5849 97.9928 96.2426 97.5612 95.811C97.1297 95.3794 96.7874 94.8671 96.5538 94.3032C96.3202 93.7394 96.2 93.1351 96.2 92.5247C96.2 91.9144 96.3202 91.3101 96.5538 90.7462C96.7874 90.1824 97.1297 89.67 97.5612 89.2385C97.9928 88.8069 98.5051 88.4646 99.069 88.231C99.6328 87.9975 100.237 87.8773 100.847 87.8773C101.458 87.8773 102.062 87.9975 102.626 88.231C103.19 88.4646 103.702 88.8069 104.134 89.2385C104.565 89.67 104.908 90.1824 105.141 90.7462C105.375 91.3101 105.495 91.9144 105.495 92.5247Z" stroke="#FFCD1D" stroke-opacity="0.01" stroke-width="3.09831"/>
</g>
<path d="M105.495 92.5246C105.495 93.135 105.375 93.7393 105.141 94.3031C104.908 94.867 104.565 95.3793 104.134 95.8109C103.702 96.2425 103.19 96.5848 102.626 96.8183C102.062 97.0519 101.458 97.1721 100.847 97.1721C100.237 97.1721 99.6328 97.0519 99.069 96.8183C98.5051 96.5848 97.9928 96.2425 97.5612 95.8109C97.1297 95.3793 96.7874 94.867 96.5538 94.3031C96.3202 93.7393 96.2 93.135 96.2 92.5246C96.2 91.9143 96.3202 91.31 96.5538 90.7461C96.7874 90.1823 97.1297 89.6699 97.5612 89.2384C97.9928 88.8068 98.5051 88.4645 99.069 88.2309C99.6328 87.9974 100.237 87.8772 100.847 87.8772C101.458 87.8772 102.062 87.9974 102.626 88.2309C103.19 88.4645 103.702 88.8068 104.134 89.2384C104.565 89.6699 104.908 90.1823 105.141 90.7461C105.375 91.31 105.495 91.9143 105.495 92.5246Z" stroke="#FFCD1D" stroke-width="3.09831"/>
<path d="M118.397 90.5116H111.123C110.011 90.5116 109.11 91.4129 109.11 92.5247V92.5247C109.11 93.6365 110.011 94.5378 111.123 94.5378H118.397C119.509 94.5378 120.41 93.6365 120.41 92.5247V92.5247C120.41 91.4129 119.509 90.5116 118.397 90.5116Z" fill="#DCE3ED"/>
<path d="M100.906 26.2939H81.5389C80.113 26.2939 78.957 27.4498 78.957 28.8758V28.8758C78.957 30.3018 80.113 31.4577 81.5389 31.4577H100.906C102.332 31.4577 103.488 30.3018 103.488 28.8758C103.488 27.4498 102.332 26.2939 100.906 26.2939Z" fill="#DCE3ED"/>
<g filter="url(#filter14_d)">
<path d="M70.5196 35.2494C74.0396 35.2494 76.8932 32.3958 76.8932 28.8758C76.8932 25.3557 74.0396 22.5022 70.5196 22.5022C66.9995 22.5022 64.146 25.3557 64.146 28.8758C64.146 32.3958 66.9995 35.2494 70.5196 35.2494Z" fill="#FFCD1D" fill-opacity="0.01"/>
</g>
<path d="M70.5196 35.2494C74.0396 35.2494 76.8932 32.3958 76.8932 28.8758C76.8932 25.3557 74.0396 22.5022 70.5196 22.5022C66.9995 22.5022 64.146 25.3557 64.146 28.8758C64.146 32.3958 66.9995 35.2494 70.5196 35.2494Z" fill="#FFCD1D"/>
<path opacity="0.21" d="M120.87 39.2991H69.3084C66.4565 39.2991 64.1445 41.611 64.1445 44.463V78.162C64.1445 81.0139 66.4565 83.3258 69.3084 83.3258H120.87C123.722 83.3258 126.034 81.0139 126.034 78.162V44.463C126.034 41.611 123.722 39.2991 120.87 39.2991Z" fill="#DCE3ED"/>
<g filter="url(#filter15_d)">
<path d="M73.9802 70.5267C73.9802 69.386 73.0554 68.4612 71.9147 68.4612C70.7739 68.4612 69.8491 69.386 69.8491 70.5267V75.6063C69.8491 76.7471 70.7739 77.6719 71.9147 77.6719C73.0554 77.6719 73.9802 76.7471 73.9802 75.6063V70.5267Z" fill="#FFCD1D" fill-opacity="0.01"/>
</g>
<path d="M73.9802 70.5267C73.9802 69.386 73.0554 68.4612 71.9147 68.4612C70.7739 68.4612 69.8491 69.386 69.8491 70.5267V75.6063C69.8491 76.7471 70.7739 77.6719 71.9147 77.6719C73.0554 77.6719 73.9802 76.7471 73.9802 75.6063V70.5267Z" fill="#FFCD1D"/>
<g filter="url(#filter16_d)">
<path d="M81.7053 64.137C81.7053 62.9962 80.7805 62.0714 79.6398 62.0714C78.499 62.0714 77.5742 62.9962 77.5742 64.137V75.6068C77.5742 76.7475 78.499 77.6723 79.6398 77.6723C80.7805 77.6723 81.7053 76.7475 81.7053 75.6068V64.137Z" fill="#1C7DF8" fill-opacity="0.01"/>
</g>
<path d="M81.7053 64.1368C81.7053 62.9961 80.7805 62.0713 79.6398 62.0713C78.499 62.0713 77.5742 62.9961 77.5742 64.1368V75.6066C77.5742 76.7474 78.499 77.6722 79.6398 77.6722C80.7805 77.6722 81.7053 76.7474 81.7053 75.6066V64.1368Z" fill="#1C7DF8"/>
<g filter="url(#filter17_d)">
<path d="M89.4304 54.6184C89.4304 53.4777 88.5056 52.5529 87.3649 52.5529C86.2241 52.5529 85.2993 53.4777 85.2993 54.6184V75.6071C85.2993 76.7478 86.2241 77.6726 87.3649 77.6726C88.5056 77.6726 89.4304 76.7478 89.4304 75.6071V54.6184Z" fill="#FFCD1D" fill-opacity="0.01"/>
</g>
<path d="M89.4304 54.6185C89.4304 53.4778 88.5056 52.553 87.3649 52.553C86.2241 52.553 85.2993 53.4778 85.2993 54.6185V75.6071C85.2993 76.7479 86.2241 77.6727 87.3649 77.6727C88.5056 77.6727 89.4304 76.7479 89.4304 75.6071V54.6185Z" fill="#FFCD1D"/>
<g filter="url(#filter18_d)">
<path d="M97.1555 45.6954C97.1555 44.5547 96.2307 43.6299 95.09 43.6299C93.9492 43.6299 93.0244 44.5547 93.0244 45.6954V75.6068C93.0244 76.7475 93.9492 77.6723 95.09 77.6723C96.2307 77.6723 97.1555 76.7475 97.1555 75.6068V45.6954Z" fill="#1C7DF8" fill-opacity="0.01"/>
</g>
<path d="M97.1555 45.6954C97.1555 44.5547 96.2307 43.6299 95.09 43.6299C93.9492 43.6299 93.0244 44.5547 93.0244 45.6954V75.6067C93.0244 76.7475 93.9492 77.6723 95.09 77.6723C96.2307 77.6723 97.1555 76.7475 97.1555 75.6067V45.6954Z" fill="#1C7DF8"/>
<g filter="url(#filter19_d)">
<path d="M104.881 53.6302C104.881 52.4895 103.956 51.5647 102.816 51.5647C101.675 51.5647 100.75 52.4895 100.75 53.6302V75.6068C100.75 76.7475 101.675 77.6723 102.816 77.6723C103.956 77.6723 104.881 76.7475 104.881 75.6068V53.6302Z" fill="#FFCD1D" fill-opacity="0.01"/>
</g>
<path d="M104.881 53.6302C104.881 52.4895 103.956 51.5647 102.816 51.5647C101.675 51.5647 100.75 52.4895 100.75 53.6302V75.6068C100.75 76.7475 101.675 77.6723 102.816 77.6723C103.956 77.6723 104.881 76.7475 104.881 75.6068V53.6302Z" fill="#FFCD1D"/>
<g filter="url(#filter20_d)">
<path d="M112.605 45.6954C112.605 44.5547 111.68 43.6299 110.54 43.6299C109.399 43.6299 108.474 44.5547 108.474 45.6954V75.6068C108.474 76.7475 109.399 77.6723 110.54 77.6723C111.68 77.6723 112.605 76.7475 112.605 75.6068V45.6954Z" fill="#1C7DF8" fill-opacity="0.01"/>
</g>
<path d="M112.605 45.6954C112.605 44.5547 111.68 43.6299 110.54 43.6299C109.399 43.6299 108.474 44.5547 108.474 45.6954V75.6067C108.474 76.7475 109.399 77.6723 110.54 77.6723C111.68 77.6723 112.605 76.7475 112.605 75.6067V45.6954Z" fill="#1C7DF8"/>
<g filter="url(#filter21_d)">
<path d="M120.331 50.6296C120.331 49.4889 119.406 48.5641 118.265 48.5641C117.125 48.5641 116.2 49.4889 116.2 50.6296V75.6069C116.2 76.7477 117.125 77.6725 118.265 77.6725C119.406 77.6725 120.331 76.7477 120.331 75.6069V50.6296Z" fill="#FFCD1D" fill-opacity="0.01"/>
</g>
<path d="M120.331 50.6297C120.331 49.489 119.406 48.5642 118.265 48.5642C117.125 48.5642 116.2 49.489 116.2 50.6297V75.6071C116.2 76.7478 117.125 77.6726 118.265 77.6726C119.406 77.6726 120.331 76.7478 120.331 75.6071V50.6297Z" fill="#FFCD1D"/>
<defs>
<filter id="filter0_d" x="0.475679" y="9.70869" width="107.235" height="128.273" filterUnits="userSpaceOnUse" color-interpolation-filters="sRGB">
<feFlood flood-opacity="0" result="BackgroundImageFix"/>
<feColorMatrix in="SourceAlpha" type="matrix" values="0 0 0 0 0 0 0 0 0 0 0 0 0 0 0 0 0 0 127 0"/>
<feOffset dy="4.13108"/>
<feGaussianBlur stdDeviation="8.26216"/>
<feColorMatrix type="matrix" values="0 0 0 0 0.776471 0 0 0 0 0.45898 0 0 0 0 0.0862745 0 0 0 0.13 0"/>
<feBlend mode="normal" in2="BackgroundImageFix" result="effect1_dropShadow"/>
<feBlend mode="normal" in="SourceGraphic" in2="effect1_dropShadow" result="shape"/>
</filter>
<filter id="filter1_d" x="21.0824" y="96.0599" width="12.9964" height="16.2087" filterUnits="userSpaceOnUse" color-interpolation-filters="sRGB">
<feFlood flood-opacity="0" result="BackgroundImageFix"/>
<feColorMatrix in="SourceAlpha" type="matrix" values="0 0 0 0 0 0 0 0 0 0 0 0 0 0 0 0 0 0 127 0"/>
<feOffset dy="2.06554"/>
<feGaussianBlur stdDeviation="1.03277"/>
<feColorMatrix type="matrix" values="0 0 0 0 0.109219 0 0 0 0 0.491032 0 0 0 0 0.970833 0 0 0 0.13 0"/>
<feBlend mode="normal" in2="BackgroundImageFix" result="effect1_dropShadow"/>
<feBlend mode="normal" in="SourceGraphic" in2="effect1_dropShadow" result="shape"/>
</filter>
<filter id="filter2_d" x="51.4901" y="96.0603" width="14.6283" height="16.5241" filterUnits="userSpaceOnUse" color-interpolation-filters="sRGB">
<feFlood flood-opacity="0" result="BackgroundImageFix"/>
<feColorMatrix in="SourceAlpha" type="matrix" values="0 0 0 0 0 0 0 0 0 0 0 0 0 0 0 0 0 0 127 0"/>
<feOffset dy="2.06554"/>
<feGaussianBlur stdDeviation="1.03277"/>
<feColorMatrix type="matrix" values="0 0 0 0 1 0 0 0 0 0.80475 0 0 0 0 0.1125 0 0 0 0.19 0"/>
<feBlend mode="normal" in2="BackgroundImageFix" result="effect1_dropShadow"/>
<feBlend mode="normal" in="SourceGraphic" in2="effect1_dropShadow" result="shape"/>
</filter>
<filter id="filter3_d" x="14.8858" y="27.0703" width="29.2715" height="29.2715" filterUnits="userSpaceOnUse" color-interpolation-filters="sRGB">
<feFlood flood-opacity="0" result="BackgroundImageFix"/>
<feColorMatrix in="SourceAlpha" type="matrix" values="0 0 0 0 0 0 0 0 0 0 0 0 0 0 0 0 0 0 127 0"/>
<feOffset dy="3.09831"/>
<feGaussianBlur stdDeviation="4.13108"/>
<feColorMatrix type="matrix" values="0 0 0 0 1 0 0 0 0 0.80475 0 0 0 0 0.1125 0 0 0 0.21 0"/>
<feBlend mode="normal" in2="BackgroundImageFix" result="effect1_dropShadow"/>
<feBlend mode="normal" in="SourceGraphic" in2="effect1_dropShadow" result="shape"/>
</filter>
<filter id="filter4_d" x="26.4342" y="69.7723" width="8.96572" height="22.4662" filterUnits="userSpaceOnUse" color-interpolation-filters="sRGB">
<feFlood flood-opacity="0" result="BackgroundImageFix"/>
<feColorMatrix in="SourceAlpha" type="matrix" values="0 0 0 0 0 0 0 0 0 0 0 0 0 0 0 0 0 0 127 0"/>
<feOffset dy="2.41732"/>
<feGaussianBlur stdDeviation="1.20866"/>
<feColorMatrix type="matrix" values="0 0 0 0 1 0 0 0 0 0.80475 0 0 0 0 0.1125 0 0 0 0.15 0"/>
<feBlend mode="normal" in2="BackgroundImageFix" result="effect1_dropShadow"/>
<feBlend mode="normal" in="SourceGraphic" in2="effect1_dropShadow" result="shape"/>
</filter>
<filter id="filter5_d" x="34.1589" y="74.657" width="8.96572" height="17.5825" filterUnits="userSpaceOnUse" color-interpolation-filters="sRGB">
<feFlood flood-opacity="0" result="BackgroundImageFix"/>
<feColorMatrix in="SourceAlpha" type="matrix" values="0 0 0 0 0 0 0 0 0 0 0 0 0 0 0 0 0 0 127 0"/>
<feOffset dy="2.41732"/>
<feGaussianBlur stdDeviation="1.20866"/>
<feColorMatrix type="matrix" values="0 0 0 0 0.109219 0 0 0 0 0.491032 0 0 0 0 0.970833 0 0 0 0.09 0"/>
<feBlend mode="normal" in2="BackgroundImageFix" result="effect1_dropShadow"/>
<feBlend mode="normal" in="SourceGraphic" in2="effect1_dropShadow" result="shape"/>
</filter>
<filter id="filter6_d" x="41.8849" y="60.6841" width="8.96572" height="31.5553" filterUnits="userSpaceOnUse" color-interpolation-filters="sRGB">
<feFlood flood-opacity="0" result="BackgroundImageFix"/>
<feColorMatrix in="SourceAlpha" type="matrix" values="0 0 0 0 0 0 0 0 0 0 0 0 0 0 0 0 0 0 127 0"/>
<feOffset dy="2.41732"/>
<feGaussianBlur stdDeviation="1.20866"/>
<feColorMatrix type="matrix" values="0 0 0 0 1 0 0 0 0 0.80475 0 0 0 0 0.1125 0 0 0 0.15 0"/>
<feBlend mode="normal" in2="BackgroundImageFix" result="effect1_dropShadow"/>
<feBlend mode="normal" in="SourceGraphic" in2="effect1_dropShadow" result="shape"/>
</filter>
<filter id="filter7_d" x="49.6095" y="64.5673" width="8.96572" height="27.672" filterUnits="userSpaceOnUse" color-interpolation-filters="sRGB">
<feFlood flood-opacity="0" result="BackgroundImageFix"/>
<feColorMatrix in="SourceAlpha" type="matrix" values="0 0 0 0 0 0 0 0 0 0 0 0 0 0 0 0 0 0 127 0"/>
<feOffset dy="2.41732"/>
<feGaussianBlur stdDeviation="1.20866"/>
<feColorMatrix type="matrix" values="0 0 0 0 0.109219 0 0 0 0 0.491032 0 0 0 0 0.970833 0 0 0 0.09 0"/>
<feBlend mode="normal" in2="BackgroundImageFix" result="effect1_dropShadow"/>
<feBlend mode="normal" in="SourceGraphic" in2="effect1_dropShadow" result="shape"/>
</filter>
<filter id="filter8_d" x="57.3346" y="53.3624" width="8.96572" height="38.8768" filterUnits="userSpaceOnUse" color-interpolation-filters="sRGB">
<feFlood flood-opacity="0" result="BackgroundImageFix"/>
<feColorMatrix in="SourceAlpha" type="matrix" values="0 0 0 0 0 0 0 0 0 0 0 0 0 0 0 0 0 0 127 0"/>
<feOffset dy="2.41732"/>
<feGaussianBlur stdDeviation="1.20866"/>
<feColorMatrix type="matrix" values="0 0 0 0 0.44795 0 0 0 0 0.85 0 0 0 0 0.3825 0 0 0 0.15 0"/>
<feBlend mode="normal" in2="BackgroundImageFix" result="effect1_dropShadow"/>
<feBlend mode="normal" in="SourceGraphic" in2="effect1_dropShadow" result="shape"/>
</filter>
<filter id="filter9_d" x="65.0597" y="53.3624" width="8.96572" height="38.877" filterUnits="userSpaceOnUse" color-interpolation-filters="sRGB">
<feFlood flood-opacity="0" result="BackgroundImageFix"/>
<feColorMatrix in="SourceAlpha" type="matrix" values="0 0 0 0 0 0 0 0 0 0 0 0 0 0 0 0 0 0 127 0"/>
<feOffset dy="2.41732"/>
<feGaussianBlur stdDeviation="1.20866"/>
<feColorMatrix type="matrix" values="0 0 0 0 0.44795 0 0 0 0 0.85 0 0 0 0 0.3825 0 0 0 0.15 0"/>
<feBlend mode="normal" in2="BackgroundImageFix" result="effect1_dropShadow"/>
<feBlend mode="normal" in="SourceGraphic" in2="effect1_dropShadow" result="shape"/>
</filter>
<filter id="filter10_d" x="72.7848" y="58.2966" width="8.96572" height="33.943" filterUnits="userSpaceOnUse" color-interpolation-filters="sRGB">
<feFlood flood-opacity="0" result="BackgroundImageFix"/>
<feColorMatrix in="SourceAlpha" type="matrix" values="0 0 0 0 0 0 0 0 0 0 0 0 0 0 0 0 0 0 127 0"/>
<feOffset dy="2.41732"/>
<feGaussianBlur stdDeviation="1.20866"/>
<feColorMatrix type="matrix" values="0 0 0 0 0.44795 0 0 0 0 0.85 0 0 0 0 0.3825 0 0 0 0.15 0"/>
<feBlend mode="normal" in2="BackgroundImageFix" result="effect1_dropShadow"/>
<feBlend mode="normal" in="SourceGraphic" in2="effect1_dropShadow" result="shape"/>
</filter>
<filter id="filter11_d" x="41.4723" y="0.60676" width="107.235" height="128.273" filterUnits="userSpaceOnUse" color-interpolation-filters="sRGB">
<feFlood flood-opacity="0" result="BackgroundImageFix"/>
<feColorMatrix in="SourceAlpha" type="matrix" values="0 0 0 0 0 0 0 0 0 0 0 0 0 0 0 0 0 0 127 0"/>
<feOffset dy="4.13108"/>
<feGaussianBlur stdDeviation="8.26216"/>
<feColorMatrix type="matrix" values="0 0 0 0 0.775 0 0 0 0 0.582412 0 0 0 0 0.0871875 0 0 0 0.51 0"/>
<feBlend mode="normal" in2="BackgroundImageFix" result="effect1_dropShadow"/>
<feBlend mode="normal" in="SourceGraphic" in2="effect1_dropShadow" result="shape"/>
</filter>
<filter id="filter12_d" x="62.079" y="86.3284" width="16.5243" height="16.5243" filterUnits="userSpaceOnUse" color-interpolation-filters="sRGB">
<feFlood flood-opacity="0" result="BackgroundImageFix"/>
<feColorMatrix in="SourceAlpha" type="matrix" values="0 0 0 0 0 0 0 0 0 0 0 0 0 0 0 0 0 0 127 0"/>
<feOffset dy="2.06554"/>
<feGaussianBlur stdDeviation="1.03277"/>
<feColorMatrix type="matrix" values="0 0 0 0 0.109219 0 0 0 0 0.491032 0 0 0 0 0.970833 0 0 0 0.13 0"/>
<feBlend mode="normal" in2="BackgroundImageFix" result="effect1_dropShadow"/>
<feBlend mode="normal" in="SourceGraphic" in2="effect1_dropShadow" result="shape"/>
</filter>
<filter id="filter13_d" x="92.5853" y="86.3281" width="16.5244" height="16.5243" filterUnits="userSpaceOnUse" color-interpolation-filters="sRGB">
<feFlood flood-opacity="0" result="BackgroundImageFix"/>
<feColorMatrix in="SourceAlpha" type="matrix" values="0 0 0 0 0 0 0 0 0 0 0 0 0 0 0 0 0 0 127 0"/>
<feOffset dy="2.06554"/>
<feGaussianBlur stdDeviation="1.03277"/>
<feColorMatrix type="matrix" values="0 0 0 0 1 0 0 0 0 0.80475 0 0 0 0 0.1125 0 0 0 0.19 0"/>
<feBlend mode="normal" in2="BackgroundImageFix" result="effect1_dropShadow"/>
<feBlend mode="normal" in="SourceGraphic" in2="effect1_dropShadow" result="shape"/>
</filter>
<filter id="filter14_d" x="55.8838" y="17.3383" width="29.2715" height="29.2715" filterUnits="userSpaceOnUse" color-interpolation-filters="sRGB">
<feFlood flood-opacity="0" result="BackgroundImageFix"/>
<feColorMatrix in="SourceAlpha" type="matrix" values="0 0 0 0 0 0 0 0 0 0 0 0 0 0 0 0 0 0 127 0"/>
<feOffset dy="3.09831"/>
<feGaussianBlur stdDeviation="4.13108"/>
<feColorMatrix type="matrix" values="0 0 0 0 1 0 0 0 0 0.80475 0 0 0 0 0.1125 0 0 0 0.21 0"/>
<feBlend mode="normal" in2="BackgroundImageFix" result="effect1_dropShadow"/>
<feBlend mode="normal" in="SourceGraphic" in2="effect1_dropShadow" result="shape"/>
</filter>
<filter id="filter15_d" x="67.4318" y="68.4612" width="8.96572" height="14.0453" filterUnits="userSpaceOnUse" color-interpolation-filters="sRGB">
<feFlood flood-opacity="0" result="BackgroundImageFix"/>
<feColorMatrix in="SourceAlpha" type="matrix" values="0 0 0 0 0 0 0 0 0 0 0 0 0 0 0 0 0 0 127 0"/>
<feOffset dy="2.41732"/>
<feGaussianBlur stdDeviation="1.20866"/>
<feColorMatrix type="matrix" values="0 0 0 0 1 0 0 0 0 0.80475 0 0 0 0 0.1125 0 0 0 0.15 0"/>
<feBlend mode="normal" in2="BackgroundImageFix" result="effect1_dropShadow"/>
<feBlend mode="normal" in="SourceGraphic" in2="effect1_dropShadow" result="shape"/>
</filter>
<filter id="filter16_d" x="75.1569" y="62.0714" width="8.96571" height="20.4355" filterUnits="userSpaceOnUse" color-interpolation-filters="sRGB">
<feFlood flood-opacity="0" result="BackgroundImageFix"/>
<feColorMatrix in="SourceAlpha" type="matrix" values="0 0 0 0 0 0 0 0 0 0 0 0 0 0 0 0 0 0 127 0"/>
<feOffset dy="2.41732"/>
<feGaussianBlur stdDeviation="1.20866"/>
<feColorMatrix type="matrix" values="0 0 0 0 0.109219 0 0 0 0 0.491032 0 0 0 0 0.970833 0 0 0 0.09 0"/>
<feBlend mode="normal" in2="BackgroundImageFix" result="effect1_dropShadow"/>
<feBlend mode="normal" in="SourceGraphic" in2="effect1_dropShadow" result="shape"/>
</filter>
<filter id="filter17_d" x="82.882" y="52.5529" width="8.96572" height="29.9543" filterUnits="userSpaceOnUse" color-interpolation-filters="sRGB">
<feFlood flood-opacity="0" result="BackgroundImageFix"/>
<feColorMatrix in="SourceAlpha" type="matrix" values="0 0 0 0 0 0 0 0 0 0 0 0 0 0 0 0 0 0 127 0"/>
<feOffset dy="2.41732"/>
<feGaussianBlur stdDeviation="1.20866"/>
<feColorMatrix type="matrix" values="0 0 0 0 1 0 0 0 0 0.80475 0 0 0 0 0.1125 0 0 0 0.15 0"/>
<feBlend mode="normal" in2="BackgroundImageFix" result="effect1_dropShadow"/>
<feBlend mode="normal" in="SourceGraphic" in2="effect1_dropShadow" result="shape"/>
</filter>
<filter id="filter18_d" x="90.6071" y="43.6299" width="8.96572" height="38.877" filterUnits="userSpaceOnUse" color-interpolation-filters="sRGB">
<feFlood flood-opacity="0" result="BackgroundImageFix"/>
<feColorMatrix in="SourceAlpha" type="matrix" values="0 0 0 0 0 0 0 0 0 0 0 0 0 0 0 0 0 0 127 0"/>
<feOffset dy="2.41732"/>
<feGaussianBlur stdDeviation="1.20866"/>
<feColorMatrix type="matrix" values="0 0 0 0 0.109219 0 0 0 0 0.491032 0 0 0 0 0.970833 0 0 0 0.09 0"/>
<feBlend mode="normal" in2="BackgroundImageFix" result="effect1_dropShadow"/>
<feBlend mode="normal" in="SourceGraphic" in2="effect1_dropShadow" result="shape"/>
</filter>
<filter id="filter19_d" x="98.3327" y="51.5647" width="8.96572" height="30.9422" filterUnits="userSpaceOnUse" color-interpolation-filters="sRGB">
<feFlood flood-opacity="0" result="BackgroundImageFix"/>
<feColorMatrix in="SourceAlpha" type="matrix" values="0 0 0 0 0 0 0 0 0 0 0 0 0 0 0 0 0 0 127 0"/>
<feOffset dy="2.41732"/>
<feGaussianBlur stdDeviation="1.20866"/>
<feColorMatrix type="matrix" values="0 0 0 0 1 0 0 0 0 0.80475 0 0 0 0 0.1125 0 0 0 0.15 0"/>
<feBlend mode="normal" in2="BackgroundImageFix" result="effect1_dropShadow"/>
<feBlend mode="normal" in="SourceGraphic" in2="effect1_dropShadow" result="shape"/>
</filter>
<filter id="filter20_d" x="106.057" y="43.6299" width="8.96572" height="38.877" filterUnits="userSpaceOnUse" color-interpolation-filters="sRGB">
<feFlood flood-opacity="0" result="BackgroundImageFix"/>
<feColorMatrix in="SourceAlpha" type="matrix" values="0 0 0 0 0 0 0 0 0 0 0 0 0 0 0 0 0 0 127 0"/>
<feOffset dy="2.41732"/>
<feGaussianBlur stdDeviation="1.20866"/>
<feColorMatrix type="matrix" values="0 0 0 0 0.109219 0 0 0 0 0.491032 0 0 0 0 0.970833 0 0 0 0.09 0"/>
<feBlend mode="normal" in2="BackgroundImageFix" result="effect1_dropShadow"/>
<feBlend mode="normal" in="SourceGraphic" in2="effect1_dropShadow" result="shape"/>
</filter>
<filter id="filter21_d" x="113.783" y="48.5641" width="8.96572" height="33.943" filterUnits="userSpaceOnUse" color-interpolation-filters="sRGB">
<feFlood flood-opacity="0" result="BackgroundImageFix"/>
<feColorMatrix in="SourceAlpha" type="matrix" values="0 0 0 0 0 0 0 0 0 0 0 0 0 0 0 0 0 0 127 0"/>
<feOffset dy="2.41732"/>
<feGaussianBlur stdDeviation="1.20866"/>
<feColorMatrix type="matrix" values="0 0 0 0 1 0 0 0 0 0.80475 0 0 0 0 0.1125 0 0 0 0.15 0"/>
<feBlend mode="normal" in2="BackgroundImageFix" result="effect1_dropShadow"/>
<feBlend mode="normal" in="SourceGraphic" in2="effect1_dropShadow" result="shape"/>
</filter>
</defs>
</svg>
