<svg width="38" height="28" viewBox="0 0 38 28" fill="none" xmlns="http://www.w3.org/2000/svg">
<g filter="url(#filter0_d)">
<path d="M33.86 3.28993C33.8182 3.27219 33.7721 3.26735 33.7275 3.27604C33.683 3.28473 33.642 3.30654 33.61 3.33868L21.4262 15.5199C20.7816 16.1641 19.9076 16.526 18.9962 16.526C18.0849 16.526 17.2109 16.1641 16.5663 15.5199L4.3875 3.33868C4.35564 3.30624 4.31469 3.28423 4.27006 3.27552C4.22544 3.26682 4.17922 3.27184 4.1375 3.28993C4.09651 3.30759 4.06162 3.33691 4.03717 3.37425C4.01272 3.41159 3.99979 3.4553 4 3.49993V18.4999C4 19.1629 4.26339 19.7988 4.73224 20.2677C5.20108 20.7365 5.83696 20.9999 6.5 20.9999H31.5C32.163 20.9999 32.7989 20.7365 33.2678 20.2677C33.7366 19.7988 34 19.1629 34 18.4999V3.49993C34.0002 3.45498 33.9869 3.411 33.962 3.37359C33.9371 3.33619 33.9016 3.30706 33.86 3.28993Z" fill="#5C5CBF" fill-opacity="0.01"/>
<path d="M17.8913 14.195C18.1847 14.4875 18.5821 14.6518 18.9963 14.6518C19.4106 14.6518 19.808 14.4875 20.1013 14.195L32.2088 2.0875C32.2908 2.00553 32.3484 1.90238 32.3751 1.78958C32.4018 1.67678 32.3966 1.55877 32.3601 1.44875C32.2226 1.0375 31.8401 1 31.4976 1H6.4976C6.15385 1 5.76885 1.0375 5.63385 1.44875C5.59735 1.55877 5.59216 1.67678 5.61887 1.78958C5.64558 1.90238 5.70313 2.00553 5.7851 2.0875L17.8913 14.195Z" fill="#5C5CBF" fill-opacity="0.01"/>
</g>
<path d="M33.86 3.28993C33.8182 3.27219 33.7721 3.26735 33.7275 3.27604C33.683 3.28473 33.642 3.30654 33.61 3.33868L21.4262 15.5199C20.7816 16.1641 19.9076 16.526 18.9962 16.526C18.0849 16.526 17.2109 16.1641 16.5663 15.5199L4.3875 3.33868C4.35564 3.30624 4.31469 3.28423 4.27006 3.27552C4.22544 3.26682 4.17922 3.27184 4.1375 3.28993C4.09651 3.30759 4.06162 3.33691 4.03717 3.37425C4.01272 3.41159 3.99979 3.4553 4 3.49993V18.4999C4 19.1629 4.26339 19.7988 4.73224 20.2677C5.20108 20.7365 5.83696 20.9999 6.5 20.9999H31.5C32.163 20.9999 32.7989 20.7365 33.2678 20.2677C33.7366 19.7988 34 19.1629 34 18.4999V3.49993C34.0002 3.45498 33.9869 3.411 33.962 3.37359C33.9371 3.33619 33.9016 3.30706 33.86 3.28993Z" fill="#5C5CBF"/>
<path d="M17.8913 14.195C18.1847 14.4875 18.5821 14.6518 18.9963 14.6518C19.4106 14.6518 19.808 14.4875 20.1013 14.195L32.2088 2.0875C32.2908 2.00553 32.3484 1.90238 32.3751 1.78958C32.4018 1.67678 32.3966 1.55877 32.3601 1.44875C32.2226 1.0375 31.8401 1 31.4976 1H6.4976C6.15385 1 5.76885 1.0375 5.63385 1.44875C5.59735 1.55877 5.59216 1.67678 5.61887 1.78958C5.64558 1.90238 5.70313 2.00553 5.7851 2.0875L17.8913 14.195Z" fill="#5C5CBF"/>
<defs>
<filter id="filter0_d" x="0" y="0" width="38" height="27.9999" filterUnits="userSpaceOnUse" color-interpolation-filters="sRGB">
<feFlood flood-opacity="0" result="BackgroundImageFix"/>
<feColorMatrix in="SourceAlpha" type="matrix" values="0 0 0 0 0 0 0 0 0 0 0 0 0 0 0 0 0 0 127 0"/>
<feOffset dy="3"/>
<feGaussianBlur stdDeviation="2"/>
<feColorMatrix type="matrix" values="0 0 0 0 0.109219 0 0 0 0 0.491032 0 0 0 0 0.970833 0 0 0 0.19 0"/>
<feBlend mode="normal" in2="BackgroundImageFix" result="effect1_dropShadow"/>
<feBlend mode="normal" in="SourceGraphic" in2="effect1_dropShadow" result="shape"/>
</filter>
</defs>
</svg>
