<svg width="152" height="172" viewBox="0 0 152 172" fill="none" xmlns="http://www.w3.org/2000/svg">
<g filter="url(#filter0_dd)">
<path d="M106.595 22.2019H45.12C36.1595 22.2019 28.8955 29.4659 28.8955 38.4264V120.13C28.8955 129.091 36.1595 136.355 45.12 136.355H106.595C115.555 136.355 122.819 129.091 122.819 120.13V38.4264C122.819 29.4659 115.555 22.2019 106.595 22.2019Z" fill="white" fill-opacity="0.01"/>
</g>
<path d="M106.595 22.2019H45.12C36.1595 22.2019 28.8955 29.4659 28.8955 38.4264V120.13C28.8955 129.091 36.1595 136.355 45.12 136.355H106.595C115.555 136.355 122.819 129.091 122.819 120.13V38.4264C122.819 29.4659 115.555 22.2019 106.595 22.2019Z" fill="white"/>
<g filter="url(#filter1_d)">
<path d="M82.8196 121.481H68.8949C67.0418 121.481 65.5396 122.983 65.5396 124.836C65.5396 126.689 67.0418 128.192 68.8949 128.192H82.8196C84.6727 128.192 86.175 126.689 86.175 124.836C86.175 122.983 84.6727 121.481 82.8196 121.481Z" fill="#1C7DF8" fill-opacity="0.01"/>
</g>
<path d="M82.8196 121.481H68.8949C67.0418 121.481 65.5396 122.983 65.5396 124.836C65.5396 126.689 67.0418 128.192 68.8949 128.192H82.8196C84.6727 128.192 86.175 126.689 86.175 124.836C86.175 122.983 84.6727 121.481 82.8196 121.481Z" fill="#1C7DF8"/>
<g filter="url(#filter2_d)">
<path d="M40.5541 37.1398C42.1937 37.1398 43.5228 35.8106 43.5228 34.1711C43.5228 32.5315 42.1937 31.2024 40.5541 31.2024C38.9146 31.2024 37.5854 32.5315 37.5854 34.1711C37.5854 35.8106 38.9146 37.1398 40.5541 37.1398Z" fill="#F4263E" fill-opacity="0.01"/>
</g>
<path d="M40.5541 37.1398C42.1937 37.1398 43.5228 35.8106 43.5228 34.1711C43.5228 32.5315 42.1937 31.2024 40.5541 31.2024C38.9146 31.2024 37.5854 32.5315 37.5854 34.1711C37.5854 35.8106 38.9146 37.1398 40.5541 37.1398Z" fill="#F4263E"/>
<g filter="url(#filter3_d)">
<path d="M49.0678 37.1398C50.7074 37.1398 52.0365 35.8106 52.0365 34.1711C52.0365 32.5315 50.7074 31.2024 49.0678 31.2024C47.4282 31.2024 46.0991 32.5315 46.0991 34.1711C46.0991 35.8106 47.4282 37.1398 49.0678 37.1398Z" fill="#FFCD1D" fill-opacity="0.01"/>
</g>
<path d="M49.0678 37.1398C50.7074 37.1398 52.0365 35.8106 52.0365 34.1711C52.0365 32.5315 50.7074 31.2024 49.0678 31.2024C47.4282 31.2024 46.0991 32.5315 46.0991 34.1711C46.0991 35.8106 47.4282 37.1398 49.0678 37.1398Z" fill="#FFCD1D"/>
<g filter="url(#filter4_d)">
<path d="M57.581 37.1398C59.2206 37.1398 60.5497 35.8106 60.5497 34.1711C60.5497 32.5315 59.2206 31.2024 57.581 31.2024C55.9414 31.2024 54.6123 32.5315 54.6123 34.1711C54.6123 35.8106 55.9414 37.1398 57.581 37.1398Z" fill="#83E436" fill-opacity="0.01"/>
</g>
<path d="M57.581 37.1398C59.2206 37.1398 60.5497 35.8106 60.5497 34.1711C60.5497 32.5315 59.2206 31.2024 57.581 31.2024C55.9414 31.2024 54.6123 32.5315 54.6123 34.1711C54.6123 35.8106 55.9414 37.1398 57.581 37.1398Z" fill="#83E436"/>
<path d="M54.4053 110.208H42.1782C41.0737 110.208 40.1782 111.103 40.1782 112.208C40.1782 113.313 41.0737 114.208 42.1782 114.208H54.4053C55.5099 114.208 56.4053 113.313 56.4053 112.208C56.4053 111.103 55.5099 110.208 54.4053 110.208Z" fill="#B4C2D6"/>
<path d="M83.6813 110.208H68.0327C66.9281 110.208 66.0327 111.103 66.0327 112.208C66.0327 113.313 66.9281 114.208 68.0327 114.208H83.6813C84.7859 114.208 85.6813 113.313 85.6813 112.208C85.6813 111.103 84.7859 110.208 83.6813 110.208Z" fill="#B4C2D6"/>
<path d="M109.145 110.208H97.6997C96.5951 110.208 95.6997 111.103 95.6997 112.208C95.6997 113.313 96.5951 114.208 97.6997 114.208H109.145C110.249 114.208 111.145 113.313 111.145 112.208C111.145 111.103 110.249 110.208 109.145 110.208Z" fill="#B4C2D6"/>
<path d="M64.5173 48.8365H39.2568C37.8761 48.8365 36.7568 49.9558 36.7568 51.3365C36.7568 52.7172 37.8761 53.8365 39.2568 53.8365H64.5173C65.8981 53.8365 67.0173 52.7172 67.0173 51.3365C67.0173 49.9558 65.8981 48.8365 64.5173 48.8365Z" fill="#778BA5"/>
<path d="M73.9011 56.8365H39.2568C37.8761 56.8365 36.7568 57.9558 36.7568 59.3365C36.7568 60.7172 37.8761 61.8365 39.2568 61.8365H73.9011C75.2818 61.8365 76.4011 60.7172 76.4011 59.3365C76.4011 57.9558 75.2818 56.8365 73.9011 56.8365Z" fill="#B4C2D6"/>
<g filter="url(#filter5_d)">
<path d="M51.0421 65.6459H39.7568C38.1 65.6459 36.7568 66.9891 36.7568 68.6459C36.7568 70.3028 38.1 71.6459 39.7568 71.6459H51.0421C52.699 71.6459 54.0421 70.3028 54.0421 68.6459C54.0421 66.9891 52.699 65.6459 51.0421 65.6459Z" fill="#1C7DF8" fill-opacity="0.01"/>
</g>
<path d="M51.0421 65.646H39.7568C38.1 65.646 36.7568 66.9891 36.7568 68.646C36.7568 70.3029 38.1 71.646 39.7568 71.646H51.0421C52.699 71.646 54.0421 70.3029 54.0421 68.646C54.0421 66.9891 52.699 65.646 51.0421 65.646Z" fill="#1C7DF8"/>
<g filter="url(#filter6_d)">
<path d="M106.957 42.948H90.436C86.0178 42.948 82.436 46.5297 82.436 50.948V69.5343C82.436 73.9526 86.0178 77.5343 90.436 77.5343H106.957C111.376 77.5343 114.957 73.9526 114.957 69.5343V50.948C114.957 46.5297 111.376 42.948 106.957 42.948Z" fill="#1C7DF8" fill-opacity="0.01"/>
</g>
<path d="M106.957 42.948H90.436C86.0178 42.948 82.436 46.5297 82.436 50.948V69.5343C82.436 73.9526 86.0178 77.5343 90.436 77.5343H106.957C111.376 77.5343 114.957 73.9526 114.957 69.5343V50.948C114.957 46.5297 111.376 42.948 106.957 42.948Z" fill="#1C7DF8"/>
<path opacity="0.5" d="M54.8268 82.8059H41.7568C38.9954 82.8059 36.7568 85.0445 36.7568 87.8059V102.314C36.7568 105.076 38.9954 107.314 41.7568 107.314H54.8268C57.5883 107.314 59.8268 105.076 59.8268 102.314V87.8059C59.8268 85.0445 57.5883 82.8059 54.8268 82.8059Z" fill="#DCE3ED"/>
<path opacity="0.5" d="M109.957 82.8059H96.8872C94.1258 82.8059 91.8872 85.0445 91.8872 87.8059V102.314C91.8872 105.076 94.1258 107.314 96.8872 107.314H109.957C112.719 107.314 114.957 105.076 114.957 102.314V87.8059C114.957 85.0445 112.719 82.8059 109.957 82.8059Z" fill="#DCE3ED"/>
<g filter="url(#filter7_d)">
<path d="M82.3923 82.8059H69.3223C66.5608 82.8059 64.3223 85.0445 64.3223 87.8059V102.314C64.3223 105.076 66.5608 107.314 69.3223 107.314H82.3923C85.1537 107.314 87.3923 105.076 87.3923 102.314V87.8059C87.3923 85.0445 85.1537 82.8059 82.3923 82.8059Z" fill="#72D962" fill-opacity="0.01"/>
</g>
<path d="M82.3923 82.8059H69.3223C66.5608 82.8059 64.3223 85.0445 64.3223 87.8059V102.314C64.3223 105.076 66.5608 107.314 69.3223 107.314H82.3923C85.1537 107.314 87.3923 105.076 87.3923 102.314V87.8059C87.3923 85.0445 85.1537 82.8059 82.3923 82.8059Z" fill="#72D962"/>
<defs>
<filter id="filter0_dd" x="0.502708" y="0.979105" width="150.709" height="170.939" filterUnits="userSpaceOnUse" color-interpolation-filters="sRGB">
<feFlood flood-opacity="0" result="BackgroundImageFix"/>
<feColorMatrix in="SourceAlpha" type="matrix" values="0 0 0 0 0 0 0 0 0 0 0 0 0 0 0 0 0 0 127 0"/>
<feOffset dy="7.17"/>
<feGaussianBlur stdDeviation="14.1964"/>
<feColorMatrix type="matrix" values="0 0 0 0 0.0914063 0 0 0 0 0.41095 0 0 0 0 0.8125 0 0 0 0.13 0"/>
<feBlend mode="normal" in2="BackgroundImageFix" result="effect1_dropShadow"/>
<feColorMatrix in="SourceAlpha" type="matrix" values="0 0 0 0 0 0 0 0 0 0 0 0 0 0 0 0 0 0 127 0"/>
<feOffset/>
<feGaussianBlur stdDeviation="4.05611"/>
<feColorMatrix type="matrix" values="0 0 0 0 0.0976562 0 0 0 0 0.192861 0 0 0 0 0.3125 0 0 0 0.07 0"/>
<feBlend mode="normal" in2="effect1_dropShadow" result="effect2_dropShadow"/>
<feBlend mode="normal" in="SourceGraphic" in2="effect2_dropShadow" result="shape"/>
</filter>
<filter id="filter1_d" x="61.5396" y="119.481" width="28.6354" height="14.7107" filterUnits="userSpaceOnUse" color-interpolation-filters="sRGB">
<feFlood flood-opacity="0" result="BackgroundImageFix"/>
<feColorMatrix in="SourceAlpha" type="matrix" values="0 0 0 0 0 0 0 0 0 0 0 0 0 0 0 0 0 0 127 0"/>
<feOffset dy="2"/>
<feGaussianBlur stdDeviation="2"/>
<feColorMatrix type="matrix" values="0 0 0 0 0.109219 0 0 0 0 0.491032 0 0 0 0 0.970833 0 0 0 0.28 0"/>
<feBlend mode="normal" in2="BackgroundImageFix" result="effect1_dropShadow"/>
<feBlend mode="normal" in="SourceGraphic" in2="effect1_dropShadow" result="shape"/>
</filter>
<filter id="filter2_d" x="35.2444" y="31.2024" width="10.6195" height="10.6195" filterUnits="userSpaceOnUse" color-interpolation-filters="sRGB">
<feFlood flood-opacity="0" result="BackgroundImageFix"/>
<feColorMatrix in="SourceAlpha" type="matrix" values="0 0 0 0 0 0 0 0 0 0 0 0 0 0 0 0 0 0 127 0"/>
<feOffset dy="2.34104"/>
<feGaussianBlur stdDeviation="1.17052"/>
<feColorMatrix type="matrix" values="0 0 0 0 0.956863 0 0 0 0 0.14902 0 0 0 0 0.243137 0 0 0 0.12 0"/>
<feBlend mode="normal" in2="BackgroundImageFix" result="effect1_dropShadow"/>
<feBlend mode="normal" in="SourceGraphic" in2="effect1_dropShadow" result="shape"/>
</filter>
<filter id="filter3_d" x="43.7581" y="31.2024" width="10.6195" height="10.6195" filterUnits="userSpaceOnUse" color-interpolation-filters="sRGB">
<feFlood flood-opacity="0" result="BackgroundImageFix"/>
<feColorMatrix in="SourceAlpha" type="matrix" values="0 0 0 0 0 0 0 0 0 0 0 0 0 0 0 0 0 0 127 0"/>
<feOffset dy="2.34104"/>
<feGaussianBlur stdDeviation="1.17052"/>
<feColorMatrix type="matrix" values="0 0 0 0 1 0 0 0 0 0.80475 0 0 0 0 0.1125 0 0 0 0.25 0"/>
<feBlend mode="normal" in2="BackgroundImageFix" result="effect1_dropShadow"/>
<feBlend mode="normal" in="SourceGraphic" in2="effect1_dropShadow" result="shape"/>
</filter>
<filter id="filter4_d" x="52.2713" y="31.2024" width="10.6195" height="10.6195" filterUnits="userSpaceOnUse" color-interpolation-filters="sRGB">
<feFlood flood-opacity="0" result="BackgroundImageFix"/>
<feColorMatrix in="SourceAlpha" type="matrix" values="0 0 0 0 0 0 0 0 0 0 0 0 0 0 0 0 0 0 127 0"/>
<feOffset dy="2.34104"/>
<feGaussianBlur stdDeviation="1.17052"/>
<feColorMatrix type="matrix" values="0 0 0 0 0.513726 0 0 0 0 0.894118 0 0 0 0 0.211765 0 0 0 0.25 0"/>
<feBlend mode="normal" in2="BackgroundImageFix" result="effect1_dropShadow"/>
<feBlend mode="normal" in="SourceGraphic" in2="effect1_dropShadow" result="shape"/>
</filter>
<filter id="filter5_d" x="32.7568" y="63.6459" width="25.2853" height="14" filterUnits="userSpaceOnUse" color-interpolation-filters="sRGB">
<feFlood flood-opacity="0" result="BackgroundImageFix"/>
<feColorMatrix in="SourceAlpha" type="matrix" values="0 0 0 0 0 0 0 0 0 0 0 0 0 0 0 0 0 0 127 0"/>
<feOffset dy="2"/>
<feGaussianBlur stdDeviation="2"/>
<feColorMatrix type="matrix" values="0 0 0 0 0.109219 0 0 0 0 0.491032 0 0 0 0 0.970833 0 0 0 0.28 0"/>
<feBlend mode="normal" in2="BackgroundImageFix" result="effect1_dropShadow"/>
<feBlend mode="normal" in="SourceGraphic" in2="effect1_dropShadow" result="shape"/>
</filter>
<filter id="filter6_d" x="76.436" y="39.948" width="44.5212" height="46.5863" filterUnits="userSpaceOnUse" color-interpolation-filters="sRGB">
<feFlood flood-opacity="0" result="BackgroundImageFix"/>
<feColorMatrix in="SourceAlpha" type="matrix" values="0 0 0 0 0 0 0 0 0 0 0 0 0 0 0 0 0 0 127 0"/>
<feOffset dy="3"/>
<feGaussianBlur stdDeviation="3"/>
<feColorMatrix type="matrix" values="0 0 0 0 0.109219 0 0 0 0 0.491032 0 0 0 0 0.970833 0 0 0 0.22 0"/>
<feBlend mode="normal" in2="BackgroundImageFix" result="effect1_dropShadow"/>
<feBlend mode="normal" in="SourceGraphic" in2="effect1_dropShadow" result="shape"/>
</filter>
<filter id="filter7_d" x="58.3223" y="79.8059" width="35.07" height="36.5083" filterUnits="userSpaceOnUse" color-interpolation-filters="sRGB">
<feFlood flood-opacity="0" result="BackgroundImageFix"/>
<feColorMatrix in="SourceAlpha" type="matrix" values="0 0 0 0 0 0 0 0 0 0 0 0 0 0 0 0 0 0 127 0"/>
<feOffset dy="3"/>
<feGaussianBlur stdDeviation="3"/>
<feColorMatrix type="matrix" values="0 0 0 0 0.44795 0 0 0 0 0.85 0 0 0 0 0.3825 0 0 0 0.25 0"/>
<feBlend mode="normal" in2="BackgroundImageFix" result="effect1_dropShadow"/>
<feBlend mode="normal" in="SourceGraphic" in2="effect1_dropShadow" result="shape"/>
</filter>
</defs>
</svg>
