<svg width="128" height="136" viewBox="0 0 128 136" fill="none" xmlns="http://www.w3.org/2000/svg">
<g filter="url(#filter0_d)">
<path d="M98.1712 12H29.7993C22.6196 12 16.7993 17.8203 16.7993 25V102.91C16.7993 110.09 22.6196 115.91 29.7993 115.91H98.1712C105.351 115.91 111.171 110.09 111.171 102.91V25C111.171 17.8203 105.351 12 98.1712 12Z" fill="white" fill-opacity="0.01"/>
</g>
<path d="M98.1712 12H29.7993C22.6196 12 16.7993 17.8203 16.7993 25V102.91C16.7993 110.09 22.6196 115.91 29.7993 115.91H98.1712C105.351 115.91 111.171 110.09 111.171 102.91V25C111.171 17.8203 105.351 12 98.1712 12Z" fill="white"/>
<g filter="url(#filter1_d)">
<path d="M28.8648 28.119C30.7741 28.119 32.3219 26.5712 32.3219 24.6619C32.3219 22.7526 30.7741 21.2048 28.8648 21.2048C26.9555 21.2048 25.4077 22.7526 25.4077 24.6619C25.4077 26.5712 26.9555 28.119 28.8648 28.119Z" fill="#F4263E" fill-opacity="0.01"/>
</g>
<path d="M28.8648 28.119C30.7741 28.119 32.3219 26.5712 32.3219 24.6619C32.3219 22.7526 30.7741 21.2048 28.8648 21.2048C26.9555 21.2048 25.4077 22.7526 25.4077 24.6619C25.4077 26.5712 26.9555 28.119 28.8648 28.119Z" fill="#F4263E"/>
<g filter="url(#filter2_d)">
<path d="M38.7789 28.119C40.6882 28.119 42.236 26.5712 42.236 24.6619C42.236 22.7526 40.6882 21.2048 38.7789 21.2048C36.8696 21.2048 35.3218 22.7526 35.3218 24.6619C35.3218 26.5712 36.8696 28.119 38.7789 28.119Z" fill="#FFCD1D" fill-opacity="0.01"/>
</g>
<path d="M38.7789 28.119C40.6882 28.119 42.236 26.5712 42.236 24.6619C42.236 22.7526 40.6882 21.2048 38.7789 21.2048C36.8696 21.2048 35.3218 22.7526 35.3218 24.6619C35.3218 26.5712 36.8696 28.119 38.7789 28.119Z" fill="#FFCD1D"/>
<g filter="url(#filter3_d)">
<path d="M48.6929 28.119C50.6022 28.119 52.15 26.5712 52.15 24.6619C52.15 22.7526 50.6022 21.2048 48.6929 21.2048C46.7836 21.2048 45.2358 22.7526 45.2358 24.6619C45.2358 26.5712 46.7836 28.119 48.6929 28.119Z" fill="#83E436" fill-opacity="0.01"/>
</g>
<path d="M48.6929 28.119C50.6022 28.119 52.15 26.5712 52.15 24.6619C52.15 22.7526 50.6022 21.2048 48.6929 21.2048C46.7836 21.2048 45.2358 22.7526 45.2358 24.6619C45.2358 26.5712 46.7836 28.119 48.6929 28.119Z" fill="#83E436"/>
<path d="M62.8029 39.385H27.9077C26.527 39.385 25.4077 40.5043 25.4077 41.885C25.4077 43.2657 26.527 44.385 27.9077 44.385H62.8029C64.1836 44.385 65.3029 43.2657 65.3029 41.885C65.3029 40.5043 64.1836 39.385 62.8029 39.385Z" fill="#B4C2D6"/>
<path d="M100.063 39.385H86.1475C84.7667 39.385 83.6475 40.5043 83.6475 41.885C83.6475 43.2657 84.7667 44.385 86.1475 44.385H100.063C101.443 44.385 102.563 43.2657 102.563 41.885C102.563 40.5043 101.443 39.385 100.063 39.385Z" fill="#DCE3ED"/>
<path d="M55.2442 50.385H27.9077C26.527 50.385 25.4077 51.5043 25.4077 52.885C25.4077 54.2657 26.527 55.385 27.9077 55.385H55.2442C56.6249 55.385 57.7442 54.2657 57.7442 52.885C57.7442 51.5043 56.6249 50.385 55.2442 50.385Z" fill="#B4C2D6"/>
<path d="M100.063 50.385H90.2725C88.8917 50.385 87.7725 51.5043 87.7725 52.885C87.7725 54.2657 88.8917 55.385 90.2725 55.385H100.063C101.444 55.385 102.563 54.2657 102.563 52.885C102.563 51.5043 101.444 50.385 100.063 50.385Z" fill="#DCE3ED"/>
<path d="M62.8029 61.385H27.9077C26.527 61.385 25.4077 62.5043 25.4077 63.885C25.4077 65.2657 26.527 66.385 27.9077 66.385H62.8029C64.1836 66.385 65.3029 65.2657 65.3029 63.885C65.3029 62.5043 64.1836 61.385 62.8029 61.385Z" fill="#B4C2D6"/>
<path d="M100.063 61.385H86.1475C84.7667 61.385 83.6475 62.5043 83.6475 63.885C83.6475 65.2657 84.7667 66.385 86.1475 66.385H100.063C101.443 66.385 102.563 65.2657 102.563 63.885C102.563 62.5043 101.443 61.385 100.063 61.385Z" fill="#DCE3ED"/>
<path d="M42.6967 72.385H27.9077C26.527 72.385 25.4077 73.5043 25.4077 74.885C25.4077 76.2657 26.527 77.385 27.9077 77.385H42.6967C44.0774 77.385 45.1967 76.2657 45.1967 74.885C45.1967 73.5043 44.0774 72.385 42.6967 72.385Z" fill="#B4C2D6"/>
<path d="M100.063 72.385H90.2725C88.8917 72.385 87.7725 73.5043 87.7725 74.885C87.7725 76.2657 88.8917 77.385 90.2725 77.385H100.063C101.444 77.385 102.563 76.2657 102.563 74.885C102.563 73.5043 101.444 72.385 100.063 72.385Z" fill="#DCE3ED"/>
<path d="M62.8029 83.385H27.9077C26.527 83.385 25.4077 84.5043 25.4077 85.885C25.4077 87.2657 26.527 88.385 27.9077 88.385H62.8029C64.1836 88.385 65.3029 87.2657 65.3029 85.885C65.3029 84.5043 64.1836 83.385 62.8029 83.385Z" fill="#B4C2D6"/>
<path d="M100.063 83.385H86.1475C84.7667 83.385 83.6475 84.5043 83.6475 85.885C83.6475 87.2657 84.7667 88.385 86.1475 88.385H100.063C101.443 88.385 102.563 87.2657 102.563 85.885C102.563 84.5043 101.443 83.385 100.063 83.385Z" fill="#DCE3ED"/>
<path d="M51.9579 94.385H27.9077C26.527 94.385 25.4077 95.5043 25.4077 96.885C25.4077 98.2657 26.527 99.385 27.9077 99.385H51.9579C53.3386 99.385 54.4579 98.2657 54.4579 96.885C54.4579 95.5043 53.3386 94.385 51.9579 94.385Z" fill="#B4C2D6"/>
<path d="M100.063 94.385H90.2725C88.8917 94.385 87.7725 95.5043 87.7725 96.885C87.7725 98.2657 88.8917 99.385 90.2725 99.385H100.063C101.444 99.385 102.563 98.2657 102.563 96.885C102.563 95.5043 101.444 94.385 100.063 94.385Z" fill="#DCE3ED"/>
<g filter="url(#filter4_d)">
<path d="M69.8538 39.7128C70.3157 38.9128 71.4704 38.9128 71.9322 39.7128L74.0231 43.3343C74.485 44.1343 73.9076 45.1343 72.9839 45.1343H68.8022C67.8784 45.1343 67.3011 44.1343 67.7629 43.3343L69.8538 39.7128Z" fill="#72D962" fill-opacity="0.01"/>
</g>
<path d="M69.8538 39.7128C70.3157 38.9128 71.4704 38.9128 71.9322 39.7128L74.0231 43.3343C74.485 44.1343 73.9076 45.1343 72.9839 45.1343H68.8022C67.8784 45.1343 67.3011 44.1343 67.7629 43.3343L69.8538 39.7128Z" fill="#72D962"/>
<g filter="url(#filter5_d)">
<path d="M49.9719 71.8706C50.4338 71.0706 51.5885 71.0706 52.0504 71.8706L54.1412 75.492C54.6031 76.292 54.0258 77.292 53.102 77.292H48.9203C47.9966 77.292 47.4192 76.292 47.8811 75.492L49.9719 71.8706Z" fill="#72D962" fill-opacity="0.01"/>
</g>
<path d="M49.9719 71.8705C50.4338 71.0705 51.5885 71.0705 52.0504 71.8705L54.1412 75.4919C54.6031 76.2919 54.0258 77.2919 53.102 77.2919H48.9203C47.9966 77.2919 47.4192 76.2919 47.8811 75.4919L49.9719 71.8705Z" fill="#72D962"/>
<g filter="url(#filter6_d)">
<path d="M78.8104 98.3232C92.2599 98.3232 103.163 87.4203 103.163 73.9708C103.163 60.5213 92.2599 49.6184 78.8104 49.6184C65.3609 49.6184 54.458 60.5213 54.458 73.9708C54.458 87.4203 65.3609 98.3232 78.8104 98.3232Z" fill="#EFF6FF" fill-opacity="0.01" stroke="#1C7DF8" stroke-opacity="0.01" stroke-width="6.56288" stroke-linecap="round" stroke-linejoin="round"/>
<path d="M96.0288 91.1895L114.916 110.079" stroke="#1C7DF8" stroke-opacity="0.01" stroke-width="6.56288" stroke-linecap="round" stroke-linejoin="round"/>
</g>
<path d="M78.8104 98.3232C92.2599 98.3232 103.163 87.4203 103.163 73.9708C103.163 60.5213 92.2599 49.6184 78.8104 49.6184C65.3609 49.6184 54.458 60.5213 54.458 73.9708C54.458 87.4203 65.3609 98.3232 78.8104 98.3232Z" fill="#EFF6FF" fill-opacity="0.5" stroke="#1C7DF8" stroke-width="6.56288" stroke-linecap="round" stroke-linejoin="round"/>
<path d="M96.0288 91.1895L114.916 110.079" stroke="#1C7DF8" stroke-width="6.56288" stroke-linecap="round" stroke-linejoin="round"/>
<defs>
<filter id="filter0_d" x="0.799316" y="0" width="126.372" height="135.91" filterUnits="userSpaceOnUse" color-interpolation-filters="sRGB">
<feFlood flood-opacity="0" result="BackgroundImageFix"/>
<feColorMatrix in="SourceAlpha" type="matrix" values="0 0 0 0 0 0 0 0 0 0 0 0 0 0 0 0 0 0 127 0"/>
<feOffset dy="4"/>
<feGaussianBlur stdDeviation="8"/>
<feColorMatrix type="matrix" values="0 0 0 0 0.109219 0 0 0 0 0.491032 0 0 0 0 0.970833 0 0 0 0.13 0"/>
<feBlend mode="normal" in2="BackgroundImageFix" result="effect1_dropShadow"/>
<feBlend mode="normal" in="SourceGraphic" in2="effect1_dropShadow" result="shape"/>
</filter>
<filter id="filter1_d" x="23.0667" y="21.2048" width="11.5963" height="11.5963" filterUnits="userSpaceOnUse" color-interpolation-filters="sRGB">
<feFlood flood-opacity="0" result="BackgroundImageFix"/>
<feColorMatrix in="SourceAlpha" type="matrix" values="0 0 0 0 0 0 0 0 0 0 0 0 0 0 0 0 0 0 127 0"/>
<feOffset dy="2.34104"/>
<feGaussianBlur stdDeviation="1.17052"/>
<feColorMatrix type="matrix" values="0 0 0 0 0.956863 0 0 0 0 0.14902 0 0 0 0 0.243137 0 0 0 0.12 0"/>
<feBlend mode="normal" in2="BackgroundImageFix" result="effect1_dropShadow"/>
<feBlend mode="normal" in="SourceGraphic" in2="effect1_dropShadow" result="shape"/>
</filter>
<filter id="filter2_d" x="32.9807" y="21.2048" width="11.5963" height="11.5963" filterUnits="userSpaceOnUse" color-interpolation-filters="sRGB">
<feFlood flood-opacity="0" result="BackgroundImageFix"/>
<feColorMatrix in="SourceAlpha" type="matrix" values="0 0 0 0 0 0 0 0 0 0 0 0 0 0 0 0 0 0 127 0"/>
<feOffset dy="2.34104"/>
<feGaussianBlur stdDeviation="1.17052"/>
<feColorMatrix type="matrix" values="0 0 0 0 1 0 0 0 0 0.80475 0 0 0 0 0.1125 0 0 0 0.25 0"/>
<feBlend mode="normal" in2="BackgroundImageFix" result="effect1_dropShadow"/>
<feBlend mode="normal" in="SourceGraphic" in2="effect1_dropShadow" result="shape"/>
</filter>
<filter id="filter3_d" x="42.8948" y="21.2048" width="11.5963" height="11.5963" filterUnits="userSpaceOnUse" color-interpolation-filters="sRGB">
<feFlood flood-opacity="0" result="BackgroundImageFix"/>
<feColorMatrix in="SourceAlpha" type="matrix" values="0 0 0 0 0 0 0 0 0 0 0 0 0 0 0 0 0 0 127 0"/>
<feOffset dy="2.34104"/>
<feGaussianBlur stdDeviation="1.17052"/>
<feColorMatrix type="matrix" values="0 0 0 0 0.513726 0 0 0 0 0.894118 0 0 0 0 0.211765 0 0 0 0.25 0"/>
<feBlend mode="normal" in2="BackgroundImageFix" result="effect1_dropShadow"/>
<feBlend mode="normal" in="SourceGraphic" in2="effect1_dropShadow" result="shape"/>
</filter>
<filter id="filter4_d" x="62.6003" y="37.1128" width="16.5853" height="16.0215" filterUnits="userSpaceOnUse" color-interpolation-filters="sRGB">
<feFlood flood-opacity="0" result="BackgroundImageFix"/>
<feColorMatrix in="SourceAlpha" type="matrix" values="0 0 0 0 0 0 0 0 0 0 0 0 0 0 0 0 0 0 127 0"/>
<feOffset dy="3"/>
<feGaussianBlur stdDeviation="2.5"/>
<feColorMatrix type="matrix" values="0 0 0 0 0.44795 0 0 0 0 0.85 0 0 0 0 0.3825 0 0 0 0.4 0"/>
<feBlend mode="normal" in2="BackgroundImageFix" result="effect1_dropShadow"/>
<feBlend mode="normal" in="SourceGraphic" in2="effect1_dropShadow" result="shape"/>
</filter>
<filter id="filter5_d" x="42.7185" y="69.2706" width="16.5852" height="16.0214" filterUnits="userSpaceOnUse" color-interpolation-filters="sRGB">
<feFlood flood-opacity="0" result="BackgroundImageFix"/>
<feColorMatrix in="SourceAlpha" type="matrix" values="0 0 0 0 0 0 0 0 0 0 0 0 0 0 0 0 0 0 127 0"/>
<feOffset dy="3"/>
<feGaussianBlur stdDeviation="2.5"/>
<feColorMatrix type="matrix" values="0 0 0 0 0.44795 0 0 0 0 0.85 0 0 0 0 0.3825 0 0 0 0.4 0"/>
<feBlend mode="normal" in2="BackgroundImageFix" result="effect1_dropShadow"/>
<feBlend mode="normal" in="SourceGraphic" in2="effect1_dropShadow" result="shape"/>
</filter>
<filter id="filter6_d" x="45.0074" y="45.3994" width="79.3591" height="79.3617" filterUnits="userSpaceOnUse" color-interpolation-filters="sRGB">
<feFlood flood-opacity="0" result="BackgroundImageFix"/>
<feColorMatrix in="SourceAlpha" type="matrix" values="0 0 0 0 0 0 0 0 0 0 0 0 0 0 0 0 0 0 127 0"/>
<feOffset dy="5.23155"/>
<feGaussianBlur stdDeviation="3.08455"/>
<feColorMatrix type="matrix" values="0 0 0 0 0.109219 0 0 0 0 0.491032 0 0 0 0 0.970833 0 0 0 0.15 0"/>
<feBlend mode="normal" in2="BackgroundImageFix" result="effect1_dropShadow"/>
<feBlend mode="normal" in="SourceGraphic" in2="effect1_dropShadow" result="shape"/>
</filter>
</defs>
</svg>
