<svg width="37" height="36" viewBox="0 0 37 36" fill="none" xmlns="http://www.w3.org/2000/svg">
<g filter="url(#filter0_d)">
<path d="M26.0036 17.3467C25.1738 16.5209 24.0507 16.0574 22.88 16.0574C21.7093 16.0574 20.5862 16.5209 19.7563 17.3467L18.5835 18.5209C17.6723 19.2803 17.005 20.2912 16.6649 21.4275C16.3248 22.5638 16.3269 23.7751 16.671 24.9102C12.812 23.278 9.7409 20.2064 8.10931 16.3471C9.244 16.6935 10.4557 16.697 11.5924 16.3572C12.7291 16.0175 13.7401 15.3496 14.4986 14.4374L15.6799 13.259C16.5057 12.4291 16.9693 11.306 16.9693 10.1353C16.9693 8.96458 16.5057 7.84149 15.6799 7.01163L10.5756 1.92715C10.2053 1.5575 9.74934 1.28518 9.24831 1.13446C8.74728 0.983741 8.21675 0.959299 7.70399 1.06331C7.19122 1.16733 6.71215 1.39657 6.30945 1.73061C5.90676 2.06465 5.59295 2.49312 5.39598 2.97784C4.38041 5.4726 3.90937 8.15549 4.01438 10.847C4.11939 13.5385 4.79802 16.1765 6.00487 18.5846C7.21172 20.9926 8.91895 23.1152 11.0123 24.8101C13.1057 26.5051 15.5369 27.7335 18.1434 28.413C22.093 29.4097 26.2567 29.1319 30.0389 27.6193C30.5239 27.4224 30.9526 27.1085 31.2867 26.7055C31.6209 26.3026 31.8501 25.8232 31.9539 25.3101C32.0576 24.7971 32.0327 24.2663 31.8814 23.7652C31.7301 23.264 31.4571 22.8082 31.0867 22.4383L26.0036 17.3467Z" fill="#72D962" fill-opacity="0.01"/>
</g>
<path d="M26.0036 17.3467C25.1738 16.5209 24.0507 16.0574 22.88 16.0574C21.7093 16.0574 20.5862 16.5209 19.7563 17.3467L18.5835 18.5209C17.6723 19.2803 17.005 20.2912 16.6649 21.4275C16.3248 22.5638 16.3269 23.7751 16.671 24.9102C12.812 23.278 9.7409 20.2064 8.10931 16.3471C9.244 16.6935 10.4557 16.697 11.5924 16.3572C12.7291 16.0175 13.7401 15.3496 14.4986 14.4374L15.6799 13.259C16.5057 12.4291 16.9693 11.306 16.9693 10.1353C16.9693 8.96458 16.5057 7.84149 15.6799 7.01163L10.5756 1.92715C10.2053 1.5575 9.74934 1.28518 9.24831 1.13446C8.74728 0.983741 8.21675 0.959299 7.70399 1.06331C7.19122 1.16733 6.71215 1.39657 6.30945 1.73061C5.90676 2.06465 5.59295 2.49312 5.39598 2.97784C4.38041 5.4726 3.90937 8.15549 4.01438 10.847C4.11939 13.5385 4.79802 16.1765 6.00487 18.5846C7.21172 20.9926 8.91895 23.1152 11.0123 24.8101C13.1057 26.5051 15.5369 27.7335 18.1434 28.413C22.093 29.4097 26.2567 29.1319 30.0389 27.6193C30.5239 27.4224 30.9526 27.1085 31.2867 26.7055C31.6209 26.3026 31.8501 25.8232 31.9539 25.3101C32.0576 24.7971 32.0327 24.2663 31.8814 23.7652C31.7301 23.264 31.4571 22.8082 31.0867 22.4383L26.0036 17.3467Z" fill="#72D962"/>
<defs>
<filter id="filter0_d" x="0" y="0" width="36.0168" height="36" filterUnits="userSpaceOnUse" color-interpolation-filters="sRGB">
<feFlood flood-opacity="0" result="BackgroundImageFix"/>
<feColorMatrix in="SourceAlpha" type="matrix" values="0 0 0 0 0 0 0 0 0 0 0 0 0 0 0 0 0 0 127 0"/>
<feOffset dy="3"/>
<feGaussianBlur stdDeviation="2"/>
<feColorMatrix type="matrix" values="0 0 0 0 0.44795 0 0 0 0 0.85 0 0 0 0 0.3825 0 0 0 0.3 0"/>
<feBlend mode="normal" in2="BackgroundImageFix" result="effect1_dropShadow"/>
<feBlend mode="normal" in="SourceGraphic" in2="effect1_dropShadow" result="shape"/>
</filter>
</defs>
</svg>
