<svg width="128" height="128" viewBox="0 0 128 128" fill="none" xmlns="http://www.w3.org/2000/svg">
<g filter="url(#filter0_d)">
<path d="M95.4565 14H32.5442C24.6958 14 18.3335 20.3623 18.3335 28.2107V91.123C18.3335 98.9714 24.6958 105.334 32.5442 105.334H95.4565C103.305 105.334 109.667 98.9714 109.667 91.123V28.2107C109.667 20.3623 103.305 14 95.4565 14Z" fill="white" fill-opacity="0.01"/>
</g>
<path d="M95.4565 14H32.5442C24.6958 14 18.3335 20.3623 18.3335 28.2107V91.123C18.3335 98.9714 24.6958 105.334 32.5442 105.334H95.4565C103.305 105.334 109.667 98.9714 109.667 91.123V28.2107C109.667 20.3623 103.305 14 95.4565 14Z" fill="white"/>
<g filter="url(#filter1_d)">
<path fill-rule="evenodd" clip-rule="evenodd" d="M55.9677 57.3153L36.224 83.4097C34.9329 85.1161 32.503 85.4527 30.7966 84.1616C29.0903 82.8706 28.7536 80.4407 30.0447 78.7343L52.0854 49.6042C52.6989 48.7933 53.5697 48.2918 54.4977 48.1272C55.5221 47.9341 56.621 48.1525 57.5243 48.8225L69.6392 57.8077C71.3579 59.0823 71.7178 61.5089 70.4431 63.2275C69.1685 64.9462 66.7419 65.3061 65.0232 64.0314L55.9677 57.3153Z" fill="#72D962" fill-opacity="0.01"/>
</g>
<path fill-rule="evenodd" clip-rule="evenodd" d="M55.9677 57.3154L36.224 83.4098C34.9329 85.1162 32.503 85.4528 30.7966 84.1617C29.0903 82.8707 28.7536 80.4408 30.0447 78.7344L52.0854 49.6043C52.6989 48.7934 53.5697 48.2919 54.4977 48.1273C55.5221 47.9342 56.621 48.1526 57.5243 48.8226L69.6392 57.8078C71.3579 59.0824 71.7178 61.509 70.4431 63.2276C69.1685 64.9463 66.7419 65.3062 65.0232 64.0315L55.9677 57.3154Z" fill="#72D962"/>
<g filter="url(#filter2_d)">
<path d="M94.7541 81.9213L84.4637 71.6308C82.2622 69.4293 78.6929 69.4293 76.4914 71.6308L76.4914 71.6308C74.2899 73.8323 74.2899 77.4016 76.4914 79.6031L86.7819 89.8936C88.9833 92.095 92.5526 92.095 94.7541 89.8936L94.7541 89.8935C96.9556 87.6921 96.9556 84.1228 94.7541 81.9213Z" fill="#1C7DF8" fill-opacity="0.01"/>
<path fill-rule="evenodd" clip-rule="evenodd" d="M60.8671 83.914C76.2693 83.914 88.7553 71.428 88.7553 56.0258C88.7553 40.6236 76.2693 28.1377 60.8671 28.1377C45.465 28.1377 32.979 40.6236 32.979 56.0258C32.979 71.428 45.465 83.914 60.8671 83.914ZM60.8673 75.6028C71.6795 75.6028 80.4445 66.8378 80.4445 56.0256C80.4445 45.2134 71.6795 36.4484 60.8673 36.4484C50.0551 36.4484 41.2901 45.2134 41.2901 56.0256C41.2901 66.8378 50.0551 75.6028 60.8673 75.6028Z" fill="#1C7DF8" fill-opacity="0.01"/>
</g>
<path d="M94.7541 81.9213L84.4637 71.6308C82.2622 69.4293 78.6929 69.4293 76.4914 71.6308L76.4914 71.6308C74.2899 73.8323 74.2899 77.4016 76.4914 79.6031L86.7819 89.8936C88.9833 92.095 92.5526 92.095 94.7541 89.8936L94.7541 89.8935C96.9556 87.6921 96.9556 84.1228 94.7541 81.9213Z" fill="#1C7DF8"/>
<path fill-rule="evenodd" clip-rule="evenodd" d="M60.8671 83.914C76.2693 83.914 88.7553 71.428 88.7553 56.0258C88.7553 40.6236 76.2693 28.1377 60.8671 28.1377C45.465 28.1377 32.979 40.6236 32.979 56.0258C32.979 71.428 45.465 83.914 60.8671 83.914ZM60.8673 75.6028C71.6795 75.6028 80.4445 66.8378 80.4445 56.0256C80.4445 45.2134 71.6795 36.4484 60.8673 36.4484C50.0551 36.4484 41.2901 45.2134 41.2901 56.0256C41.2901 66.8378 50.0551 75.6028 60.8673 75.6028Z" fill="#1C7DF8"/>
<g filter="url(#filter3_d)">
<path d="M87.7958 28.5069L64.3799 58.4779C63.0626 60.164 63.3615 62.5988 65.0477 63.9162L65.0477 63.9162C66.7338 65.2335 69.1686 64.9346 70.486 63.2484L93.9019 33.2775C95.2192 31.5913 94.9203 29.1565 93.2341 27.8391C91.548 26.5218 89.1132 26.8207 87.7958 28.5069Z" fill="#72D962" fill-opacity="0.01"/>
</g>
<path d="M87.7958 28.5069L64.3799 58.4779C63.0626 60.164 63.3615 62.5988 65.0477 63.9162L65.0477 63.9162C66.7338 65.2335 69.1686 64.9346 70.486 63.2484L93.9019 33.2775C95.2192 31.5913 94.9203 29.1565 93.2341 27.8391C91.548 26.5218 89.1132 26.8207 87.7958 28.5069Z" fill="#72D962"/>
<path d="M81.9941 28.3135L92.9792 27.3639C93.4878 27.3199 93.9478 27.6661 94.0465 28.1669L95.9507 37.8353" stroke="#72D962" stroke-width="7" stroke-linecap="round"/>
<defs>
<filter id="filter0_d" x="0.843336" y="0.88238" width="126.314" height="126.314" filterUnits="userSpaceOnUse" color-interpolation-filters="sRGB">
<feFlood flood-opacity="0" result="BackgroundImageFix"/>
<feColorMatrix in="SourceAlpha" type="matrix" values="0 0 0 0 0 0 0 0 0 0 0 0 0 0 0 0 0 0 127 0"/>
<feOffset dy="4.37254"/>
<feGaussianBlur stdDeviation="8.74508"/>
<feColorMatrix type="matrix" values="0 0 0 0 0.0772917 0 0 0 0 0.434479 0 0 0 0 0.883333 0 0 0 0.18 0"/>
<feBlend mode="normal" in2="BackgroundImageFix" result="effect1_dropShadow"/>
<feBlend mode="normal" in="SourceGraphic" in2="effect1_dropShadow" result="shape"/>
</filter>
<filter id="filter1_d" x="25.2598" y="46.0598" width="49.9461" height="44.8868" filterUnits="userSpaceOnUse" color-interpolation-filters="sRGB">
<feFlood flood-opacity="0" result="BackgroundImageFix"/>
<feColorMatrix in="SourceAlpha" type="matrix" values="0 0 0 0 0 0 0 0 0 0 0 0 0 0 0 0 0 0 127 0"/>
<feOffset dy="2"/>
<feGaussianBlur stdDeviation="2"/>
<feColorMatrix type="matrix" values="0 0 0 0 0.44795 0 0 0 0 0.85 0 0 0 0 0.3825 0 0 0 0.3 0"/>
<feBlend mode="normal" in2="BackgroundImageFix" result="effect1_dropShadow"/>
<feBlend mode="normal" in="SourceGraphic" in2="effect1_dropShadow" result="shape"/>
</filter>
<filter id="filter2_d" x="26.979" y="27.1377" width="75.4263" height="75.407" filterUnits="userSpaceOnUse" color-interpolation-filters="sRGB">
<feFlood flood-opacity="0" result="BackgroundImageFix"/>
<feColorMatrix in="SourceAlpha" type="matrix" values="0 0 0 0 0 0 0 0 0 0 0 0 0 0 0 0 0 0 127 0"/>
<feOffset dy="5"/>
<feGaussianBlur stdDeviation="3"/>
<feColorMatrix type="matrix" values="0 0 0 0 0.109219 0 0 0 0 0.491032 0 0 0 0 0.970833 0 0 0 0.14 0"/>
<feBlend mode="normal" in2="BackgroundImageFix" result="effect1_dropShadow"/>
<feBlend mode="normal" in="SourceGraphic" in2="effect1_dropShadow" result="shape"/>
</filter>
<filter id="filter3_d" x="59.5585" y="25.0176" width="39.1649" height="45.72" filterUnits="userSpaceOnUse" color-interpolation-filters="sRGB">
<feFlood flood-opacity="0" result="BackgroundImageFix"/>
<feColorMatrix in="SourceAlpha" type="matrix" values="0 0 0 0 0 0 0 0 0 0 0 0 0 0 0 0 0 0 127 0"/>
<feOffset dy="2"/>
<feGaussianBlur stdDeviation="2"/>
<feColorMatrix type="matrix" values="0 0 0 0 0.44795 0 0 0 0 0.85 0 0 0 0 0.3825 0 0 0 0.3 0"/>
<feBlend mode="normal" in2="BackgroundImageFix" result="effect1_dropShadow"/>
<feBlend mode="normal" in="SourceGraphic" in2="effect1_dropShadow" result="shape"/>
</filter>
</defs>
</svg>
