<svg width="115" height="142" viewBox="0 0 115 142" fill="none" xmlns="http://www.w3.org/2000/svg">
<g filter="url(#filter0_d)">
<path d="M83.1574 14.5H32.177C24.3287 14.5 17.9663 20.8623 17.9663 28.7107V104.784C17.9663 112.633 24.3287 118.995 32.177 118.995H83.1574C91.0058 118.995 97.3681 112.633 97.3681 104.784V28.7107C97.3681 20.8623 91.0058 14.5 83.1574 14.5Z" fill="white" fill-opacity="0.01"/>
</g>
<path d="M83.1574 14.5H32.177C24.3287 14.5 17.9663 20.8623 17.9663 28.7107V104.784C17.9663 112.633 24.3287 118.995 32.177 118.995H83.1574C91.0058 118.995 97.3681 112.633 97.3681 104.784V28.7107C97.3681 20.8623 91.0058 14.5 83.1574 14.5Z" fill="white"/>
<g filter="url(#filter1_d)">
<path d="M36.3076 30.91C34.3003 30.91 32.338 31.5052 30.6689 32.6205C28.9998 33.7357 27.699 35.3208 26.9308 37.1754C26.1626 39.0299 25.9616 41.0706 26.3532 43.0394C26.7448 45.0082 27.7115 46.8167 29.1309 48.2361C30.5503 49.6555 32.3588 50.6222 34.3276 51.0138C36.2964 51.4054 38.3371 51.2044 40.1916 50.4362C42.0462 49.668 43.6313 48.3672 44.7466 46.6981C45.8618 45.029 46.457 43.0668 46.457 41.0594C46.4539 38.3686 45.3836 35.7888 43.4809 33.8861C41.5782 31.9834 38.9985 30.9131 36.3076 30.91ZM42.1664 37.8454L36.377 45.7019C36.3086 45.7926 36.2229 45.8687 36.1248 45.9259C36.0267 45.9831 35.9182 46.0202 35.8056 46.035C35.693 46.0498 35.5786 46.042 35.469 46.0122C35.3595 45.9823 35.257 45.9308 35.1675 45.8609L31.0333 42.5556C30.9466 42.4862 30.8743 42.4003 30.8208 42.303C30.7672 42.2057 30.7333 42.0987 30.7211 41.9883C30.6963 41.7653 30.7612 41.5416 30.9014 41.3664C31.0416 41.1912 31.2456 41.0789 31.4686 41.0542C31.5791 41.0419 31.6908 41.0515 31.7975 41.0825C31.9042 41.1134 32.0038 41.165 32.0905 41.2345L35.538 43.9926L40.8047 36.8448C40.8681 36.7497 40.9501 36.6684 41.0458 36.6059C41.1415 36.5433 41.2489 36.5008 41.3615 36.481C41.4741 36.4611 41.5896 36.4643 41.7009 36.4903C41.8122 36.5163 41.9172 36.5646 42.0093 36.6323C42.1014 36.7 42.1789 36.7857 42.237 36.8842C42.2951 36.9826 42.3326 37.0919 42.3473 37.2053C42.3619 37.3186 42.3535 37.4338 42.3224 37.5439C42.2913 37.6539 42.2382 37.7565 42.1664 37.8454Z" fill="#1C7DF8" fill-opacity="0.01"/>
</g>
<path d="M36.3076 30.9099C34.3003 30.9099 32.338 31.5051 30.6689 32.6204C28.9998 33.7356 27.699 35.3207 26.9308 37.1753C26.1626 39.0298 25.9616 41.0705 26.3532 43.0393C26.7448 45.0081 27.7115 46.8166 29.1309 48.236C30.5503 49.6554 32.3588 50.6221 34.3276 51.0137C36.2964 51.4053 38.3371 51.2043 40.1916 50.4361C42.0462 49.6679 43.6313 48.3671 44.7466 46.698C45.8618 45.0289 46.457 43.0667 46.457 41.0593C46.4539 38.3685 45.3836 35.7887 43.4809 33.886C41.5782 31.9833 38.9985 30.913 36.3076 30.9099ZM42.1664 37.8453L36.377 45.7018C36.3086 45.7925 36.2229 45.8686 36.1248 45.9258C36.0267 45.983 35.9182 46.0201 35.8056 46.0349C35.693 46.0497 35.5786 46.0419 35.469 46.0121C35.3595 45.9822 35.257 45.9307 35.1675 45.8608L31.0333 42.5555C30.9466 42.4861 30.8743 42.4002 30.8208 42.3029C30.7672 42.2056 30.7333 42.0986 30.7211 41.9882C30.6963 41.7652 30.7612 41.5415 30.9014 41.3663C31.0416 41.1911 31.2456 41.0788 31.4686 41.0541C31.5791 41.0418 31.6908 41.0514 31.7975 41.0824C31.9042 41.1133 32.0038 41.1649 32.0905 41.2344L35.538 43.9925L40.8047 36.8447C40.8681 36.7496 40.9501 36.6683 41.0458 36.6058C41.1415 36.5432 41.2489 36.5007 41.3615 36.4809C41.4741 36.461 41.5896 36.4642 41.7009 36.4902C41.8122 36.5162 41.9172 36.5645 42.0093 36.6322C42.1014 36.6999 42.1789 36.7856 42.237 36.8841C42.2951 36.9825 42.3326 37.0918 42.3473 37.2052C42.3619 37.3185 42.3535 37.4337 42.3224 37.5438C42.2913 37.6538 42.2382 37.7564 42.1664 37.8453Z" fill="#1C7DF8"/>
<g filter="url(#filter2_d)">
<path d="M36.3076 56.5981C34.3003 56.5981 32.338 57.1934 30.6689 58.3086C28.9998 59.4239 27.699 61.009 26.9308 62.8635C26.1626 64.7181 25.9616 66.7588 26.3532 68.7276C26.7448 70.6964 27.7115 72.5049 29.1309 73.9243C30.5503 75.3437 32.3588 76.3103 34.3276 76.702C36.2964 77.0936 38.3371 76.8926 40.1916 76.1244C42.0462 75.3562 43.6313 74.0553 44.7466 72.3863C45.8618 70.7172 46.457 68.7549 46.457 66.7476C46.4539 64.0567 45.3836 61.477 43.4809 59.5743C41.5782 57.6716 38.9985 56.6013 36.3076 56.5981ZM42.1664 63.5336L36.377 71.3901C36.3086 71.4808 36.2229 71.5569 36.1248 71.6141C36.0267 71.6713 35.9182 71.7084 35.8056 71.7232C35.693 71.738 35.5786 71.7302 35.469 71.7003C35.3595 71.6704 35.257 71.619 35.1675 71.5491L31.0333 68.2438C30.9466 68.1743 30.8743 68.0885 30.8208 67.9912C30.7672 67.8938 30.7333 67.7869 30.7211 67.6765C30.6963 67.4535 30.7612 67.2298 30.9014 67.0546C31.0416 66.8794 31.2456 66.7671 31.4686 66.7423C31.5791 66.7301 31.6908 66.7397 31.7975 66.7706C31.9042 66.8016 32.0038 66.8532 32.0905 66.9226L35.538 69.6807L40.8047 62.533C40.8681 62.4379 40.9501 62.3566 41.0458 62.294C41.1415 62.2315 41.2489 62.189 41.3615 62.1691C41.4741 62.1493 41.5896 62.1524 41.7009 62.1784C41.8122 62.2045 41.9172 62.2528 42.0093 62.3205C42.1014 62.3882 42.1789 62.4738 42.237 62.5723C42.2951 62.6708 42.3326 62.78 42.3473 62.8934C42.3619 63.0068 42.3535 63.122 42.3224 63.232C42.2913 63.3421 42.2382 63.4446 42.1664 63.5336Z" fill="#72D962" fill-opacity="0.01"/>
</g>
<path d="M36.3076 56.5981C34.3003 56.5981 32.338 57.1934 30.6689 58.3086C28.9998 59.4239 27.699 61.009 26.9308 62.8635C26.1626 64.7181 25.9616 66.7588 26.3532 68.7276C26.7448 70.6964 27.7115 72.5049 29.1309 73.9243C30.5503 75.3437 32.3588 76.3103 34.3276 76.702C36.2964 77.0936 38.3371 76.8926 40.1916 76.1244C42.0462 75.3562 43.6313 74.0553 44.7466 72.3863C45.8618 70.7172 46.457 68.7549 46.457 66.7476C46.4539 64.0567 45.3836 61.477 43.4809 59.5743C41.5782 57.6716 38.9985 56.6013 36.3076 56.5981ZM42.1664 63.5336L36.377 71.3901C36.3086 71.4808 36.2229 71.5569 36.1248 71.6141C36.0267 71.6713 35.9182 71.7084 35.8056 71.7232C35.693 71.738 35.5786 71.7302 35.469 71.7003C35.3595 71.6704 35.257 71.619 35.1675 71.5491L31.0333 68.2438C30.9466 68.1743 30.8743 68.0885 30.8208 67.9912C30.7672 67.8938 30.7333 67.7869 30.7211 67.6765C30.6963 67.4535 30.7612 67.2298 30.9014 67.0546C31.0416 66.8794 31.2456 66.7671 31.4686 66.7423C31.5791 66.7301 31.6908 66.7397 31.7975 66.7706C31.9042 66.8016 32.0038 66.8532 32.0905 66.9226L35.538 69.6807L40.8047 62.533C40.8681 62.4379 40.9501 62.3566 41.0458 62.294C41.1415 62.2315 41.2489 62.189 41.3615 62.1691C41.4741 62.1493 41.5896 62.1524 41.7009 62.1784C41.8122 62.2045 41.9172 62.2528 42.0093 62.3205C42.1014 62.3882 42.1789 62.4738 42.237 62.5723C42.2951 62.6708 42.3326 62.78 42.3473 62.8934C42.3619 63.0068 42.3535 63.122 42.3224 63.232C42.2913 63.3421 42.2382 63.4446 42.1664 63.5336Z" fill="#72D962"/>
<g filter="url(#filter3_d)">
<path d="M36.3076 82.2863C34.3003 82.2863 32.338 82.8815 30.6689 83.9967C28.9998 85.112 27.699 86.6971 26.9308 88.5517C26.1626 90.4062 25.9616 92.4469 26.3532 94.4157C26.7448 96.3845 27.7115 98.193 29.1309 99.6124C30.5503 101.032 32.3588 101.998 34.3276 102.39C36.2964 102.782 38.3371 102.581 40.1916 101.813C42.0462 101.044 43.6313 99.7434 44.7466 98.0744C45.8618 96.4053 46.457 94.443 46.457 92.4357C46.4539 89.7448 45.3836 87.1651 43.4809 85.2624C41.5782 83.3597 38.9985 82.2894 36.3076 82.2863ZM42.1664 89.2217L36.377 97.0782C36.3086 97.1689 36.2229 97.245 36.1248 97.3022C36.0267 97.3594 35.9182 97.3965 35.8056 97.4113C35.693 97.4261 35.5786 97.4183 35.469 97.3884C35.3595 97.3585 35.257 97.3071 35.1675 97.2372L31.0333 93.9319C30.9466 93.8624 30.8743 93.7766 30.8208 93.6793C30.7672 93.582 30.7333 93.475 30.7211 93.3646C30.6963 93.1416 30.7612 92.9179 30.9014 92.7427C31.0416 92.5675 31.2456 92.4552 31.4686 92.4304C31.5791 92.4182 31.6908 92.4278 31.7975 92.4587C31.9042 92.4897 32.0038 92.5413 32.0905 92.6107L35.538 95.3689L40.8047 88.2211C40.8681 88.126 40.9501 88.0447 41.0458 87.9821C41.1415 87.9196 41.2489 87.8771 41.3615 87.8572C41.4741 87.8374 41.5896 87.8405 41.7009 87.8665C41.8122 87.8926 41.9172 87.9409 42.0093 88.0086C42.1014 88.0763 42.1789 88.162 42.237 88.2604C42.2951 88.3589 42.3326 88.4682 42.3473 88.5815C42.3619 88.6949 42.3535 88.8101 42.3224 88.9201C42.2913 89.0302 42.2382 89.1328 42.1664 89.2217Z" fill="#1C7DF8" fill-opacity="0.01"/>
</g>
<path d="M36.3076 82.2864C34.3003 82.2864 32.338 82.8816 30.6689 83.9968C28.9998 85.1121 27.699 86.6972 26.9308 88.5518C26.1626 90.4063 25.9616 92.447 26.3532 94.4158C26.7448 96.3846 27.7115 98.1931 29.1309 99.6125C30.5503 101.032 32.3588 101.998 34.3276 102.39C36.2964 102.782 38.3371 102.581 40.1916 101.813C42.0462 101.044 43.6313 99.7435 44.7466 98.0745C45.8618 96.4054 46.457 94.4431 46.457 92.4358C46.4539 89.7449 45.3836 87.1652 43.4809 85.2625C41.5782 83.3598 38.9985 82.2895 36.3076 82.2864ZM42.1664 89.2218L36.377 97.0783C36.3086 97.169 36.2229 97.2451 36.1248 97.3023C36.0267 97.3595 35.9182 97.3966 35.8056 97.4114C35.693 97.4262 35.5786 97.4184 35.469 97.3885C35.3595 97.3586 35.257 97.3072 35.1675 97.2373L31.0333 93.932C30.9466 93.8625 30.8743 93.7767 30.8208 93.6794C30.7672 93.5821 30.7333 93.4751 30.7211 93.3647C30.6963 93.1417 30.7612 92.918 30.9014 92.7428C31.0416 92.5676 31.2456 92.4553 31.4686 92.4305C31.5791 92.4183 31.6908 92.4279 31.7975 92.4588C31.9042 92.4898 32.0038 92.5414 32.0905 92.6108L35.538 95.369L40.8047 88.2212C40.8681 88.1261 40.9501 88.0448 41.0458 87.9822C41.1415 87.9197 41.2489 87.8772 41.3615 87.8573C41.4741 87.8375 41.5896 87.8406 41.7009 87.8666C41.8122 87.8927 41.9172 87.941 42.0093 88.0087C42.1014 88.0764 42.1789 88.1621 42.237 88.2605C42.2951 88.359 42.3326 88.4683 42.3473 88.5816C42.3619 88.695 42.3535 88.8102 42.3224 88.9202C42.2913 89.0303 42.2382 89.1329 42.1664 89.2218Z" fill="#1C7DF8"/>
<path opacity="0.6" d="M84.89 36.7729H54.5991C52.2317 36.7729 50.3125 38.692 50.3125 41.0595C50.3125 43.4269 52.2317 45.346 54.5991 45.346H84.89C87.2574 45.346 89.1766 43.4269 89.1766 41.0595C89.1766 38.692 87.2574 36.7729 84.89 36.7729Z" fill="#B4C2D6"/>
<path opacity="0.6" d="M73.6498 62.4611H54.5991C52.2317 62.4611 50.3125 64.3802 50.3125 66.7477C50.3125 69.1151 52.2317 71.0342 54.5991 71.0342H73.6498C76.0172 71.0342 77.9364 69.1151 77.9364 66.7477C77.9364 64.3802 76.0172 62.4611 73.6498 62.4611Z" fill="#B4C2D6"/>
<path opacity="0.6" d="M84.89 88.1492H54.5991C52.2317 88.1492 50.3125 90.0684 50.3125 92.4358C50.3125 94.8032 52.2317 96.7223 54.5991 96.7223H84.89C87.2574 96.7223 89.1766 94.8032 89.1766 92.4358C89.1766 90.0684 87.2574 88.1492 84.89 88.1492Z" fill="#B4C2D6"/>
<defs>
<filter id="filter0_d" x="0.476149" y="1.38238" width="114.382" height="139.475" filterUnits="userSpaceOnUse" color-interpolation-filters="sRGB">
<feFlood flood-opacity="0" result="BackgroundImageFix"/>
<feColorMatrix in="SourceAlpha" type="matrix" values="0 0 0 0 0 0 0 0 0 0 0 0 0 0 0 0 0 0 127 0"/>
<feOffset dy="4.37254"/>
<feGaussianBlur stdDeviation="8.74508"/>
<feColorMatrix type="matrix" values="0 0 0 0 0.0772917 0 0 0 0 0.434479 0 0 0 0 0.883333 0 0 0 0.18 0"/>
<feBlend mode="normal" in2="BackgroundImageFix" result="effect1_dropShadow"/>
<feBlend mode="normal" in="SourceGraphic" in2="effect1_dropShadow" result="shape"/>
</filter>
<filter id="filter1_d" x="17.1582" y="23.91" width="38.2988" height="38.2988" filterUnits="userSpaceOnUse" color-interpolation-filters="sRGB">
<feFlood flood-opacity="0" result="BackgroundImageFix"/>
<feColorMatrix in="SourceAlpha" type="matrix" values="0 0 0 0 0 0 0 0 0 0 0 0 0 0 0 0 0 0 127 0"/>
<feOffset dy="2"/>
<feGaussianBlur stdDeviation="4.5"/>
<feColorMatrix type="matrix" values="0 0 0 0 0.109219 0 0 0 0 0.491032 0 0 0 0 0.970833 0 0 0 0.25 0"/>
<feBlend mode="normal" in2="BackgroundImageFix" result="effect1_dropShadow"/>
<feBlend mode="normal" in="SourceGraphic" in2="effect1_dropShadow" result="shape"/>
</filter>
<filter id="filter2_d" x="17.1582" y="49.5981" width="38.2988" height="38.2989" filterUnits="userSpaceOnUse" color-interpolation-filters="sRGB">
<feFlood flood-opacity="0" result="BackgroundImageFix"/>
<feColorMatrix in="SourceAlpha" type="matrix" values="0 0 0 0 0 0 0 0 0 0 0 0 0 0 0 0 0 0 127 0"/>
<feOffset dy="2"/>
<feGaussianBlur stdDeviation="4.5"/>
<feColorMatrix type="matrix" values="0 0 0 0 0.109219 0 0 0 0 0.491032 0 0 0 0 0.970833 0 0 0 0.25 0"/>
<feBlend mode="normal" in2="BackgroundImageFix" result="effect1_dropShadow"/>
<feBlend mode="normal" in="SourceGraphic" in2="effect1_dropShadow" result="shape"/>
</filter>
<filter id="filter3_d" x="17.1582" y="75.2863" width="38.2988" height="38.299" filterUnits="userSpaceOnUse" color-interpolation-filters="sRGB">
<feFlood flood-opacity="0" result="BackgroundImageFix"/>
<feColorMatrix in="SourceAlpha" type="matrix" values="0 0 0 0 0 0 0 0 0 0 0 0 0 0 0 0 0 0 127 0"/>
<feOffset dy="2"/>
<feGaussianBlur stdDeviation="4.5"/>
<feColorMatrix type="matrix" values="0 0 0 0 0.109219 0 0 0 0 0.491032 0 0 0 0 0.970833 0 0 0 0.25 0"/>
<feBlend mode="normal" in2="BackgroundImageFix" result="effect1_dropShadow"/>
<feBlend mode="normal" in="SourceGraphic" in2="effect1_dropShadow" result="shape"/>
</filter>
</defs>
</svg>
