<svg width="412" height="350" viewBox="0 0 412 350" fill="none" xmlns="http://www.w3.org/2000/svg">
<g clip-path="url(#clip0)">
<path d="M412 0.5H0V349.5H412V0.5Z" fill="white"/>
<path d="M412 0.5H0V349.5H412V0.5Z" fill="#1C7DF8"/>
<g filter="url(#filter0_d)">
<path d="M357.283 52.3926H54.7171C39.1866 52.3926 26.5967 64.9825 26.5967 80.513V269.487C26.5967 285.018 39.1866 297.608 54.7171 297.608H357.283C372.814 297.608 385.404 285.018 385.404 269.487V80.513C385.404 64.9825 372.814 52.3926 357.283 52.3926Z" fill="white" fill-opacity="0.01"/>
</g>
<path d="M357.283 52.3926H54.7171C39.1866 52.3926 26.5967 64.9825 26.5967 80.513V269.487C26.5967 285.018 39.1866 297.608 54.7171 297.608H357.283C372.814 297.608 385.404 285.018 385.404 269.487V80.513C385.404 64.9825 372.814 52.3926 357.283 52.3926Z" fill="white"/>
<g filter="url(#filter1_d)">
<path d="M319.114 152.868C321.231 149.664 324.601 144.28 330.147 144.28C335.694 144.28 341.543 148.646 347.647 148.646C353.752 148.646 357.066 139.761 361.22 139.761" stroke="#72D962" stroke-opacity="0.01" stroke-width="4.52278" stroke-linecap="round"/>
</g>
<path d="M319.114 152.868C321.231 149.664 324.601 144.28 330.147 144.28C335.694 144.28 341.543 148.646 347.647 148.646C353.752 148.646 357.066 139.761 361.22 139.761" stroke="#72D962" stroke-width="4.52278" stroke-linecap="round"/>
<g filter="url(#filter2_d)">
<path d="M319.114 210.506C331.673 210.506 350.552 209.094 356.902 197.74" stroke="#72D962" stroke-opacity="0.01" stroke-width="4.52278" stroke-linecap="round"/>
</g>
<path d="M319.114 210.506C331.673 210.506 350.552 209.094 356.902 197.74" stroke="#72D962" stroke-width="4.52278" stroke-linecap="round"/>
<g filter="url(#filter3_d)">
<path d="M319.114 268.145C321.231 264.941 325.991 260.848 338.029 265.069C350.067 269.29 346.999 250.671 361.397 256.336" stroke="#72D962" stroke-opacity="0.01" stroke-width="4.52278" stroke-linecap="round"/>
</g>
<path d="M319.114 268.145C321.231 264.941 325.991 260.848 338.029 265.069C350.067 269.29 346.999 250.671 361.397 256.336" stroke="#72D962" stroke-width="4.52278" stroke-linecap="round"/>
<path d="M66.1709 135.912H54.8639C52.2412 135.912 50.115 138.038 50.115 140.661V151.968C50.115 154.591 52.2412 156.717 54.8639 156.717H66.1709C68.7936 156.717 70.9198 154.591 70.9198 151.968V140.661C70.9198 138.038 68.7936 135.912 66.1709 135.912Z" fill="white" stroke="#DCE3ED" stroke-width="1.80911"/>
<path d="M66.1709 193.551H54.8639C52.2412 193.551 50.115 195.677 50.115 198.3V209.607C50.115 212.23 52.2412 214.356 54.8639 214.356H66.1709C68.7936 214.356 70.9198 212.23 70.9198 209.607V198.3C70.9198 195.677 68.7936 193.551 66.1709 193.551Z" fill="white" stroke="#DCE3ED" stroke-width="1.80911"/>
<path d="M66.1709 251.189H54.8639C52.2412 251.189 50.115 253.315 50.115 255.938V267.245C50.115 269.868 52.2412 271.994 54.8639 271.994H66.1709C68.7936 271.994 70.9198 269.868 70.9198 267.245V255.938C70.9198 253.315 68.7936 251.189 66.1709 251.189Z" fill="white" stroke="#DCE3ED" stroke-width="1.80911"/>
<path d="M49.2104 176.196H362.79" stroke="#DCE3ED" stroke-width="1.1307"/>
<path d="M49.2104 233.834H362.79" stroke="#DCE3ED" stroke-width="1.1307"/>
<path opacity="0.8" d="M164.407 140.81H86.2789C83.2386 140.81 80.7739 143.275 80.7739 146.315V146.315C80.7739 149.355 83.2386 151.82 86.2789 151.82H164.407C167.447 151.82 169.912 149.355 169.912 146.315C169.912 143.275 167.447 140.81 164.407 140.81Z" fill="#778BA5"/>
<path opacity="0.8" d="M164.407 198.448H86.2789C83.2386 198.448 80.7739 200.913 80.7739 203.953V203.953C80.7739 206.993 83.2386 209.458 86.2789 209.458H164.407C167.447 209.458 169.912 206.993 169.912 203.953C169.912 200.913 167.447 198.448 164.407 198.448Z" fill="#778BA5"/>
<path opacity="0.8" d="M164.407 256.086H86.2789C83.2386 256.086 80.7739 258.551 80.7739 261.591V261.591C80.7739 264.631 83.2386 267.096 86.2789 267.096H164.407C167.447 267.096 169.912 264.631 169.912 261.591C169.912 258.551 167.447 256.086 164.407 256.086Z" fill="#778BA5"/>
<path opacity="0.8" d="M287.857 140.81H263.867C260.827 140.81 258.362 143.275 258.362 146.315V146.315C258.362 149.355 260.827 151.82 263.867 151.82H287.857C290.898 151.82 293.362 149.355 293.362 146.315C293.362 143.275 290.898 140.81 287.857 140.81Z" fill="#DCE3ED"/>
<path opacity="0.8" d="M287.857 198.448H263.867C260.827 198.448 258.362 200.913 258.362 203.953V203.953C258.362 206.993 260.827 209.458 263.867 209.458H287.857C290.898 209.458 293.362 206.993 293.362 203.953C293.362 200.913 290.898 198.448 287.857 198.448Z" fill="#DCE3ED"/>
<path opacity="0.8" d="M287.857 256.086H263.867C260.827 256.086 258.362 258.551 258.362 261.591V261.591C258.362 264.631 260.827 267.096 263.867 267.096H287.857C290.898 267.096 293.362 264.631 293.362 261.591V261.591C293.362 258.551 290.898 256.086 287.857 256.086Z" fill="#DCE3ED"/>
<path opacity="0.8" d="M242.811 140.81H204.61C201.57 140.81 199.105 143.275 199.105 146.315V146.315C199.105 149.355 201.57 151.82 204.61 151.82H242.811C245.851 151.82 248.316 149.355 248.316 146.315C248.316 143.275 245.851 140.81 242.811 140.81Z" fill="#DCE3ED"/>
<path opacity="0.8" d="M242.811 198.448H204.61C201.57 198.448 199.105 200.913 199.105 203.953V203.953C199.105 206.993 201.57 209.458 204.61 209.458H242.811C245.851 209.458 248.316 206.993 248.316 203.953C248.316 200.913 245.851 198.448 242.811 198.448Z" fill="#DCE3ED"/>
<path opacity="0.8" d="M242.811 256.086H204.61C201.57 256.086 199.105 258.551 199.105 261.591V261.591C199.105 264.631 201.57 267.096 204.61 267.096H242.811C245.851 267.096 248.316 264.631 248.316 261.591V261.591C248.316 258.551 245.851 256.086 242.811 256.086Z" fill="#DCE3ED"/>
<g filter="url(#filter4_d)">
<path d="M343.568 76.5459H68.4322C57.8163 76.5459 49.2104 85.1518 49.2104 95.7677V95.7678C49.2104 106.384 57.8163 114.99 68.4322 114.99H343.568C354.184 114.99 362.789 106.384 362.789 95.7677C362.789 85.1518 354.184 76.5459 343.568 76.5459Z" fill="white" fill-opacity="0.01"/>
<path d="M343.568 77.1113H68.4324C58.1287 77.1113 49.7759 85.4641 49.7759 95.7678C49.7759 106.071 58.1287 114.424 68.4324 114.424H343.568C353.872 114.424 362.225 106.071 362.225 95.7678C362.225 85.4641 353.872 77.1113 343.568 77.1113Z" stroke="#DCE3ED" stroke-opacity="0.01" stroke-width="1.1307"/>
</g>
<path d="M343.568 76.5459H68.4322C57.8163 76.5459 49.2104 85.1518 49.2104 95.7677V95.7678C49.2104 106.384 57.8163 114.99 68.4322 114.99H343.568C354.184 114.99 362.789 106.384 362.789 95.7677C362.789 85.1518 354.184 76.5459 343.568 76.5459Z" fill="white"/>
<path d="M343.568 77.1113H68.4324C58.1287 77.1113 49.7759 85.4641 49.7759 95.7678C49.7759 106.071 58.1287 114.424 68.4324 114.424H343.568C353.872 114.424 362.225 106.071 362.225 95.7678C362.225 85.4641 353.872 77.1113 343.568 77.1113Z" stroke="#DCE3ED" stroke-width="1.1307"/>
<path opacity="0.8" d="M149.912 90.2629H71.7837C68.7435 90.2629 66.2788 92.7276 66.2788 95.7678V95.7679C66.2788 98.8082 68.7435 101.273 71.7837 101.273H149.912C152.952 101.273 155.417 98.8082 155.417 95.7678C155.417 92.7276 152.952 90.2629 149.912 90.2629Z" fill="#DCE3ED"/>
<g filter="url(#filter5_d)">
<path d="M333.695 102.832C338.306 102.832 342.044 99.0938 342.044 94.483C342.044 89.8721 338.306 86.1343 333.695 86.1343C329.085 86.1343 325.347 89.8721 325.347 94.483C325.347 99.0938 329.085 102.832 333.695 102.832Z" stroke="#1C7DF8" stroke-opacity="0.01" stroke-width="3.39209" stroke-linecap="round" stroke-linejoin="round"/>
<path d="M339.598 100.387L344.612 105.401" stroke="#1C7DF8" stroke-opacity="0.01" stroke-width="3.39209" stroke-linecap="round" stroke-linejoin="round"/>
</g>
<path d="M333.695 102.832C338.306 102.832 342.044 99.0938 342.044 94.483C342.044 89.8721 338.306 86.1343 333.695 86.1343C329.085 86.1343 325.347 89.8721 325.347 94.483C325.347 99.0938 329.085 102.832 333.695 102.832Z" stroke="#1C7DF8" stroke-width="3.39209" stroke-linecap="round" stroke-linejoin="round"/>
<path d="M339.598 100.387L344.612 105.401" stroke="#1C7DF8" stroke-width="3.39209" stroke-linecap="round" stroke-linejoin="round"/>
</g>
<defs>
<filter id="filter0_d" x="-30.8405" y="-0.806681" width="473.681" height="360.089" filterUnits="userSpaceOnUse" color-interpolation-filters="sRGB">
<feFlood flood-opacity="0" result="BackgroundImageFix"/>
<feColorMatrix in="SourceAlpha" type="matrix" values="0 0 0 0 0 0 0 0 0 0 0 0 0 0 0 0 0 0 127 0"/>
<feOffset dy="4.23794"/>
<feGaussianBlur stdDeviation="28.7186"/>
<feColorMatrix type="matrix" values="0 0 0 0 0.0102083 0 0 0 0 0.146125 0 0 0 0 0.35 0 0 0 0.37 0"/>
<feBlend mode="normal" in2="BackgroundImageFix" result="effect1_dropShadow"/>
<feBlend mode="normal" in="SourceGraphic" in2="effect1_dropShadow" result="shape"/>
</filter>
<filter id="filter1_d" x="313.171" y="136.273" width="53.9913" height="24.9923" filterUnits="userSpaceOnUse" color-interpolation-filters="sRGB">
<feFlood flood-opacity="0" result="BackgroundImageFix"/>
<feColorMatrix in="SourceAlpha" type="matrix" values="0 0 0 0 0 0 0 0 0 0 0 0 0 0 0 0 0 0 127 0"/>
<feOffset dy="2.45411"/>
<feGaussianBlur stdDeviation="1.84058"/>
<feColorMatrix type="matrix" values="0 0 0 0 0.44795 0 0 0 0 0.85 0 0 0 0 0.3825 0 0 0 0.41 0"/>
<feBlend mode="normal" in2="BackgroundImageFix" result="effect1_dropShadow"/>
<feBlend mode="normal" in="SourceGraphic" in2="effect1_dropShadow" result="shape"/>
</filter>
<filter id="filter2_d" x="313.172" y="194.251" width="49.6735" height="24.6515" filterUnits="userSpaceOnUse" color-interpolation-filters="sRGB">
<feFlood flood-opacity="0" result="BackgroundImageFix"/>
<feColorMatrix in="SourceAlpha" type="matrix" values="0 0 0 0 0 0 0 0 0 0 0 0 0 0 0 0 0 0 127 0"/>
<feOffset dy="2.45411"/>
<feGaussianBlur stdDeviation="1.84058"/>
<feColorMatrix type="matrix" values="0 0 0 0 0.44795 0 0 0 0 0.85 0 0 0 0 0.3825 0 0 0 0.41 0"/>
<feBlend mode="normal" in2="BackgroundImageFix" result="effect1_dropShadow"/>
<feBlend mode="normal" in="SourceGraphic" in2="effect1_dropShadow" result="shape"/>
</filter>
<filter id="filter3_d" x="313.171" y="251.765" width="54.1689" height="24.7771" filterUnits="userSpaceOnUse" color-interpolation-filters="sRGB">
<feFlood flood-opacity="0" result="BackgroundImageFix"/>
<feColorMatrix in="SourceAlpha" type="matrix" values="0 0 0 0 0 0 0 0 0 0 0 0 0 0 0 0 0 0 127 0"/>
<feOffset dy="2.45411"/>
<feGaussianBlur stdDeviation="1.84058"/>
<feColorMatrix type="matrix" values="0 0 0 0 0.44795 0 0 0 0 0.85 0 0 0 0 0.3825 0 0 0 0.41 0"/>
<feBlend mode="normal" in2="BackgroundImageFix" result="effect1_dropShadow"/>
<feBlend mode="normal" in="SourceGraphic" in2="effect1_dropShadow" result="shape"/>
</filter>
<filter id="filter4_d" x="42.4263" y="72.0231" width="327.148" height="52.0121" filterUnits="userSpaceOnUse" color-interpolation-filters="sRGB">
<feFlood flood-opacity="0" result="BackgroundImageFix"/>
<feColorMatrix in="SourceAlpha" type="matrix" values="0 0 0 0 0 0 0 0 0 0 0 0 0 0 0 0 0 0 127 0"/>
<feOffset dy="2.26139"/>
<feGaussianBlur stdDeviation="3.39209"/>
<feColorMatrix type="matrix" values="0 0 0 0 0.109219 0 0 0 0 0.491032 0 0 0 0 0.970833 0 0 0 0.08 0"/>
<feBlend mode="normal" in2="BackgroundImageFix" result="effect1_dropShadow"/>
<feBlend mode="normal" in="SourceGraphic" in2="effect1_dropShadow" result="shape"/>
</filter>
<filter id="filter5_d" x="319.128" y="83.3075" width="31.7026" height="31.7044" filterUnits="userSpaceOnUse" color-interpolation-filters="sRGB">
<feFlood flood-opacity="0" result="BackgroundImageFix"/>
<feColorMatrix in="SourceAlpha" type="matrix" values="0 0 0 0 0 0 0 0 0 0 0 0 0 0 0 0 0 0 127 0"/>
<feOffset dy="3.39209"/>
<feGaussianBlur stdDeviation="2.26139"/>
<feColorMatrix type="matrix" values="0 0 0 0 0.109219 0 0 0 0 0.491032 0 0 0 0 0.970833 0 0 0 0.24 0"/>
<feBlend mode="normal" in2="BackgroundImageFix" result="effect1_dropShadow"/>
<feBlend mode="normal" in="SourceGraphic" in2="effect1_dropShadow" result="shape"/>
</filter>
<clipPath id="clip0">
<rect width="412" height="349" fill="white" transform="translate(0 0.5)"/>
</clipPath>
</defs>
</svg>
