<svg width="410" height="278" viewBox="0 0 410 278" fill="none" xmlns="http://www.w3.org/2000/svg">
<g filter="url(#filter0_d_12_3249)">
<rect x="29" y="24" width="352" height="220" rx="7.11549" fill="#98FFE0"/>
</g>
<rect x="29" y="24" width="352" height="220" rx="7.11549" fill="#1C243F"/>
<path d="M57.9123 86.0972C57.8494 85.5391 57.59 85.1067 57.134 84.8001C56.6781 84.4896 56.1042 84.3343 55.4124 84.3343C54.9172 84.3343 54.4887 84.413 54.1271 84.5702C53.7655 84.7235 53.4845 84.9357 53.284 85.2069C53.0875 85.4742 52.9892 85.7788 52.9892 86.1208C52.9892 86.4077 53.056 86.6554 53.1897 86.8637C53.3272 87.072 53.5061 87.2469 53.7262 87.3884C53.9502 87.526 54.19 87.6419 54.4455 87.7363C54.701 87.8267 54.9466 87.9014 55.1825 87.9603L56.3617 88.2669C56.7469 88.3612 57.1419 88.489 57.5467 88.6501C57.9516 88.8113 58.327 89.0235 58.6728 89.2869C59.0187 89.5502 59.2978 89.8765 59.5101 90.2656C59.7262 90.6547 59.8343 91.1205 59.8343 91.6629C59.8343 92.3469 59.6575 92.9541 59.3037 93.4848C58.9539 94.0154 58.4449 94.434 57.7767 94.7406C57.1124 95.0472 56.3086 95.2005 55.3653 95.2005C54.4612 95.2005 53.679 95.057 53.0187 94.7701C52.3584 94.4831 51.8415 94.0763 51.4681 93.5496C51.0947 93.019 50.8883 92.3901 50.849 91.6629H52.6767C52.7121 92.0992 52.8536 92.4628 53.1012 92.7537C53.3528 93.0406 53.6731 93.2548 54.0623 93.3963C54.4553 93.5339 54.8857 93.6027 55.3535 93.6027C55.8684 93.6027 56.3263 93.5221 56.7272 93.3609C57.1321 93.1959 57.4504 92.9679 57.6823 92.677C57.9142 92.3822 58.0302 92.0383 58.0302 91.6452C58.0302 91.2876 57.928 90.9947 57.7236 90.7668C57.5232 90.5388 57.25 90.3501 56.9041 90.2007C56.5621 90.0514 56.175 89.9197 55.7426 89.8057L54.3158 89.4166C53.3489 89.1532 52.5824 88.7661 52.0164 88.2551C51.4543 87.7441 51.1733 87.0681 51.1733 86.2269C51.1733 85.5312 51.3619 84.9239 51.7393 84.4051C52.1166 83.8863 52.6276 83.4834 53.2722 83.1964C53.9168 82.9056 54.644 82.7601 55.4537 82.7601C56.2713 82.7601 56.9925 82.9036 57.6175 83.1905C58.2464 83.4775 58.7416 83.8725 59.1032 84.3756C59.4649 84.8748 59.6535 85.4487 59.6693 86.0972H57.9123ZM65.773 95.1828C64.8807 95.1828 64.1123 94.9921 63.4677 94.6109C62.827 94.2257 62.3317 93.6852 61.9819 92.9895C61.636 92.2899 61.4631 91.4703 61.4631 90.5309C61.4631 89.6033 61.636 88.7857 61.9819 88.0782C62.3317 87.3707 62.8191 86.8185 63.4441 86.4215C64.073 86.0245 64.808 85.826 65.6492 85.826C66.1601 85.826 66.6554 85.9105 67.1349 86.0795C67.6145 86.2485 68.0449 86.5139 68.4261 86.8755C68.8074 87.2371 69.1081 87.7068 69.3282 88.2846C69.5483 88.8585 69.6584 89.5561 69.6584 90.3776V91.0026H62.4595V89.6819H67.9309C67.9309 89.2181 67.8365 88.8074 67.6479 88.4497C67.4592 88.0881 67.1939 87.8031 66.8519 87.5948C66.5139 87.3864 66.1169 87.2823 65.6609 87.2823C65.1657 87.2823 64.7333 87.4041 64.3639 87.6478C63.9983 87.8876 63.7153 88.202 63.5148 88.5912C63.3183 88.9764 63.2201 89.395 63.2201 89.847V90.8788C63.2201 91.4841 63.3262 91.999 63.5384 92.4235C63.7546 92.848 64.0553 93.1723 64.4405 93.3963C64.8257 93.6164 65.2758 93.7265 65.7907 93.7265C66.1248 93.7265 66.4294 93.6793 66.7045 93.585C66.9797 93.4867 67.2175 93.3413 67.4179 93.1487C67.6184 92.9561 67.7717 92.7183 67.8778 92.4353L69.5463 92.736C69.4127 93.2273 69.1729 93.6577 68.827 94.0272C68.4851 94.3927 68.0547 94.6777 67.5358 94.8821C67.0209 95.0825 66.4333 95.1828 65.773 95.1828ZM75.5174 95.1828C74.6252 95.1828 73.8567 94.9921 73.2121 94.6109C72.5714 94.2257 72.0762 93.6852 71.7263 92.9895C71.3804 92.2899 71.2075 91.4703 71.2075 90.5309C71.2075 89.6033 71.3804 88.7857 71.7263 88.0782C72.0762 87.3707 72.5636 86.8185 73.1885 86.4215C73.8174 86.0245 74.5524 85.826 75.3936 85.826C75.9046 85.826 76.3998 85.9105 76.8793 86.0795C77.3589 86.2485 77.7893 86.5139 78.1705 86.8755C78.5518 87.2371 78.8525 87.7068 79.0726 88.2846C79.2927 88.8585 79.4028 89.5561 79.4028 90.3776V91.0026H72.2039V89.6819H77.6753C77.6753 89.2181 77.581 88.8074 77.3923 88.4497C77.2036 88.0881 76.9383 87.8031 76.5963 87.5948C76.2583 87.3864 75.8613 87.2823 75.4054 87.2823C74.9101 87.2823 74.4778 87.4041 74.1083 87.6478C73.7427 87.8876 73.4597 88.202 73.2593 88.5912C73.0627 88.9764 72.9645 89.395 72.9645 89.847V90.8788C72.9645 91.4841 73.0706 91.999 73.2829 92.4235C73.499 92.848 73.7997 93.1723 74.1849 93.3963C74.5701 93.6164 75.0202 93.7265 75.5351 93.7265C75.8692 93.7265 76.1738 93.6793 76.4489 93.585C76.7241 93.4867 76.9619 93.3413 77.1623 93.1487C77.3628 92.9561 77.5161 92.7183 77.6222 92.4353L79.2908 92.736C79.1571 93.2273 78.9174 93.6577 78.5715 94.0272C78.2295 94.3927 77.7991 94.6777 77.2803 94.8821C76.7654 95.0825 76.1777 95.1828 75.5174 95.1828ZM87.5155 89.623V95H85.7527V82.9252H87.4919V87.4179H87.604C87.8162 86.9305 88.1405 86.5433 88.5768 86.2564C89.0131 85.9695 89.583 85.826 90.2866 85.826C90.9076 85.826 91.45 85.9537 91.9139 86.2092C92.3816 86.4647 92.7432 86.846 92.9987 87.353C93.2581 87.8562 93.3878 88.485 93.3878 89.2397V95H91.625V89.452C91.625 88.7877 91.454 88.2728 91.112 87.9072C90.7701 87.5378 90.2945 87.353 89.6852 87.353C89.2686 87.353 88.8952 87.4415 88.565 87.6184C88.2388 87.7952 87.9813 88.0546 87.7926 88.3966C87.6079 88.7346 87.5155 89.1434 87.5155 89.623ZM99.5549 95.1828C98.7059 95.1828 97.965 94.9882 97.3322 94.5991C96.6993 94.21 96.208 93.6656 95.8582 92.9659C95.5084 92.2663 95.3335 91.4487 95.3335 90.5132C95.3335 89.5738 95.5084 88.7523 95.8582 88.0487C96.208 87.3452 96.6993 86.7988 97.3322 86.4097C97.965 86.0206 98.7059 85.826 99.5549 85.826C100.404 85.826 101.145 86.0206 101.778 86.4097C102.41 86.7988 102.902 87.3452 103.252 88.0487C103.601 88.7523 103.776 89.5738 103.776 90.5132C103.776 91.4487 103.601 92.2663 103.252 92.9659C102.902 93.6656 102.41 94.21 101.778 94.5991C101.145 94.9882 100.404 95.1828 99.5549 95.1828ZM99.5608 93.7029C100.111 93.7029 100.567 93.5575 100.929 93.2666C101.29 92.9757 101.558 92.5886 101.731 92.1051C101.907 91.6217 101.996 91.0891 101.996 90.5073C101.996 89.9295 101.907 89.3989 101.731 88.9154C101.558 88.4281 101.29 88.037 100.929 87.7422C100.567 87.4474 100.111 87.3 99.5608 87.3C99.0066 87.3 98.5467 87.4474 98.1812 87.7422C97.8196 88.037 97.5503 88.4281 97.3734 88.9154C97.2005 89.3989 97.114 89.9295 97.114 90.5073C97.114 91.0891 97.2005 91.6217 97.3734 92.1051C97.5503 92.5886 97.8196 92.9757 98.1812 93.2666C98.5467 93.5575 99.0066 93.7029 99.5608 93.7029ZM107.432 95L104.767 85.9439H106.589L108.363 92.5945H108.452L110.232 85.9439H112.054L113.823 92.565H113.911L115.674 85.9439H117.496L114.837 95H113.039L111.199 88.4615H111.064L109.224 95H107.432ZM124.677 98.396C124.414 98.396 124.174 98.3744 123.958 98.3312C123.742 98.2919 123.581 98.2486 123.475 98.2015L123.899 96.757C124.221 96.8434 124.508 96.8808 124.76 96.869C125.011 96.8572 125.233 96.7629 125.426 96.586C125.623 96.4091 125.796 96.1202 125.945 95.7193L126.163 95.1179L122.85 85.9439H124.736L127.03 92.9718H127.124L129.418 85.9439H131.31L127.578 96.2087C127.405 96.6803 127.185 97.0793 126.918 97.4055C126.65 97.7357 126.332 97.9833 125.963 98.1484C125.593 98.3135 125.165 98.396 124.677 98.396ZM136.473 95.1828C135.624 95.1828 134.884 94.9882 134.251 94.5991C133.618 94.21 133.127 93.6656 132.777 92.9659C132.427 92.2663 132.252 91.4487 132.252 90.5132C132.252 89.5738 132.427 88.7523 132.777 88.0487C133.127 87.3452 133.618 86.7988 134.251 86.4097C134.884 86.0206 135.624 85.826 136.473 85.826C137.322 85.826 138.063 86.0206 138.696 86.4097C139.329 86.7988 139.82 87.3452 140.17 88.0487C140.52 88.7523 140.695 89.5738 140.695 90.5132C140.695 91.4487 140.52 92.2663 140.17 92.9659C139.82 93.6656 139.329 94.21 138.696 94.5991C138.063 94.9882 137.322 95.1828 136.473 95.1828ZM136.479 93.7029C137.03 93.7029 137.486 93.5575 137.847 93.2666C138.209 92.9757 138.476 92.5886 138.649 92.1051C138.826 91.6217 138.914 91.0891 138.914 90.5073C138.914 89.9295 138.826 89.3989 138.649 88.9154C138.476 88.4281 138.209 88.037 137.847 87.7422C137.486 87.4474 137.03 87.3 136.479 87.3C135.925 87.3 135.465 87.4474 135.1 87.7422C134.738 88.037 134.469 88.4281 134.292 88.9154C134.119 89.3989 134.033 89.9295 134.033 90.5073C134.033 91.0891 134.119 91.6217 134.292 92.1051C134.469 92.5886 134.738 92.9757 135.1 93.2666C135.465 93.5575 135.925 93.7029 136.479 93.7029ZM148.399 91.2443V85.9439H150.168V95H148.435V93.4317H148.34C148.132 93.9152 147.798 94.318 147.338 94.6404C146.882 94.9587 146.314 95.1179 145.634 95.1179C145.052 95.1179 144.538 94.9902 144.09 94.7347C143.645 94.4753 143.296 94.092 143.04 93.585C142.788 93.0779 142.663 92.451 142.663 91.7042V85.9439H144.426V91.4919C144.426 92.1091 144.597 92.6004 144.939 92.9659C145.28 93.3315 145.725 93.5142 146.271 93.5142C146.601 93.5142 146.929 93.4317 147.256 93.2666C147.586 93.1015 147.859 92.8519 148.075 92.5178C148.295 92.1837 148.403 91.7592 148.399 91.2443ZM160.745 95.1828C159.869 95.1828 159.114 94.9843 158.481 94.5873C157.852 94.1864 157.369 93.6341 157.031 92.9305C156.693 92.227 156.524 91.4212 156.524 90.5132C156.524 89.5935 156.697 88.7818 157.043 88.0782C157.389 87.3707 157.876 86.8185 158.505 86.4215C159.134 86.0245 159.875 85.826 160.728 85.826C161.416 85.826 162.029 85.9537 162.567 86.2092C163.106 86.4608 163.54 86.8145 163.87 87.2705C164.204 87.7264 164.403 88.259 164.466 88.8683H162.75C162.656 88.4438 162.439 88.0782 162.101 87.7716C161.767 87.4651 161.319 87.3118 160.757 87.3118C160.266 87.3118 159.835 87.4415 159.466 87.7009C159.1 87.9564 158.815 88.3219 158.611 88.7975C158.407 89.2692 158.304 89.8273 158.304 90.472C158.304 91.1323 158.405 91.7022 158.605 92.1818C158.806 92.6613 159.089 93.0327 159.454 93.2961C159.824 93.5594 160.258 93.6911 160.757 93.6911C161.091 93.6911 161.394 93.6302 161.665 93.5083C161.94 93.3826 162.17 93.2037 162.355 92.9718C162.544 92.7399 162.675 92.4608 162.75 92.1346H164.466C164.403 92.7203 164.212 93.243 163.894 93.7029C163.575 94.1628 163.149 94.5244 162.614 94.7877C162.084 95.0511 161.461 95.1828 160.745 95.1828ZM168.986 95.2005C168.412 95.2005 167.894 95.0943 167.43 94.8821C166.966 94.6659 166.599 94.3534 166.327 93.9446C166.06 93.5359 165.926 93.0347 165.926 92.4412C165.926 91.9302 166.025 91.5096 166.221 91.1795C166.418 90.8493 166.683 90.5879 167.017 90.3953C167.351 90.2027 167.725 90.0573 168.137 89.959C168.55 89.8608 168.971 89.7861 169.399 89.735C169.941 89.6721 170.382 89.621 170.72 89.5817C171.058 89.5384 171.303 89.4697 171.457 89.3753C171.61 89.281 171.687 89.1277 171.687 88.9154V88.8742C171.687 88.3593 171.541 87.9603 171.25 87.6773C170.963 87.3943 170.535 87.2528 169.965 87.2528C169.372 87.2528 168.904 87.3845 168.562 87.6478C168.224 87.9072 167.99 88.1961 167.86 88.5145L166.203 88.1372C166.4 87.5869 166.687 87.1427 167.064 86.8047C167.446 86.4628 167.884 86.2151 168.379 86.0618C168.874 85.9046 169.395 85.826 169.941 85.826C170.303 85.826 170.686 85.8692 171.091 85.9557C171.5 86.0383 171.881 86.1915 172.235 86.4156C172.593 86.6396 172.885 86.96 173.113 87.3766C173.341 87.7893 173.455 88.3259 173.455 88.9862V95H171.734V93.7619H171.663C171.549 93.9898 171.378 94.2139 171.15 94.434C170.922 94.6541 170.629 94.8369 170.272 94.9823C169.914 95.1277 169.486 95.2005 168.986 95.2005ZM169.37 93.7854C169.857 93.7854 170.274 93.6891 170.62 93.4965C170.969 93.304 171.235 93.0524 171.415 92.7419C171.6 92.4274 171.693 92.0914 171.693 91.7337V90.5663C171.63 90.6292 171.508 90.6881 171.327 90.7432C171.15 90.7943 170.948 90.8395 170.72 90.8788C170.492 90.9142 170.27 90.9476 170.054 90.979C169.837 91.0065 169.657 91.0301 169.511 91.0498C169.169 91.093 168.857 91.1657 168.574 91.2679C168.295 91.3701 168.071 91.5175 167.902 91.7101C167.736 91.8988 167.654 92.1503 167.654 92.4648C167.654 92.9011 167.815 93.2312 168.137 93.4553C168.46 93.6754 168.87 93.7854 169.37 93.7854ZM177.566 89.623V95H175.803V85.9439H177.496V87.4179H177.608C177.816 86.9384 178.142 86.5532 178.586 86.2623C179.034 85.9714 179.598 85.826 180.278 85.826C180.896 85.826 181.436 85.9557 181.9 86.2151C182.364 86.4706 182.723 86.8519 182.979 87.3589C183.234 87.866 183.362 88.4929 183.362 89.2397V95H181.599V89.452C181.599 88.7956 181.428 88.2826 181.086 87.9131C180.744 87.5397 180.275 87.353 179.677 87.353C179.268 87.353 178.905 87.4415 178.586 87.6184C178.272 87.7952 178.022 88.0546 177.838 88.3966C177.657 88.7346 177.566 89.1434 177.566 89.623ZM190.12 95V85.9439H191.883V95H190.12ZM191.01 84.5466C190.704 84.5466 190.441 84.4444 190.22 84.24C190.004 84.0317 189.896 83.7841 189.896 83.4971C189.896 83.2063 190.004 82.9586 190.22 82.7542C190.441 82.5459 190.704 82.4418 191.01 82.4418C191.317 82.4418 191.578 82.5459 191.795 82.7542C192.015 82.9586 192.125 83.2063 192.125 83.4971C192.125 83.7841 192.015 84.0317 191.795 84.24C191.578 84.4444 191.317 84.5466 191.01 84.5466ZM194.255 95V85.9439H195.947V87.4179H196.059C196.247 86.9187 196.556 86.5296 196.984 86.2505C197.413 85.9675 197.926 85.826 198.523 85.826C199.129 85.826 199.636 85.9675 200.044 86.2505C200.457 86.5335 200.762 86.9226 200.958 87.4179H201.053C201.269 86.9344 201.613 86.5492 202.084 86.2623C202.556 85.9714 203.118 85.826 203.771 85.826C204.592 85.826 205.262 86.0835 205.781 86.5984C206.304 87.1133 206.565 87.8896 206.565 88.9272V95H204.802V89.0923C204.802 88.4791 204.635 88.035 204.301 87.7599C203.967 87.4847 203.568 87.3471 203.104 87.3471C202.531 87.3471 202.084 87.524 201.766 87.8778C201.448 88.2276 201.288 88.6776 201.288 89.2279V95H199.531V88.9803C199.531 88.489 199.378 88.094 199.072 87.7952C198.765 87.4965 198.366 87.3471 197.875 87.3471C197.541 87.3471 197.232 87.4356 196.949 87.6125C196.67 87.7854 196.444 88.0271 196.271 88.3376C196.102 88.6482 196.018 89.0078 196.018 89.4166V95H194.255ZM208.928 98.396V85.9439H210.65V87.412H210.797C210.899 87.2233 211.047 87.0052 211.239 86.7576C211.432 86.5099 211.699 86.2937 212.041 86.109C212.383 85.9203 212.835 85.826 213.397 85.826C214.128 85.826 214.781 86.0107 215.355 86.3802C215.928 86.7497 216.378 87.2823 216.705 87.978C217.035 88.6737 217.2 89.5109 217.2 90.4896C217.2 91.4684 217.037 92.3075 216.711 93.0072C216.384 93.7029 215.936 94.2394 215.366 94.6168C214.796 94.9902 214.146 95.1769 213.415 95.1769C212.865 95.1769 212.414 95.0845 212.065 94.8998C211.719 94.715 211.448 94.4988 211.251 94.2512C211.054 94.0036 210.903 93.7835 210.797 93.5909H210.691V98.396H208.928ZM210.656 90.472C210.656 91.1087 210.748 91.6669 210.933 92.1464C211.117 92.6259 211.385 93.0013 211.734 93.2725C212.084 93.5398 212.513 93.6734 213.02 93.6734C213.546 93.6734 213.987 93.5339 214.34 93.2548C214.694 92.9718 214.961 92.5886 215.142 92.1051C215.327 91.6217 215.419 91.0773 215.419 90.472C215.419 89.8745 215.329 89.338 215.148 88.8624C214.971 88.3868 214.704 88.0114 214.346 87.7363C213.993 87.4611 213.55 87.3236 213.02 87.3236C212.509 87.3236 212.076 87.4552 211.723 87.7186C211.373 87.9819 211.108 88.3494 210.927 88.8211C210.746 89.2928 210.656 89.8431 210.656 90.472ZM219.175 95V85.9439H220.879V87.3825H220.973C221.138 86.8951 221.429 86.5119 221.846 86.2328C222.266 85.9498 222.742 85.8083 223.273 85.8083C223.383 85.8083 223.512 85.8122 223.662 85.8201C223.815 85.828 223.935 85.8378 224.021 85.8496V87.5358C223.951 87.5162 223.825 87.4945 223.644 87.471C223.463 87.4434 223.283 87.4297 223.102 87.4297C222.685 87.4297 222.314 87.5181 221.987 87.695C221.665 87.8679 221.41 88.1097 221.221 88.4202C221.032 88.7268 220.938 89.0766 220.938 89.4697V95H219.175ZM229.037 95.1828C228.188 95.1828 227.448 94.9882 226.815 94.5991C226.182 94.21 225.691 93.6656 225.341 92.9659C224.991 92.2663 224.816 91.4487 224.816 90.5132C224.816 89.5738 224.991 88.7523 225.341 88.0487C225.691 87.3452 226.182 86.7988 226.815 86.4097C227.448 86.0206 228.188 85.826 229.037 85.826C229.886 85.826 230.627 86.0206 231.26 86.4097C231.893 86.7988 232.384 87.3452 232.734 88.0487C233.084 88.7523 233.259 89.5738 233.259 90.5132C233.259 91.4487 233.084 92.2663 232.734 92.9659C232.384 93.6656 231.893 94.21 231.26 94.5991C230.627 94.9882 229.886 95.1828 229.037 95.1828ZM229.043 93.7029C229.594 93.7029 230.05 93.5575 230.411 93.2666C230.773 92.9757 231.04 92.5886 231.213 92.1051C231.39 91.6217 231.478 91.0891 231.478 90.5073C231.478 89.9295 231.39 89.3989 231.213 88.9154C231.04 88.4281 230.773 88.037 230.411 87.7422C230.05 87.4474 229.594 87.3 229.043 87.3C228.489 87.3 228.029 87.4474 227.664 87.7422C227.302 88.037 227.033 88.4281 226.856 88.9154C226.683 89.3989 226.597 89.9295 226.597 90.5073C226.597 91.0891 226.683 91.6217 226.856 92.1051C227.033 92.5886 227.302 92.9757 227.664 93.2666C228.029 93.5575 228.489 93.7029 229.043 93.7029ZM242.666 85.9439L239.382 95H237.495L234.205 85.9439H236.098L238.391 92.9129H238.486L240.773 85.9439H242.666ZM247.918 95.1828C247.025 95.1828 246.257 94.9921 245.612 94.6109C244.972 94.2257 244.476 93.6852 244.126 92.9895C243.781 92.2899 243.608 91.4703 243.608 90.5309C243.608 89.6033 243.781 88.7857 244.126 88.0782C244.476 87.3707 244.964 86.8185 245.589 86.4215C246.218 86.0245 246.953 85.826 247.794 85.826C248.305 85.826 248.8 85.9105 249.279 86.0795C249.759 86.2485 250.189 86.5139 250.571 86.8755C250.952 87.2371 251.253 87.7068 251.473 88.2846C251.693 88.8585 251.803 89.5561 251.803 90.3776V91.0026H244.604V89.6819H250.075C250.075 89.2181 249.981 88.8074 249.792 88.4497C249.604 88.0881 249.338 87.8031 248.996 87.5948C248.658 87.3864 248.261 87.2823 247.806 87.2823C247.31 87.2823 246.878 87.4041 246.508 87.6478C246.143 87.8876 245.86 88.202 245.659 88.5912C245.463 88.9764 245.365 89.395 245.365 89.847V90.8788C245.365 91.4841 245.471 91.999 245.683 92.4235C245.899 92.848 246.2 93.1723 246.585 93.3963C246.97 93.6164 247.42 93.7265 247.935 93.7265C248.269 93.7265 248.574 93.6793 248.849 93.585C249.124 93.4867 249.362 93.3413 249.562 93.1487C249.763 92.9561 249.916 92.7183 250.022 92.4353L251.691 92.736C251.557 93.2273 251.317 93.6577 250.972 94.0272C250.63 94.3927 250.199 94.6777 249.68 94.8821C249.165 95.0825 248.578 95.1828 247.918 95.1828ZM261.967 95.1828C261.091 95.1828 260.336 94.9843 259.703 94.5873C259.075 94.1864 258.591 93.6341 258.253 92.9305C257.915 92.227 257.746 91.4212 257.746 90.5132C257.746 89.5935 257.919 88.7818 258.265 88.0782C258.611 87.3707 259.098 86.8185 259.727 86.4215C260.356 86.0245 261.097 85.826 261.95 85.826C262.638 85.826 263.251 85.9537 263.789 86.2092C264.328 86.4608 264.762 86.8145 265.092 87.2705C265.426 87.7264 265.625 88.259 265.688 88.8683H263.972C263.878 88.4438 263.662 88.0782 263.323 87.7716C262.989 87.4651 262.541 87.3118 261.979 87.3118C261.488 87.3118 261.057 87.4415 260.688 87.7009C260.322 87.9564 260.038 88.3219 259.833 88.7975C259.629 89.2692 259.527 89.8273 259.527 90.472C259.527 91.1323 259.627 91.7022 259.827 92.1818C260.028 92.6613 260.311 93.0327 260.676 93.2961C261.046 93.5594 261.48 93.6911 261.979 93.6911C262.313 93.6911 262.616 93.6302 262.887 93.5083C263.162 93.3826 263.392 93.2037 263.577 92.9718C263.766 92.7399 263.897 92.4608 263.972 92.1346H265.688C265.625 92.7203 265.434 93.243 265.116 93.7029C264.797 94.1628 264.371 94.5244 263.836 94.7877C263.306 95.0511 262.683 95.1828 261.967 95.1828ZM271.388 95.1828C270.539 95.1828 269.798 94.9882 269.165 94.5991C268.532 94.21 268.041 93.6656 267.691 92.9659C267.341 92.2663 267.166 91.4487 267.166 90.5132C267.166 89.5738 267.341 88.7523 267.691 88.0487C268.041 87.3452 268.532 86.7988 269.165 86.4097C269.798 86.0206 270.539 85.826 271.388 85.826C272.237 85.826 272.977 86.0206 273.61 86.4097C274.243 86.7988 274.734 87.3452 275.084 88.0487C275.434 88.7523 275.609 89.5738 275.609 90.5132C275.609 91.4487 275.434 92.2663 275.084 92.9659C274.734 93.6656 274.243 94.21 273.61 94.5991C272.977 94.9882 272.237 95.1828 271.388 95.1828ZM271.393 93.7029C271.944 93.7029 272.4 93.5575 272.761 93.2666C273.123 92.9757 273.39 92.5886 273.563 92.1051C273.74 91.6217 273.828 91.0891 273.828 90.5073C273.828 89.9295 273.74 89.3989 273.563 88.9154C273.39 88.4281 273.123 88.037 272.761 87.7422C272.4 87.4474 271.944 87.3 271.393 87.3C270.839 87.3 270.379 87.4474 270.014 87.7422C269.652 88.037 269.383 88.4281 269.206 88.9154C269.033 89.3989 268.947 89.9295 268.947 90.5073C268.947 91.0891 269.033 91.6217 269.206 92.1051C269.383 92.5886 269.652 92.9757 270.014 93.2666C270.379 93.5575 270.839 93.7029 271.393 93.7029ZM279.34 89.623V95H277.577V85.9439H279.269V87.4179H279.381C279.589 86.9384 279.915 86.5532 280.36 86.2623C280.808 85.9714 281.372 85.826 282.052 85.826C282.669 85.826 283.209 85.9557 283.673 86.2151C284.137 86.4706 284.497 86.8519 284.752 87.3589C285.008 87.866 285.135 88.4929 285.135 89.2397V95H283.372V89.452C283.372 88.7956 283.201 88.2826 282.859 87.9131C282.518 87.5397 282.048 87.353 281.45 87.353C281.042 87.353 280.678 87.4415 280.36 87.6184C280.045 87.7952 279.796 88.0546 279.611 88.3966C279.43 88.7346 279.34 89.1434 279.34 89.623ZM294.922 85.9439L291.638 95H289.752L286.462 85.9439H288.354L290.648 92.9129H290.742L293.03 85.9439H294.922ZM300.174 95.1828C299.282 95.1828 298.514 94.9921 297.869 94.6109C297.228 94.2257 296.733 93.6852 296.383 92.9895C296.037 92.2899 295.864 91.4703 295.864 90.5309C295.864 89.6033 296.037 88.7857 296.383 88.0782C296.733 87.3707 297.22 86.8185 297.845 86.4215C298.474 86.0245 299.209 85.826 300.05 85.826C300.561 85.826 301.057 85.9105 301.536 86.0795C302.016 86.2485 302.446 86.5139 302.827 86.8755C303.209 87.2371 303.509 87.7068 303.729 88.2846C303.95 88.8585 304.06 89.5561 304.06 90.3776V91.0026H296.861V89.6819H302.332C302.332 89.2181 302.238 88.8074 302.049 88.4497C301.86 88.0881 301.595 87.8031 301.253 87.5948C300.915 87.3864 300.518 87.2823 300.062 87.2823C299.567 87.2823 299.135 87.4041 298.765 87.6478C298.4 87.8876 298.117 88.202 297.916 88.5912C297.72 88.9764 297.621 89.395 297.621 89.847V90.8788C297.621 91.4841 297.727 91.999 297.94 92.4235C298.156 92.848 298.457 93.1723 298.842 93.3963C299.227 93.6164 299.677 93.7265 300.192 93.7265C300.526 93.7265 300.831 93.6793 301.106 93.585C301.381 93.4867 301.619 93.3413 301.819 93.1487C302.02 92.9561 302.173 92.7183 302.279 92.4353L303.948 92.736C303.814 93.2273 303.574 93.6577 303.228 94.0272C302.886 94.3927 302.456 94.6777 301.937 94.8821C301.422 95.0825 300.835 95.1828 300.174 95.1828ZM306.016 95V85.9439H307.72V87.3825H307.814C307.979 86.8951 308.27 86.5119 308.686 86.2328C309.107 85.9498 309.583 85.8083 310.113 85.8083C310.223 85.8083 310.353 85.8122 310.502 85.8201C310.656 85.828 310.776 85.8378 310.862 85.8496V87.5358C310.791 87.5162 310.665 87.4945 310.485 87.471C310.304 87.4434 310.123 87.4297 309.942 87.4297C309.526 87.4297 309.154 87.5181 308.828 87.695C308.506 87.8679 308.25 88.1097 308.061 88.4202C307.873 88.7268 307.778 89.0766 307.778 89.4697V95H306.016ZM319.174 88.1549L317.576 88.4379C317.509 88.2335 317.403 88.0389 317.258 87.8542C317.116 87.6694 316.923 87.5181 316.68 87.4002C316.436 87.2823 316.131 87.2233 315.766 87.2233C315.267 87.2233 314.85 87.3353 314.516 87.5594C314.182 87.7795 314.015 88.0645 314.015 88.4143C314.015 88.717 314.127 88.9606 314.351 89.1454C314.575 89.3301 314.937 89.4815 315.436 89.5994L316.874 89.9295C317.708 90.1221 318.329 90.4189 318.737 90.8198C319.146 91.2207 319.351 91.7415 319.351 92.3822C319.351 92.9246 319.193 93.4081 318.879 93.8326C318.568 94.2532 318.134 94.5834 317.576 94.8231C317.022 95.0629 316.379 95.1828 315.648 95.1828C314.634 95.1828 313.807 94.9666 313.166 94.5342C312.525 94.0979 312.132 93.4789 311.987 92.677L313.691 92.4176C313.797 92.8618 314.015 93.1978 314.345 93.4258C314.675 93.6498 315.106 93.7619 315.636 93.7619C316.214 93.7619 316.676 93.642 317.022 93.4022C317.368 93.1585 317.541 92.8618 317.541 92.5119C317.541 92.2289 317.434 91.9911 317.222 91.7985C317.014 91.6059 316.694 91.4605 316.261 91.3622L314.728 91.0262C313.883 90.8336 313.258 90.527 312.853 90.1064C312.452 89.6858 312.252 89.1532 312.252 88.5086C312.252 87.9741 312.401 87.5063 312.7 87.1054C312.999 86.7045 313.411 86.392 313.938 86.168C314.465 85.94 315.068 85.826 315.748 85.826C316.727 85.826 317.497 86.0383 318.059 86.4628C318.621 86.8833 318.993 87.4474 319.174 88.1549ZM321.289 95V85.9439H323.052V95H321.289ZM322.179 84.5466C321.873 84.5466 321.609 84.4444 321.389 84.24C321.173 84.0317 321.065 83.7841 321.065 83.4971C321.065 83.2063 321.173 82.9586 321.389 82.7542C321.609 82.5459 321.873 82.4418 322.179 82.4418C322.486 82.4418 322.747 82.5459 322.963 82.7542C323.183 82.9586 323.293 83.2063 323.293 83.4971C323.293 83.7841 323.183 84.0317 322.963 84.24C322.747 84.4444 322.486 84.5466 322.179 84.5466ZM329.238 95.1828C328.389 95.1828 327.648 94.9882 327.015 94.5991C326.382 94.21 325.891 93.6656 325.541 92.9659C325.191 92.2663 325.017 91.4487 325.017 90.5132C325.017 89.5738 325.191 88.7523 325.541 88.0487C325.891 87.3452 326.382 86.7988 327.015 86.4097C327.648 86.0206 328.389 85.826 329.238 85.826C330.087 85.826 330.828 86.0206 331.461 86.4097C332.094 86.7988 332.585 87.3452 332.935 88.0487C333.285 88.7523 333.459 89.5738 333.459 90.5132C333.459 91.4487 333.285 92.2663 332.935 92.9659C332.585 93.6656 332.094 94.21 331.461 94.5991C330.828 94.9882 330.087 95.1828 329.238 95.1828ZM329.244 93.7029C329.794 93.7029 330.25 93.5575 330.612 93.2666C330.973 92.9757 331.241 92.5886 331.414 92.1051C331.59 91.6217 331.679 91.0891 331.679 90.5073C331.679 89.9295 331.59 89.3989 331.414 88.9154C331.241 88.4281 330.973 88.037 330.612 87.7422C330.25 87.4474 329.794 87.3 329.244 87.3C328.69 87.3 328.23 87.4474 327.864 87.7422C327.503 88.037 327.233 88.4281 327.057 88.9154C326.884 89.3989 326.797 89.9295 326.797 90.5073C326.797 91.0891 326.884 91.6217 327.057 92.1051C327.233 92.5886 327.503 92.9757 327.864 93.2666C328.23 93.5575 328.69 93.7029 329.244 93.7029ZM337.19 89.623V95H335.427V85.9439H337.119V87.4179H337.231C337.44 86.9384 337.766 86.5532 338.21 86.2623C338.658 85.9714 339.222 85.826 339.902 85.826C340.519 85.826 341.06 85.9557 341.524 86.2151C341.987 86.4706 342.347 86.8519 342.603 87.3589C342.858 87.866 342.986 88.4929 342.986 89.2397V95H341.223V89.452C341.223 88.7956 341.052 88.2826 340.71 87.9131C340.368 87.5397 339.898 87.353 339.301 87.353C338.892 87.353 338.528 87.4415 338.21 87.6184C337.896 87.7952 337.646 88.0546 337.461 88.3966C337.281 88.7346 337.19 89.1434 337.19 89.623ZM352.136 88.1549L350.538 88.4379C350.472 88.2335 350.365 88.0389 350.22 87.8542C350.078 87.6694 349.886 87.5181 349.642 87.4002C349.398 87.2823 349.094 87.2233 348.728 87.2233C348.229 87.2233 347.813 87.3353 347.478 87.5594C347.144 87.7795 346.977 88.0645 346.977 88.4143C346.977 88.717 347.089 88.9606 347.313 89.1454C347.537 89.3301 347.899 89.4815 348.398 89.5994L349.837 89.9295C350.67 90.1221 351.291 90.4189 351.7 90.8198C352.109 91.2207 352.313 91.7415 352.313 92.3822C352.313 92.9246 352.156 93.4081 351.841 93.8326C351.531 94.2532 351.097 94.5834 350.538 94.8231C349.984 95.0629 349.342 95.1828 348.61 95.1828C347.596 95.1828 346.769 94.9666 346.128 94.5342C345.488 94.0979 345.095 93.4789 344.949 92.677L346.653 92.4176C346.759 92.8618 346.977 93.1978 347.307 93.4258C347.638 93.6498 348.068 93.7619 348.599 93.7619C349.176 93.7619 349.638 93.642 349.984 93.4022C350.33 93.1585 350.503 92.8618 350.503 92.5119C350.503 92.2289 350.397 91.9911 350.185 91.7985C349.976 91.6059 349.656 91.4605 349.224 91.3622L347.691 91.0262C346.846 90.8336 346.221 90.527 345.816 90.1064C345.415 89.6858 345.214 89.1532 345.214 88.5086C345.214 87.9741 345.364 87.5063 345.662 87.1054C345.961 86.7045 346.374 86.392 346.901 86.168C347.427 85.94 348.031 85.826 348.711 85.826C349.689 85.826 350.46 86.0383 351.022 86.4628C351.584 86.8833 351.955 87.4474 352.136 88.1549Z" fill="white"/>
<path d="M117.575 149.889H118.168V149.296H117.575V149.889ZM116.389 217.111H115.796V217.704H116.389V217.111ZM166.301 149.889H166.894V149.296H166.301V149.889ZM165.115 217.111H164.522V217.704H165.115V217.111ZM216.228 217.111V217.704H216.821V217.111H216.228ZM215.042 149.889V149.296H214.449V149.889H215.042ZM267.708 149.889H268.301V149.296H267.708V149.889ZM266.522 217.111H265.929V217.704H266.522V217.111ZM72.5868 217.111V217.704H73.1798V217.111H72.5868ZM71.4009 151.745V151.152H70.8079V151.745H71.4009ZM318.556 149.889V149.296H317.963V149.889H318.556ZM319.742 217.111V217.704H320.335V217.111H319.742ZM117.575 149.296H116.982V150.482H117.575V149.296ZM115.796 149.889V152.29H116.982V149.889H115.796ZM115.796 157.091V161.893H116.982V157.091H115.796ZM115.796 166.694V171.496H116.982V166.694H115.796ZM115.796 176.298V181.099H116.982V176.298H115.796ZM115.796 185.901V190.702H116.982V185.901H115.796ZM115.796 195.504V200.306H116.982V195.504H115.796ZM115.796 205.107V209.909H116.982V205.107H115.796ZM115.796 214.71V217.111H116.982V214.71H115.796ZM116.389 217.704H116.982V216.518H116.389V217.704ZM118.168 217.111V214.71H116.982V217.111H118.168ZM118.168 209.909V205.107H116.982V209.909H118.168ZM118.168 200.306V195.504H116.982V200.306H118.168ZM118.168 190.702V185.901H116.982V190.702H118.168ZM118.168 181.099V176.298H116.982V181.099H118.168ZM118.168 171.496V166.694H116.982V171.496H118.168ZM118.168 161.893V157.091H116.982V161.893H118.168ZM118.168 152.29V149.889H116.982V152.29H118.168ZM166.301 149.296H165.708V150.482H166.301V149.296ZM164.522 149.889V152.29H165.708V149.889H164.522ZM164.522 157.091V161.893H165.708V157.091H164.522ZM164.522 166.694V171.496H165.708V166.694H164.522ZM164.522 176.298V181.099H165.708V176.298H164.522ZM164.522 185.901V190.702H165.708V185.901H164.522ZM164.522 195.504V200.306H165.708V195.504H164.522ZM164.522 205.107V209.909H165.708V205.107H164.522ZM164.522 214.71V217.111H165.708V214.71H164.522ZM165.115 217.704H165.708V216.518H165.115V217.704ZM166.894 217.111V214.71H165.708V217.111H166.894ZM166.894 209.909V205.107H165.708V209.909H166.894ZM166.894 200.306V195.504H165.708V200.306H166.894ZM166.894 190.702V185.901H165.708V190.702H166.894ZM166.894 181.099V176.298H165.708V181.099H166.894ZM166.894 171.496V166.694H165.708V171.496H166.894ZM166.894 161.893V157.091H165.708V161.893H166.894ZM166.894 152.29V149.889H165.708V152.29H166.894ZM216.228 216.518H215.635V217.704H216.228V216.518ZM215.635 217.111V214.71H214.449V217.111H215.635ZM215.635 209.909V205.107H214.449V209.909H215.635ZM215.635 200.306V195.504H214.449V200.306H215.635ZM215.635 190.702V185.901H214.449V190.702H215.635ZM215.635 181.099V176.298H214.449V181.099H215.635ZM215.635 171.496V166.694H214.449V171.496H215.635ZM215.635 161.893V157.091H214.449V161.893H215.635ZM215.635 152.29V149.889H214.449V152.29H215.635ZM215.042 150.482H215.635V149.296H215.042V150.482ZM215.635 149.889V152.29H216.821V149.889H215.635ZM215.635 157.091V161.893H216.821V157.091H215.635ZM215.635 166.694V171.496H216.821V166.694H215.635ZM215.635 176.298V181.099H216.821V176.298H215.635ZM215.635 185.901V190.702H216.821V185.901H215.635ZM215.635 195.504V200.306H216.821V195.504H215.635ZM215.635 205.107V209.909H216.821V205.107H215.635ZM215.635 214.71V217.111H216.821V214.71H215.635ZM267.708 149.296H267.115V150.482H267.708V149.296ZM265.929 149.889V152.29H267.115V149.889H265.929ZM265.929 157.091V161.893H267.115V157.091H265.929ZM265.929 166.694V171.496H267.115V166.694H265.929ZM265.929 176.298V181.099H267.115V176.298H265.929ZM265.929 185.901V190.702H267.115V185.901H265.929ZM265.929 195.504V200.306H267.115V195.504H265.929ZM265.929 205.107V209.909H267.115V205.107H265.929ZM265.929 214.71V217.111H267.115V214.71H265.929ZM266.522 217.704H267.115V216.518H266.522V217.704ZM268.301 217.111V214.71H267.115V217.111H268.301ZM268.301 209.909V205.107H267.115V209.909H268.301ZM268.301 200.306V195.504H267.115V200.306H268.301ZM268.301 190.702V185.901H267.115V190.702H268.301ZM268.301 181.099V176.298H267.115V181.099H268.301ZM268.301 171.496V166.694H267.115V171.496H268.301ZM268.301 161.893V157.091H267.115V161.893H268.301ZM268.301 152.29V149.889H267.115V152.29H268.301ZM72.5868 216.518H71.9938V217.704H72.5868V216.518ZM71.9938 217.111V214.777H70.8079V217.111H71.9938ZM71.9938 210.108V205.439H70.8079V210.108H71.9938ZM71.9938 200.77V196.101H70.8079V200.77H71.9938ZM71.9938 191.432V186.763H70.8079V191.432H71.9938ZM71.9938 182.094V177.425H70.8079V182.094H71.9938ZM71.9938 172.756V168.087H70.8079V172.756H71.9938ZM71.9938 163.418V158.749H70.8079V163.418H71.9938ZM71.9938 154.08V151.745H70.8079V154.08H71.9938ZM71.4009 152.338H71.9938V151.152H71.4009V152.338ZM71.9938 151.745V154.08H73.1798V151.745H71.9938ZM71.9938 158.749V163.418H73.1798V158.749H71.9938ZM71.9938 168.087V172.756H73.1798V168.087H71.9938ZM71.9938 177.425V182.094H73.1798V177.425H71.9938ZM71.9938 186.763V191.432H73.1798V186.763H71.9938ZM71.9938 196.101V200.77H73.1798V196.101H71.9938ZM71.9938 205.439V210.108H73.1798V205.439H71.9938ZM71.9938 214.777V217.111H73.1798V214.777H71.9938ZM319.149 217.111V214.71H317.963V217.111H319.149ZM319.149 209.909V205.107H317.963V209.909H319.149ZM319.149 200.306V195.504H317.963V200.306H319.149ZM319.149 190.702V185.901H317.963V190.702H319.149ZM319.149 181.099V176.298H317.963V181.099H319.149ZM319.149 171.496V166.694H317.963V171.496H319.149ZM319.149 161.893V157.091H317.963V161.893H319.149ZM319.149 152.29V149.889H317.963V152.29H319.149ZM318.556 150.482H319.149V149.296H318.556V150.482ZM319.149 149.889V152.29H320.335V149.889H319.149ZM319.149 157.091V161.893H320.335V157.091H319.149ZM319.149 166.694V171.496H320.335V166.694H319.149ZM319.149 176.298V181.099H320.335V176.298H319.149ZM319.149 185.901V190.702H320.335V185.901H319.149ZM319.149 195.504V200.306H320.335V195.504H319.149ZM319.149 205.107V209.909H320.335V205.107H319.149ZM319.149 214.71V217.111H320.335V214.71H319.149ZM319.742 216.518H319.149V217.704H319.742V216.518Z" fill="#0A1826"/>
<path d="M70.9045 217.111L116.154 189.734L161.6 207.796L209.789 175.912L259.527 194.41L320.238 149.889" stroke="#FF9061" stroke-width="2.96479"/>
<g filter="url(#filter1_d_12_3249)">
<circle cx="328.358" cy="151.598" r="9.48732" fill="#1C243F"/>
<circle cx="328.358" cy="151.598" r="6.52254" stroke="#FF9061" stroke-width="5.92958"/>
</g>
<path d="M62.483 57.2805L59.9808 57.7237C59.8762 57.4036 59.71 57.099 59.4822 56.8097C59.2607 56.5204 58.959 56.2834 58.5774 56.0987C58.1958 55.9141 57.7188 55.8217 57.1463 55.8217C56.3646 55.8217 55.7121 55.9972 55.1889 56.348C54.6657 56.6927 54.4041 57.139 54.4041 57.6868C54.4041 58.1607 54.5795 58.5424 54.9304 58.8317C55.2813 59.121 55.8475 59.358 56.6293 59.5426L58.8821 60.0597C60.187 60.3613 61.1596 60.826 61.7997 61.4538C62.4399 62.0817 62.7599 62.8973 62.7599 63.9006C62.7599 64.75 62.5137 65.5071 62.0213 66.1719C61.535 66.8305 60.8549 67.3475 59.9808 67.723C59.1129 68.0985 58.1065 68.2862 56.9616 68.2862C55.3736 68.2862 54.0779 67.9477 53.0746 67.2706C52.0713 66.5874 51.4557 65.6179 51.228 64.3622L53.8963 63.956C54.0625 64.6515 54.4041 65.1778 54.9212 65.5348C55.4382 65.8857 56.1122 66.0611 56.9432 66.0611C57.848 66.0611 58.5713 65.8733 59.1129 65.4979C59.6546 65.1162 59.9254 64.6515 59.9254 64.1037C59.9254 63.6605 59.7592 63.2881 59.4268 62.9865C59.1006 62.6849 58.599 62.4571 57.9219 62.3033L55.5213 61.777C54.1979 61.4754 53.2192 60.9953 52.5852 60.3366C51.9574 59.678 51.6435 58.844 51.6435 57.8345C51.6435 56.9974 51.8774 56.2649 52.3452 55.6371C52.813 55.0092 53.4593 54.5199 54.2841 54.169C55.1089 53.812 56.0537 53.6335 57.1186 53.6335C58.6513 53.6335 59.8577 53.9659 60.7379 54.6307C61.6181 55.2893 62.1998 56.1726 62.483 57.2805ZM71.9075 68.2862C70.5102 68.2862 69.3069 67.9877 68.2974 67.3906C67.2941 66.7874 66.5185 65.9411 65.9707 64.8516C65.429 63.7559 65.1582 62.4725 65.1582 61.0014C65.1582 59.5488 65.429 58.2685 65.9707 57.1605C66.5185 56.0526 67.2818 55.1877 68.2605 54.5661C69.2453 53.9444 70.3964 53.6335 71.7136 53.6335C72.5138 53.6335 73.2894 53.7659 74.0403 54.0305C74.7913 54.2952 75.4653 54.7107 76.0623 55.277C76.6594 55.8433 77.1303 56.5788 77.475 57.4837C77.8197 58.3823 77.992 59.4749 77.992 60.7614V61.7401H66.7186V59.6719H75.2868C75.2868 58.9455 75.139 58.3023 74.8436 57.7422C74.5481 57.1759 74.1326 56.7296 73.5971 56.4034C73.0678 56.0772 72.4461 55.9141 71.7321 55.9141C70.9565 55.9141 70.2794 56.1049 69.7008 56.4865C69.1284 56.862 68.6852 57.3544 68.3713 57.9638C68.0635 58.567 67.9096 59.2225 67.9096 59.9304V61.5462C67.9096 62.4941 68.0758 63.3004 68.4082 63.9652C68.7467 64.63 69.2176 65.1378 69.8208 65.4886C70.4241 65.8333 71.1288 66.0057 71.9352 66.0057C72.4584 66.0057 72.9354 65.9318 73.3663 65.7841C73.7972 65.6302 74.1696 65.4025 74.4835 65.1009C74.7974 64.7992 75.0375 64.4268 75.2037 63.9837L77.8166 64.4545C77.6073 65.224 77.2318 65.898 76.6902 66.4766C76.1547 67.049 75.4806 67.4953 74.6681 67.8153C73.8618 68.1293 72.9416 68.2862 71.9075 68.2862ZM85.1822 68.3139C84.2835 68.3139 83.471 68.1477 82.7447 67.8153C82.0183 67.4768 81.4428 66.9875 81.0181 66.3473C80.5996 65.7071 80.3903 64.9223 80.3903 63.9929C80.3903 63.1927 80.5442 62.5341 80.8519 62.017C81.1597 61.5 81.5752 61.0907 82.0984 60.7891C82.6216 60.4875 83.2063 60.2597 83.8526 60.1058C84.4989 59.9519 85.1576 59.835 85.8285 59.755C86.6779 59.6565 87.3673 59.5765 87.8967 59.5149C88.426 59.4472 88.8107 59.3395 89.0508 59.1918C89.2908 59.044 89.4109 58.804 89.4109 58.4716V58.407C89.4109 57.6006 89.1831 56.9759 88.7276 56.5327C88.2783 56.0895 87.6074 55.8679 86.7148 55.8679C85.7854 55.8679 85.0529 56.0741 84.5174 56.4865C83.988 56.8928 83.6218 57.3452 83.4187 57.8438L80.8242 57.2528C81.132 56.3911 81.5813 55.6955 82.1722 55.1662C82.7693 54.6307 83.4556 54.2429 84.2312 54.0028C85.0067 53.7566 85.8223 53.6335 86.6779 53.6335C87.2442 53.6335 87.8443 53.7012 88.4783 53.8366C89.1185 53.9659 89.7156 54.206 90.2695 54.5568C90.8297 54.9077 91.2882 55.4093 91.6452 56.0618C92.0022 56.7081 92.1808 57.5483 92.1808 58.5824V68H89.4847V66.0611H89.3739C89.1954 66.4181 88.9277 66.7689 88.5707 67.1136C88.2137 67.4583 87.7551 67.7446 87.195 67.9723C86.6348 68.2 85.9639 68.3139 85.1822 68.3139ZM85.7823 66.098C86.5456 66.098 87.198 65.9472 87.7397 65.6456C88.2875 65.344 88.703 64.95 88.9862 64.4638C89.2755 63.9714 89.4201 63.4451 89.4201 62.8849V61.0568C89.3216 61.1553 89.1308 61.2476 88.8477 61.3338C88.5707 61.4138 88.2537 61.4846 87.8967 61.5462C87.5397 61.6016 87.1919 61.6539 86.8533 61.7031C86.5148 61.7462 86.2317 61.7831 86.0039 61.8139C85.4684 61.8816 84.979 61.9955 84.5359 62.1555C84.0988 62.3156 83.748 62.5464 83.4833 62.848C83.2248 63.1435 83.0955 63.5374 83.0955 64.0298C83.0955 64.7131 83.3479 65.2301 83.8526 65.581C84.3574 65.9257 85.0006 66.098 85.7823 66.098ZM95.8578 68V53.8182H98.5261V56.071H98.6738C98.9324 55.3078 99.3878 54.7076 100.04 54.2706C100.699 53.8274 101.444 53.6058 102.275 53.6058C102.447 53.6058 102.65 53.612 102.884 53.6243C103.124 53.6366 103.312 53.652 103.447 53.6705V56.3111C103.336 56.2803 103.14 56.2464 102.856 56.2095C102.573 56.1664 102.29 56.1449 102.007 56.1449C101.354 56.1449 100.773 56.2834 100.262 56.5604C99.7572 56.8312 99.3571 57.2098 99.0616 57.696C98.7662 58.1761 98.6184 58.724 98.6184 59.3395V68H95.8578ZM111.302 68.2862C109.93 68.2862 108.748 67.9754 107.757 67.3537C106.772 66.7259 106.015 65.861 105.485 64.7592C104.956 63.6574 104.691 62.3956 104.691 60.9737C104.691 59.5334 104.962 58.2623 105.504 57.1605C106.046 56.0526 106.809 55.1877 107.794 54.5661C108.779 53.9444 109.939 53.6335 111.275 53.6335C112.352 53.6335 113.312 53.8336 114.155 54.2337C114.998 54.6276 115.679 55.1816 116.196 55.8956C116.719 56.6096 117.03 57.4437 117.128 58.3977H114.441C114.294 57.733 113.955 57.1605 113.426 56.6804C112.903 56.2003 112.201 55.9602 111.321 55.9602C110.551 55.9602 109.877 56.1634 109.299 56.5696C108.726 56.9697 108.28 57.5421 107.96 58.2869C107.64 59.0256 107.48 59.8996 107.48 60.9091C107.48 61.9432 107.637 62.8357 107.951 63.5866C108.265 64.3376 108.708 64.9193 109.28 65.3317C109.859 65.7441 110.539 65.9503 111.321 65.9503C111.844 65.9503 112.318 65.8549 112.743 65.6641C113.173 65.4671 113.533 65.187 113.823 64.8239C114.118 64.4607 114.324 64.0237 114.441 63.5128H117.128C117.03 64.4299 116.731 65.2486 116.233 65.9688C115.734 66.6889 115.066 67.2552 114.229 67.6676C113.398 68.08 112.422 68.2862 111.302 68.2862ZM122.841 59.5795V68H120.08V49.0909H122.804V56.1264H122.98C123.312 55.3632 123.82 54.7569 124.503 54.3075C125.186 53.8582 126.079 53.6335 127.181 53.6335C128.153 53.6335 129.003 53.8336 129.729 54.2337C130.461 54.6338 131.028 55.2308 131.428 56.0249C131.834 56.8127 132.037 57.7976 132.037 58.9794V68H129.276V59.3118C129.276 58.2715 129.009 57.4652 128.473 56.8928C127.938 56.3142 127.193 56.0249 126.239 56.0249C125.586 56.0249 125.002 56.1634 124.485 56.4403C123.974 56.7173 123.57 57.1236 123.275 57.6591C122.986 58.1884 122.841 58.8286 122.841 59.5795ZM144.347 73.3182C143.935 73.3182 143.559 73.2843 143.221 73.2166C142.882 73.1551 142.63 73.0874 142.463 73.0135L143.128 70.7514C143.633 70.8868 144.082 70.9453 144.476 70.9268C144.87 70.9084 145.218 70.7607 145.52 70.4837C145.827 70.2067 146.098 69.7543 146.332 69.1264L146.674 68.1847L141.485 53.8182H144.439L148.031 64.8239H148.179L151.77 53.8182H154.734L148.89 69.8928C148.619 70.6314 148.274 71.2562 147.855 71.767C147.437 72.2841 146.938 72.6719 146.36 72.9304C145.781 73.1889 145.11 73.3182 144.347 73.3182ZM162.82 68.2862C161.49 68.2862 160.33 67.9815 159.339 67.3722C158.348 66.7628 157.579 65.9103 157.031 64.8146C156.483 63.719 156.209 62.4387 156.209 60.9737C156.209 59.5026 156.483 58.2161 157.031 57.1143C157.579 56.0125 158.348 55.157 159.339 54.5476C160.33 53.9382 161.49 53.6335 162.82 53.6335C164.149 53.6335 165.31 53.9382 166.301 54.5476C167.292 55.157 168.061 56.0125 168.609 57.1143C169.157 58.2161 169.431 59.5026 169.431 60.9737C169.431 62.4387 169.157 63.719 168.609 64.8146C168.061 65.9103 167.292 66.7628 166.301 67.3722C165.31 67.9815 164.149 68.2862 162.82 68.2862ZM162.829 65.9688C163.691 65.9688 164.405 65.741 164.971 65.2855C165.537 64.83 165.956 64.2237 166.227 63.4666C166.504 62.7095 166.642 61.8755 166.642 60.9645C166.642 60.0597 166.504 59.2287 166.227 58.4716C165.956 57.7083 165.537 57.0959 164.971 56.6342C164.405 56.1726 163.691 55.9418 162.829 55.9418C161.961 55.9418 161.241 56.1726 160.669 56.6342C160.102 57.0959 159.681 57.7083 159.404 58.4716C159.133 59.2287 158.997 60.0597 158.997 60.9645C158.997 61.8755 159.133 62.7095 159.404 63.4666C159.681 64.2237 160.102 64.83 160.669 65.2855C161.241 65.741 161.961 65.9688 162.829 65.9688ZM181.496 62.1186V53.8182H184.266V68H181.551V65.544H181.403C181.077 66.3011 180.554 66.9321 179.834 67.4368C179.12 67.9354 178.23 68.1847 177.165 68.1847C176.254 68.1847 175.448 67.9846 174.746 67.5845C174.051 67.1783 173.503 66.5781 173.103 65.7841C172.709 64.9901 172.512 64.0083 172.512 62.8388V53.8182H175.273V62.5064C175.273 63.4728 175.54 64.2422 176.076 64.8146C176.612 65.3871 177.307 65.6733 178.163 65.6733C178.68 65.6733 179.194 65.544 179.705 65.2855C180.222 65.027 180.649 64.6361 180.988 64.1129C181.333 63.5897 181.502 62.925 181.496 62.1186ZM187.975 68V53.8182H190.643V56.071H190.791C191.05 55.3078 191.505 54.7076 192.157 54.2706C192.816 53.8274 193.561 53.6058 194.392 53.6058C194.564 53.6058 194.767 53.612 195.001 53.6243C195.241 53.6366 195.429 53.652 195.564 53.6705V56.3111C195.454 56.2803 195.257 56.2464 194.974 56.2095C194.69 56.1664 194.407 56.1449 194.124 56.1449C193.472 56.1449 192.89 56.2834 192.379 56.5604C191.874 56.8312 191.474 57.2098 191.179 57.696C190.883 58.1761 190.736 58.724 190.736 59.3395V68H187.975ZM208.961 68.3139C208.063 68.3139 207.25 68.1477 206.524 67.8153C205.798 67.4768 205.222 66.9875 204.797 66.3473C204.379 65.7071 204.17 64.9223 204.17 63.9929C204.17 63.1927 204.323 62.5341 204.631 62.017C204.939 61.5 205.354 61.0907 205.878 60.7891C206.401 60.4875 206.986 60.2597 207.632 60.1058C208.278 59.9519 208.937 59.835 209.608 59.755C210.457 59.6565 211.147 59.5765 211.676 59.5149C212.205 59.4472 212.59 59.3395 212.83 59.1918C213.07 59.044 213.19 58.804 213.19 58.4716V58.407C213.19 57.6006 212.962 56.9759 212.507 56.5327C212.058 56.0895 211.387 55.8679 210.494 55.8679C209.565 55.8679 208.832 56.0741 208.297 56.4865C207.767 56.8928 207.401 57.3452 207.198 57.8438L204.604 57.2528C204.911 56.3911 205.361 55.6955 205.952 55.1662C206.549 54.6307 207.235 54.2429 208.01 54.0028C208.786 53.7566 209.602 53.6335 210.457 53.6335C211.023 53.6335 211.624 53.7012 212.258 53.8366C212.898 53.9659 213.495 54.206 214.049 54.5568C214.609 54.9077 215.068 55.4093 215.425 56.0618C215.782 56.7081 215.96 57.5483 215.96 58.5824V68H213.264V66.0611H213.153C212.975 66.4181 212.707 66.7689 212.35 67.1136C211.993 67.4583 211.534 67.7446 210.974 67.9723C210.414 68.2 209.743 68.3139 208.961 68.3139ZM209.562 66.098C210.325 66.098 210.977 65.9472 211.519 65.6456C212.067 65.344 212.482 64.95 212.765 64.4638C213.055 63.9714 213.199 63.4451 213.199 62.8849V61.0568C213.101 61.1553 212.91 61.2476 212.627 61.3338C212.35 61.4138 212.033 61.4846 211.676 61.5462C211.319 61.6016 210.971 61.6539 210.633 61.7031C210.294 61.7462 210.011 61.7831 209.783 61.8139C209.248 61.8816 208.758 61.9955 208.315 62.1555C207.878 62.3156 207.527 62.5464 207.263 62.848C207.004 63.1435 206.875 63.5374 206.875 64.0298C206.875 64.7131 207.127 65.2301 207.632 65.581C208.137 65.9257 208.78 66.098 209.562 66.098ZM219.637 73.3182V53.8182H222.333V56.1172H222.564C222.724 55.8217 222.955 55.4801 223.256 55.0923C223.558 54.7045 223.977 54.366 224.512 54.0767C225.048 53.7812 225.755 53.6335 226.636 53.6335C227.781 53.6335 228.802 53.9228 229.701 54.5014C230.6 55.08 231.304 55.9141 231.815 57.0036C232.332 58.093 232.591 59.4041 232.591 60.9368C232.591 62.4695 232.335 63.7836 231.825 64.8793C231.314 65.9687 230.612 66.8089 229.719 67.3999C228.827 67.9846 227.808 68.277 226.663 68.277C225.802 68.277 225.097 68.1323 224.549 67.843C224.007 67.5537 223.583 67.2152 223.275 66.8274C222.967 66.4396 222.73 66.0949 222.564 65.7933H222.398V73.3182H219.637ZM222.342 60.9091C222.342 61.9062 222.487 62.7803 222.776 63.5312C223.066 64.2822 223.484 64.87 224.032 65.2947C224.58 65.7133 225.251 65.9226 226.045 65.9226C226.87 65.9226 227.559 65.7041 228.113 65.267C228.667 64.8239 229.085 64.2237 229.369 63.4666C229.658 62.7095 229.803 61.857 229.803 60.9091C229.803 59.9735 229.661 59.1333 229.378 58.3885C229.101 57.6437 228.682 57.0559 228.122 56.625C227.568 56.1941 226.876 55.9787 226.045 55.9787C225.245 55.9787 224.567 56.1849 224.013 56.5973C223.466 57.0097 223.05 57.5852 222.767 58.3239C222.484 59.0625 222.342 59.9242 222.342 60.9091ZM235.684 73.3182V53.8182H238.38V56.1172H238.611C238.771 55.8217 239.002 55.4801 239.303 55.0923C239.605 54.7045 240.023 54.366 240.559 54.0767C241.094 53.7812 241.802 53.6335 242.683 53.6335C243.827 53.6335 244.849 53.9228 245.748 54.5014C246.647 55.08 247.351 55.9141 247.862 57.0036C248.379 58.093 248.638 59.4041 248.638 60.9368C248.638 62.4695 248.382 63.7836 247.871 64.8793C247.361 65.9687 246.659 66.8089 245.766 67.3999C244.874 67.9846 243.855 68.277 242.71 68.277C241.848 68.277 241.144 68.1323 240.596 67.843C240.054 67.5537 239.629 67.2152 239.322 66.8274C239.014 66.4396 238.777 66.0949 238.611 65.7933H238.445V73.3182H235.684ZM238.389 60.9091C238.389 61.9062 238.534 62.7803 238.823 63.5312C239.112 64.2822 239.531 64.87 240.079 65.2947C240.627 65.7133 241.298 65.9226 242.092 65.9226C242.916 65.9226 243.606 65.7041 244.16 65.267C244.714 64.8239 245.132 64.2237 245.415 63.4666C245.705 62.7095 245.849 61.857 245.849 60.9091C245.849 59.9735 245.708 59.1333 245.425 58.3885C245.148 57.6437 244.729 57.0559 244.169 56.625C243.615 56.1941 242.923 55.9787 242.092 55.9787C241.291 55.9787 240.614 56.1849 240.06 56.5973C239.513 57.0097 239.097 57.5852 238.814 58.3239C238.531 59.0625 238.389 59.9242 238.389 60.9091ZM264.115 68.2678C262.847 68.2678 261.754 68.0369 260.837 67.5753C259.926 67.1136 259.224 66.4858 258.732 65.6918C258.239 64.8916 257.993 63.9867 257.993 62.9773C257.993 62.2079 258.153 61.5246 258.473 60.9276C258.793 60.3243 259.24 59.7673 259.812 59.2564C260.384 58.7455 261.046 58.2315 261.797 57.7145L264.844 55.5632C265.361 55.2247 265.764 54.8677 266.053 54.4922C266.343 54.1106 266.487 53.6397 266.487 53.0795C266.487 52.6364 266.297 52.2116 265.915 51.8054C265.533 51.3991 265.022 51.196 264.382 51.196C263.939 51.196 263.548 51.3037 263.21 51.5192C262.877 51.7346 262.616 52.0116 262.425 52.3501C262.24 52.6825 262.148 53.0334 262.148 53.4027C262.148 53.8336 262.265 54.2675 262.499 54.7045C262.739 55.1416 263.047 55.594 263.422 56.0618C263.798 56.5234 264.191 57.0036 264.604 57.5021L273.384 68H270.264L262.997 59.4595C262.388 58.7393 261.822 58.0623 261.298 57.4283C260.775 56.7881 260.351 56.1418 260.024 55.4893C259.704 54.8307 259.544 54.1198 259.544 53.3565C259.544 52.4886 259.741 51.7192 260.135 51.0483C260.535 50.3712 261.092 49.8419 261.806 49.4602C262.52 49.0786 263.357 48.8878 264.318 48.8878C265.29 48.8878 266.124 49.0786 266.82 49.4602C267.521 49.8357 268.06 50.3374 268.436 50.9652C268.817 51.5869 269.008 52.267 269.008 53.0057C269.008 53.9044 268.783 54.6984 268.334 55.3878C267.891 56.071 267.278 56.6989 266.497 57.2713L262.702 60.0689C261.963 60.6106 261.449 61.1461 261.16 61.6754C260.877 62.1986 260.735 62.608 260.735 62.9034C260.735 63.4451 260.874 63.9467 261.151 64.4084C261.434 64.87 261.828 65.2393 262.333 65.5163C262.843 65.7933 263.441 65.9318 264.124 65.9318C264.825 65.9318 265.509 65.781 266.173 65.4794C266.844 65.1716 267.451 64.7315 267.992 64.1591C268.54 63.5866 268.974 62.9003 269.294 62.1001C269.614 61.3 269.774 60.4044 269.774 59.4134H272.267C272.267 60.6321 272.129 61.6631 271.852 62.5064C271.575 63.3435 271.239 64.0268 270.845 64.5561C270.458 65.0793 270.091 65.4886 269.747 65.7841C269.636 65.8826 269.531 65.9811 269.433 66.0795C269.334 66.178 269.23 66.2765 269.119 66.375C268.479 67.0213 267.703 67.4983 266.792 67.8061C265.887 68.1139 264.995 68.2678 264.115 68.2678Z" fill="#FF814A"/>
<defs>
<filter id="filter0_d_12_3249" x="0.538029" y="0.281691" width="408.924" height="276.924" filterUnits="userSpaceOnUse" color-interpolation-filters="sRGB">
<feFlood flood-opacity="0" result="BackgroundImageFix"/>
<feColorMatrix in="SourceAlpha" type="matrix" values="0 0 0 0 0 0 0 0 0 0 0 0 0 0 0 0 0 0 127 0" result="hardAlpha"/>
<feOffset dy="4.74366"/>
<feGaussianBlur stdDeviation="14.231"/>
<feColorMatrix type="matrix" values="0 0 0 0 0 0 0 0 0 0 0 0 0 0 0 0 0 0 0.06 0"/>
<feBlend mode="normal" in2="BackgroundImageFix" result="effect1_dropShadow_12_3249"/>
<feBlend mode="normal" in="SourceGraphic" in2="effect1_dropShadow_12_3249" result="shape"/>
</filter>
<filter id="filter1_d_12_3249" x="309.384" y="137.367" width="33.2056" height="33.2056" filterUnits="userSpaceOnUse" color-interpolation-filters="sRGB">
<feFlood flood-opacity="0" result="BackgroundImageFix"/>
<feColorMatrix in="SourceAlpha" type="matrix" values="0 0 0 0 0 0 0 0 0 0 0 0 0 0 0 0 0 0 127 0" result="hardAlpha"/>
<feOffset dx="-2.37183" dy="2.37183"/>
<feGaussianBlur stdDeviation="3.55775"/>
<feColorMatrix type="matrix" values="0 0 0 0 0 0 0 0 0 0.811765 0 0 0 0 0.909804 0 0 0 0.6819 0"/>
<feBlend mode="normal" in2="BackgroundImageFix" result="effect1_dropShadow_12_3249"/>
<feBlend mode="normal" in="SourceGraphic" in2="effect1_dropShadow_12_3249" result="shape"/>
</filter>
</defs>
</svg>
