<svg width="20" height="20" viewBox="0 0 20 20" fill="none" xmlns="http://www.w3.org/2000/svg">
<path d="M16.875 12.5L10 18.125L3.125 12.5H5C5.33152 12.5 5.64946 12.3683 5.88388 12.1339C6.1183 11.8995 6.25 11.5815 6.25 11.25V4.375H13.75V11.25C13.75 11.5815 13.8817 11.8995 14.1161 12.1339C14.3505 12.3683 14.6685 12.5 15 12.5H16.875Z" fill="#EDFAFF"/>
<path d="M13.75 11.25V4.375H6.25V11.25C6.25 11.5815 6.1183 11.8995 5.88388 12.1339C5.64946 12.3683 5.33152 12.5 5 12.5H3.125L10 18.125L16.875 12.5H15C14.6685 12.5 14.3505 12.3683 14.1161 12.1339C13.8817 11.8995 13.75 11.5815 13.75 11.25Z" fill="#1C7DF8"/>
<path d="M4.6499 13.75L9.9999 18.125L15.5874 13.5563C15.4082 13.4442 15.2602 13.2886 15.1575 13.1039C15.0548 12.9191 15.0005 12.7114 14.9999 12.5C14.6684 12.5 14.3504 12.3683 14.116 12.1339C13.8816 11.8995 13.7499 11.5815 13.7499 11.25V5.625H8.1249C7.95914 5.625 7.80017 5.69085 7.68296 5.80806C7.56575 5.92527 7.4999 6.08424 7.4999 6.25V12.5C7.4999 12.8315 7.36821 13.1495 7.13379 13.3839C6.89937 13.6183 6.58142 13.75 6.2499 13.75H4.6499Z" fill="#1C7DF8"/>
<path d="M10.0001 18.75C9.85623 18.7488 9.71716 18.6981 9.60637 18.6063L2.73136 12.9813C2.63144 12.8997 2.55919 12.7893 2.5245 12.6651C2.48981 12.5409 2.49439 12.409 2.53761 12.2875C2.58129 12.1667 2.66111 12.0623 2.76624 11.9885C2.87136 11.9147 2.99667 11.8751 3.12511 11.875H5.00011C5.16588 11.875 5.32485 11.8092 5.44206 11.6919C5.55927 11.5747 5.62512 11.4158 5.62512 11.25V8.75C5.62512 8.58424 5.69096 8.42527 5.80817 8.30806C5.92538 8.19085 6.08436 8.125 6.25012 8.125C6.41588 8.125 6.57485 8.19085 6.69206 8.30806C6.80927 8.42527 6.87512 8.58424 6.87512 8.75V11.25C6.87512 11.7473 6.67757 12.2242 6.32594 12.5758C5.97431 12.9275 5.4974 13.125 5.00011 13.125H4.87511L10.0001 17.3187L15.1251 13.125H15.0001C14.5028 13.125 14.0259 12.9275 13.6743 12.5758C13.3227 12.2242 13.1251 11.7473 13.1251 11.25V5H6.87512V6.25C6.87512 6.41576 6.80927 6.57473 6.69206 6.69194C6.57485 6.80915 6.41588 6.875 6.25012 6.875C6.08436 6.875 5.92538 6.80915 5.80817 6.69194C5.69096 6.57473 5.62512 6.41576 5.62512 6.25V4.375C5.62512 4.20924 5.69096 4.05027 5.80817 3.93306C5.92538 3.81585 6.08436 3.75 6.25012 3.75H13.7501C13.9159 3.75 14.0748 3.81585 14.1921 3.93306C14.3093 4.05027 14.3751 4.20924 14.3751 4.375V11.25C14.3751 11.4158 14.441 11.5747 14.5582 11.6919C14.6754 11.8092 14.8344 11.875 15.0001 11.875H16.8751C17.0036 11.8751 17.1289 11.9147 17.234 11.9885C17.3391 12.0623 17.4189 12.1667 17.4626 12.2875C17.5058 12.409 17.5104 12.5409 17.4757 12.6651C17.441 12.7893 17.3688 12.8997 17.2689 12.9813L10.3939 18.6063C10.2831 18.6981 10.144 18.7488 10.0001 18.75ZM13.7501 2.5H6.25012C6.08436 2.5 5.92538 2.43415 5.80817 2.31694C5.69096 2.19973 5.62512 2.04076 5.62512 1.875C5.62512 1.70924 5.69096 1.55027 5.80817 1.43306C5.92538 1.31585 6.08436 1.25 6.25012 1.25H13.7501C13.9159 1.25 14.0748 1.31585 14.1921 1.43306C14.3093 1.55027 14.3751 1.70924 14.3751 1.875C14.3751 2.04076 14.3093 2.19973 14.1921 2.31694C14.0748 2.43415 13.9159 2.5 13.7501 2.5Z" fill="#1C7DF8"/>
</svg>
