<svg width="20" height="20" viewBox="0 0 20 20" fill="none" xmlns="http://www.w3.org/2000/svg">
<path d="M16.6666 7.49935L10.8333 1.66602H5.83325C5.17021 1.66602 4.53433 1.92941 4.06549 2.39825C3.59664 2.86709 3.33325 3.50297 3.33325 4.16602V15.8327C3.33325 16.4957 3.59664 17.1316 4.06549 17.6004C4.53433 18.0693 5.17021 18.3327 5.83325 18.3327H14.1666C14.8296 18.3327 15.4655 18.0693 15.9344 17.6004C16.4032 17.1316 16.6666 16.4957 16.6666 15.8327V7.49935Z" fill="#1C7DF8"/>
<path d="M16.6667 7.49935H12.5001C12.0581 7.49935 11.6341 7.32375 11.3216 7.01119C11.009 6.69863 10.8334 6.27471 10.8334 5.83268V1.66602L16.6667 7.49935ZM12.5001 14.9993H7.50008C7.27907 14.9993 7.06711 14.9116 6.91083 14.7553C6.75455 14.599 6.66675 14.387 6.66675 14.166C6.66675 13.945 6.75455 13.733 6.91083 13.5768C7.06711 13.4205 7.27907 13.3327 7.50008 13.3327H12.5001C12.7211 13.3327 12.9331 13.4205 13.0893 13.5768C13.2456 13.733 13.3334 13.945 13.3334 14.166C13.3334 14.387 13.2456 14.599 13.0893 14.7553C12.9331 14.9116 12.7211 14.9993 12.5001 14.9993ZM12.5001 11.666H7.50008C7.27907 11.666 7.06711 11.5782 6.91083 11.4219C6.75455 11.2657 6.66675 11.0537 6.66675 10.8327C6.66675 10.6117 6.75455 10.3997 6.91083 10.2434C7.06711 10.0871 7.27907 9.99935 7.50008 9.99935H12.5001C12.7211 9.99935 12.9331 10.0871 13.0893 10.2434C13.2456 10.3997 13.3334 10.6117 13.3334 10.8327C13.3334 11.0537 13.2456 11.2657 13.0893 11.4219C12.9331 11.5782 12.7211 11.666 12.5001 11.666ZM8.33341 8.33268H7.50008C7.27907 8.33268 7.06711 8.24488 6.91083 8.0886C6.75455 7.93232 6.66675 7.72036 6.66675 7.49935C6.66675 7.27834 6.75455 7.06637 6.91083 6.91009C7.06711 6.75381 7.27907 6.66602 7.50008 6.66602H8.33341C8.55443 6.66602 8.76639 6.75381 8.92267 6.91009C9.07895 7.06637 9.16675 7.27834 9.16675 7.49935C9.16675 7.72036 9.07895 7.93232 8.92267 8.0886C8.76639 8.24488 8.55443 8.33268 8.33341 8.33268Z" fill="#C4EFFF"/>
</svg>
