<svg width="1553" height="1149" viewBox="0 0 1553 1149" fill="none" xmlns="http://www.w3.org/2000/svg">
<path d="M1552.38 69.23V1078.92C1552.38 1117.17 1522.69 1148.17 1486.06 1148.17H66.33C29.7 1148.17 0.0100098 1117.17 0.0100098 1078.92V69.25C0.0100098 31 29.7 0 66.33 0H1486.08C1522.7 0 1552.38 30.99 1552.38 69.23Z" fill="#F5F8FF"/>
<path d="M1399.07 549.111V724.991C1399.07 737.911 1388.6 748.391 1375.68 748.391H1169.61C1164.89 748.391 1160.49 746.991 1156.82 744.581C1150.44 740.401 1146.22 733.191 1146.22 724.991V549.111C1146.22 536.191 1156.7 525.711 1169.62 525.711H1375.69C1388.6 525.711 1399.07 536.191 1399.07 549.111Z" fill="#B7C5FF"/>
<path d="M1193.9 696.101H1351.38L1317.1 643.341L1290.31 679.231L1247.73 607.721L1193.9 696.101Z" fill="#5574D8"/>
<path d="M1308.79 616.56C1319.44 616.56 1328.07 607.928 1328.07 597.28C1328.07 586.632 1319.44 578 1308.79 578C1298.14 578 1289.51 586.632 1289.51 597.28C1289.51 607.928 1298.14 616.56 1308.79 616.56Z" fill="white"/>
<path d="M989.5 1056.14H126.33C103.14 1056.14 84.3501 1037.34 84.3501 1014.16V553.16C84.3501 529.97 103.15 511.18 126.33 511.18H989.5C1012.69 511.18 1031.48 529.98 1031.48 553.16V1014.16C1031.48 1037.34 1012.69 1056.14 989.5 1056.14Z" fill="#B7C5FF"/>
<path opacity="0.5" d="M139.99 895.309V687.179C139.99 687.179 206.21 771.179 293.94 767.879C381.67 764.579 388.56 716.259 441.01 702.659C500.61 687.199 565.93 792.069 679.57 748.389C792.85 704.849 766.39 664.609 834.66 664.609C877.77 664.609 890.77 763.019 969.73 763.019V895.309H139.99Z" fill="#5574D8"/>
<path opacity="0.5" d="M139.99 895.31V817.27C139.99 817.27 190.79 725.04 274.59 722.01C349.85 719.29 352 805.9 416.5 806.53C481 807.16 522.07 724.48 580.34 697.5C714.51 635.38 759.52 733.61 833.2 734.91C906.06 736.2 969.74 682.78 969.74 682.78V895.31H139.99Z" fill="#5574D8"/>
<path opacity="0.5" d="M139.99 895.309V839.879C139.99 839.879 189.44 752.559 315.87 817.269C442.3 881.979 484.87 817.039 517.12 793.389C549.37 769.739 598.95 756.789 669.35 811.019C764.82 884.559 749.73 776.289 833.19 767.879C884.01 762.749 923.11 847.669 969.73 791.249V895.309H139.99Z" fill="#5574D8"/>
<path d="M969.74 986.369H139.99V990.659H969.74V986.369Z" fill="#3D59A0"/>
<path d="M969.74 897.45H137.85V687.17H142.14V893.16H969.74V897.45Z" fill="#3D59A0"/>
<path d="M509.72 470.37H112.53C96.9701 470.37 84.3501 457.75 84.3501 442.19V209.61C84.3501 194.05 96.9701 181.43 112.53 181.43H509.72C525.28 181.43 537.9 194.05 537.9 209.61V442.19C537.9 457.75 525.28 470.37 509.72 470.37Z" fill="#B7C5FF"/>
<path d="M223.89 246.049H134.09C132.36 246.049 130.97 244.649 130.97 242.929V233.249C130.97 231.519 132.37 230.129 134.09 230.129H223.89C225.62 230.129 227.01 231.529 227.01 233.249V242.929C227.02 244.649 225.62 246.049 223.89 246.049Z" fill="#5574D8"/>
<path opacity="0.5" d="M314.32 264.8H134.09C132.36 264.8 130.97 263.4 130.97 261.68V259.96C130.97 258.23 132.37 256.84 134.09 256.84H314.32C316.05 256.84 317.44 258.24 317.44 259.96V261.68C317.45 263.4 316.05 264.8 314.32 264.8Z" fill="#5574D8"/>
<path d="M491.28 247.46C491.28 253.29 489.08 258.61 485.46 262.63C481.31 267.26 475.27 270.18 468.55 270.18C461.82 270.18 455.79 267.26 451.63 262.63C448.02 258.61 445.82 253.29 445.82 247.46C445.82 234.9 455.99 224.73 468.55 224.73C481.11 224.73 491.28 234.91 491.28 247.46Z" fill="#5574D8"/>
<path d="M468.56 246.821C472.459 246.821 475.62 243.66 475.62 239.761C475.62 235.862 472.459 232.701 468.56 232.701C464.661 232.701 461.5 235.862 461.5 239.761C461.5 243.66 464.661 246.821 468.56 246.821Z" fill="#F5F8FF"/>
<path d="M485.47 262.641C481.32 267.271 475.28 270.191 468.56 270.191C461.83 270.191 455.8 267.271 451.64 262.641C454.51 256.151 461.01 251.631 468.56 251.631C476.11 251.631 482.59 256.151 485.47 262.641Z" fill="#F5F8FF"/>
<path d="M245.58 340.42L234.29 347.23C236.69 352.63 238.03 358.62 238.03 364.91C238.03 378.72 231.59 391.05 221.54 399.05L228.39 410.33C242.2 399.98 251.14 383.47 251.14 364.9C251.15 356.14 249.14 347.83 245.58 340.42Z" fill="#5574D8"/>
<path d="M194.37 308.129C186.53 308.129 179.06 309.729 172.26 312.609L178.55 324.209C183.46 322.299 188.79 321.249 194.37 321.249C208.24 321.249 220.62 327.759 228.62 337.869L239.92 331.059C229.56 317.149 213 308.129 194.37 308.129Z" fill="#F5F8FF"/>
<path d="M194.37 408.56C170.31 408.56 150.73 388.98 150.73 364.91C150.73 350.33 157.92 337.38 168.95 329.45L162.66 317.84H162.65C147.55 328.05 137.6 345.35 137.6 364.91C137.6 396.22 163.06 421.68 194.36 421.68C203.2 421.68 211.58 419.65 219.05 416.03L212.2 404.76C206.76 407.2 200.72 408.56 194.37 408.56Z" fill="#5574D8"/>
<path d="M328.19 332.93H320.62C318.89 332.93 317.5 331.53 317.5 329.81V327.39C317.5 325.66 318.9 324.27 320.62 324.27H328.19C329.92 324.27 331.31 325.67 331.31 327.39V329.81C331.31 331.53 329.91 332.93 328.19 332.93Z" fill="#F5F8FF"/>
<path d="M439.23 334.339H353.64C351.91 334.339 350.52 332.939 350.52 331.219V325.989C350.52 324.259 351.92 322.869 353.64 322.869H439.23C440.96 322.869 442.35 324.269 442.35 325.989V331.219C442.36 332.939 440.96 334.339 439.23 334.339Z" fill="#5574D8"/>
<path d="M328.19 369.238H320.62C318.89 369.238 317.5 367.838 317.5 366.118V363.698C317.5 361.968 318.9 360.578 320.62 360.578H328.19C329.92 360.578 331.31 361.978 331.31 363.698V366.118C331.31 367.838 329.91 369.238 328.19 369.238Z" fill="#F5F8FF"/>
<path d="M467.35 370.65H353.65C351.92 370.65 350.53 369.25 350.53 367.53V362.3C350.53 360.57 351.93 359.18 353.65 359.18H467.35C469.08 359.18 470.47 360.58 470.47 362.3V367.53C470.47 369.25 469.07 370.65 467.35 370.65Z" fill="#5574D8"/>
<path d="M328.19 405.558H320.62C318.89 405.558 317.5 404.158 317.5 402.438V400.018C317.5 398.288 318.9 396.898 320.62 396.898H328.19C329.92 396.898 331.31 398.298 331.31 400.018V402.438C331.31 404.158 329.91 405.558 328.19 405.558Z" fill="#F5F8FF"/>
<path d="M404.09 406.958H353.64C351.91 406.958 350.52 405.558 350.52 403.838V398.608C350.52 396.878 351.92 395.488 353.64 395.488H404.09C405.82 395.488 407.21 396.888 407.21 398.608V403.838C407.22 405.558 405.82 406.958 404.09 406.958Z" fill="#5574D8"/>
<path d="M1006.16 470.37H608.97C593.41 470.37 580.79 457.75 580.79 442.19V209.61C580.79 194.05 593.41 181.43 608.97 181.43H1006.16C1021.72 181.43 1034.34 194.05 1034.34 209.61V442.19C1034.35 457.75 1021.73 470.37 1006.16 470.37Z" fill="#B7C5FF"/>
<path d="M672.97 377.35H642.53V434.45H672.97V377.35Z" fill="#5574D8"/>
<path opacity="0.5" d="M732.9 346.109H702.46V434.459H732.9V346.109Z" fill="white"/>
<path d="M792.82 317.729H762.38V434.448H792.82V317.729Z" fill="#5574D8"/>
<path opacity="0.5" d="M852.75 296.539H822.31V434.449H852.75V296.539Z" fill="white"/>
<path d="M912.68 267.449H882.24V434.449H912.68V267.449Z" fill="#5574D8"/>
<path opacity="0.5" d="M972.61 239.379H942.17V434.459H972.61V239.379Z" fill="white"/>
<path d="M1101.57 181.43H1443.7C1457.14 181.43 1468.04 192.33 1468.04 205.77V446.03C1468.04 459.47 1457.14 470.37 1443.7 470.37H1101.57C1088.13 470.37 1077.23 459.47 1077.23 446.03V205.77C1077.23 192.33 1088.13 181.43 1101.57 181.43Z" fill="#B7C5FF"/>
<path d="M1234.61 415.079C1219.61 415.079 1210.75 393.199 1200.51 367.869C1190.94 344.209 1180.09 317.389 1165.5 316.459C1156.25 315.879 1140.77 325.339 1119.67 373.809C1118.72 375.979 1116.2 376.969 1114.03 376.029C1111.86 375.079 1110.86 372.559 1111.81 370.389C1130.61 327.219 1148.37 306.789 1166.05 307.899C1186.03 309.169 1197.44 337.379 1208.47 364.649C1216.4 384.269 1225.4 406.499 1234.63 406.499C1234.66 406.499 1234.68 406.499 1234.71 406.499C1246.44 406.339 1257.2 372.989 1266.69 343.569C1279.36 304.279 1291.33 267.169 1312.92 266.199C1313.21 266.189 1313.5 266.179 1313.78 266.179C1328.95 266.179 1340.06 284.309 1350.82 301.859C1357.9 313.399 1366.67 327.769 1372.42 326.519C1379.44 324.979 1383.1 302.569 1386.04 284.559C1390.67 256.179 1395.92 224.019 1416.06 218.469C1420.68 217.199 1425.67 217.429 1430.9 219.149C1433.15 219.889 1434.37 222.319 1433.63 224.569C1432.89 226.819 1430.46 228.039 1428.21 227.299C1424.62 226.119 1421.3 225.929 1418.34 226.739C1403.5 230.829 1398.72 260.109 1394.51 285.939C1390.3 311.729 1386.98 332.109 1374.26 334.899C1362.57 337.469 1353.74 323.039 1343.51 306.339C1334.43 291.519 1324.15 274.749 1313.74 274.749C1313.6 274.749 1313.45 274.749 1313.31 274.759C1297.67 275.469 1285.55 313.039 1274.86 346.189C1262.98 383.019 1252.72 414.819 1234.84 415.059C1234.75 415.079 1234.68 415.079 1234.61 415.079Z" fill="#5574D8"/>
<path opacity="0.4" d="M1346.1 278.4C1350.4 260.206 1339.13 241.974 1320.94 237.678C1302.74 233.382 1284.51 244.649 1280.22 262.842C1275.92 281.036 1287.19 299.268 1305.38 303.564C1323.57 307.86 1341.81 296.594 1346.1 278.4Z" fill="#F5F8FF"/>
<path d="M1330.24 274.652C1332.46 265.22 1326.62 255.767 1317.19 253.54C1307.76 251.312 1298.31 257.154 1296.08 266.586C1293.85 276.019 1299.69 285.472 1309.12 287.699C1318.56 289.926 1328.01 284.085 1330.24 274.652Z" fill="#F5F8FF"/>
<path d="M1399.07 816.29V1014.07C1399.07 1029.28 1386.74 1041.61 1371.53 1041.61H1173.75C1158.54 1041.61 1146.21 1029.28 1146.21 1014.07V816.29C1146.21 801.08 1158.54 788.75 1173.75 788.75H1371.53C1386.73 788.75 1399.07 801.08 1399.07 816.29Z" fill="#B7C5FF"/>
<path d="M1343.05 915.17C1343.05 954.06 1311.52 985.59 1272.63 985.59C1233.75 985.59 1202.22 954.06 1202.22 915.17C1202.22 876.29 1233.75 844.76 1272.63 844.76V872.22C1248.91 872.22 1229.69 891.45 1229.69 915.16C1229.69 938.89 1248.92 958.11 1272.63 958.11C1296.36 958.11 1315.58 938.88 1315.58 915.16H1343.05V915.17Z" fill="#5574D8"/>
<path d="M1343.05 915.17H1315.59C1315.59 891.45 1296.36 872.229 1272.64 872.229V844.77C1311.52 844.77 1343.05 876.29 1343.05 915.17Z" fill="white"/>
<path d="M1484.63 0H67.76C30.34 0 0 30.34 0 67.76V88.39H1552.38V67.76C1552.38 30.33 1522.05 0 1484.63 0Z" fill="#748FFE"/>
<path d="M105.52 55.4599C111.744 55.4599 116.79 50.4142 116.79 44.1899C116.79 37.9657 111.744 32.9199 105.52 32.9199C99.2958 32.9199 94.25 37.9657 94.25 44.1899C94.25 50.4142 99.2958 55.4599 105.52 55.4599Z" fill="white"/>
<path opacity="0.5" d="M149 55.4599C155.224 55.4599 160.27 50.4142 160.27 44.1899C160.27 37.9657 155.224 32.9199 149 32.9199C142.776 32.9199 137.73 37.9657 137.73 44.1899C137.73 50.4142 142.776 55.4599 149 55.4599Z" fill="white"/>
<path opacity="0.5" d="M192.48 55.4599C198.704 55.4599 203.75 50.4142 203.75 44.1899C203.75 37.9657 198.704 32.9199 192.48 32.9199C186.256 32.9199 181.21 37.9657 181.21 44.1899C181.21 50.4142 186.256 55.4599 192.48 55.4599Z" fill="white"/>
</svg>
