<svg width="32" height="32" viewBox="0 0 32 32" fill="none" xmlns="http://www.w3.org/2000/svg">
<path fill-rule="evenodd" clip-rule="evenodd" d="M19.1378 27.756C17.3063 29.2324 14.6932 29.2324 12.8617 27.7559L5.3543 21.7037C3.8428 20.4852 3.1734 18.5018 3.6372 16.6166L6.0507 6.80667C6.6005 4.57197 8.6046 3.00117 10.9059 3.00117L21.0937 3.00117C23.3949 3.00117 25.399 4.57187 25.9489 6.80647L28.3628 16.6164C28.8267 18.5017 28.1572 20.4852 26.6456 21.7038L19.1378 27.756Z" fill="#FFD700"/>
<path d="M20.4499 21.2608C20.3202 21.2605 20.1925 21.2286 20.0778 21.168L16 19.0239L11.9222 21.168C11.7901 21.2372 11.6414 21.2681 11.4927 21.2572C11.344 21.2464 11.2014 21.1943 11.0808 21.1067C10.9601 21.0191 10.8664 20.8995 10.8101 20.7615C10.7538 20.6235 10.7372 20.4725 10.7621 20.3255L11.5405 15.7845L8.24113 12.5683C8.1344 12.4641 8.05892 12.3321 8.02324 12.1872C7.98755 12.0424 7.99306 11.8905 8.03916 11.7486C8.08526 11.6067 8.1701 11.4806 8.28411 11.3844C8.39812 11.2882 8.53675 11.2258 8.68436 11.2042L13.2438 10.5418L15.2832 6.4103C15.3566 6.28537 15.4614 6.18179 15.5872 6.10982C15.713 6.03786 15.8555 6 16.0004 6C16.1453 6 16.2878 6.03786 16.4136 6.10982C16.5394 6.18179 16.6442 6.28537 16.7176 6.4103L18.7562 10.5418L23.3156 11.2042C23.4632 11.2258 23.6019 11.2882 23.7159 11.3844C23.8299 11.4806 23.9147 11.6067 23.9608 11.7486C24.0069 11.8905 24.0125 12.0424 23.9768 12.1872C23.9411 12.3321 23.8656 12.4641 23.7589 12.5683L20.4595 15.7845L21.2387 20.3255C21.2584 20.4403 21.2528 20.558 21.2223 20.6704C21.1917 20.7828 21.137 20.8872 21.062 20.9763C20.9869 21.0653 20.8934 21.1369 20.7878 21.1861C20.6822 21.2352 20.5663 21.2607 20.4499 21.2608Z" fill="#D4AF37"/>
</svg>
