<svg width="32" height="32" viewBox="0 0 32 32" fill="none" xmlns="http://www.w3.org/2000/svg">
<path fill-rule="evenodd" clip-rule="evenodd" d="M19.1378 27.756C17.3063 29.2324 14.6932 29.2324 12.8617 27.7559L5.3543 21.7037C3.8428 20.4852 3.1734 18.5018 3.6372 16.6166L6.0507 6.80667C6.6005 4.57197 8.6046 3.00117 10.9059 3.00117L21.0937 3.00117C23.3949 3.00117 25.399 4.57187 25.9489 6.80647L28.3628 16.6164C28.8267 18.5017 28.1572 20.4852 26.6456 21.7038L19.1378 27.756Z" fill="#FFD700"/>
<g clip-path="url(#clip0_506_93)">
<path d="M11.2062 20.4398L12.2812 15.0023L8.1875 11.2648L13.6906 10.6086L15.9781 5.55859L18.3031 10.5898L23.8125 11.2055L19.7469 14.9742L20.8625 20.4023L16.025 17.6992L11.2062 20.4398Z" fill="#B8AC84"/>
<path d="M16 13L8.1875 11.2656L12.2812 15.0031L16 13Z" fill="#A38900"/>
<path d="M16 13L11.2063 20.4406L16.025 17.7L20.8625 20.4031L16 13Z" fill="#A38900"/>
<path d="M16 13.0008L23.8125 11.207L19.7469 14.9758L16 13.0008Z" fill="#A38900"/>
<path d="M15.978 5.55859L15.9999 12.9992L18.303 10.5898L15.978 5.55859Z" fill="#A38900"/>
</g>
<defs>
<clipPath id="clip0_506_93">
<rect width="16" height="16" fill="white" transform="translate(8 5)"/>
</clipPath>
</defs>
</svg>
