<svg width="20" height="20" viewBox="0 0 20 20" fill="none" xmlns="http://www.w3.org/2000/svg">
<g clip-path="url(#clip0_504_124)">
<path d="M10.3437 11.4844C11.0937 11.7344 11.8438 11.8281 12.625 11.8594C13.3594 11.8906 14.125 11.7969 14.6875 12.3594C14.7969 12.4687 14.8906 12.5937 14.9531 12.7187C17.0625 11.9375 18.5781 9.90625 18.5781 7.53125C18.5781 4.48438 16.1094 2 13.0469 2C10 2 7.51562 4.46875 7.51562 7.53125C7.51562 8.71875 7.89063 9.8125 8.51563 10.7031C9.14063 10.9219 9.70312 11.2656 10.3437 11.4844ZM11.375 9.84375C11.4375 9.6875 11.5 9.51563 11.5469 9.34375C11.5938 9.375 11.6406 9.39062 11.6875 9.42188C12.0625 9.625 12.4688 9.73438 12.9062 9.71875C13.0625 9.71875 13.2344 9.67187 13.3906 9.625C14.0469 9.35937 14.1406 8.5625 13.5781 8.10938C13.3438 7.92188 13.0938 7.8125 12.8281 7.71875C12.5 7.57813 12.1719 7.42187 11.9062 7.20312C11.25 6.67187 11.3125 5.64062 11.9688 5.125C12.1875 4.95312 12.4375 4.84375 12.7031 4.78125C12.7344 4.78125 12.7812 4.76562 12.8281 4.75V4.14062H13.375V4.70312C13.5937 4.73437 13.7969 4.76562 14 4.8125C14.1719 4.85938 14.3281 4.9375 14.4844 5.01562C14.5 5.01562 14.5313 5.07812 14.5156 5.09375C14.4531 5.28125 14.375 5.45312 14.2969 5.64062C14.0781 5.51562 13.8438 5.42188 13.6094 5.39063C13.3281 5.34375 13.0312 5.3125 12.75 5.42188C12.4688 5.51563 12.2656 5.71875 12.2187 6.01563C12.1719 6.3125 12.2656 6.57813 12.5312 6.75C12.75 6.89063 12.9844 7 13.2188 7.10938C13.5312 7.25 13.8281 7.375 14.1094 7.57813C14.6094 7.9375 14.8125 8.40625 14.7344 9.01563C14.6563 9.57813 14.3125 9.96875 13.7969 10.1875C13.6563 10.25 13.4844 10.2812 13.3281 10.3437V10.9687H12.7344V10.375C12.5313 10.3438 12.3281 10.3281 12.1406 10.2813C11.8906 10.2344 11.6562 10.1406 11.4375 10.0156C11.3594 9.9375 11.3438 9.90625 11.375 9.84375Z" fill="#1C7DF8"/>
<path d="M19.5156 12.7022C19.2813 12.671 19.0156 12.7179 18.7969 12.8116C17.4375 13.296 16.1562 13.8741 14.7969 14.3897C14.7344 14.421 14.6563 14.4366 14.6094 14.4991C14.2656 14.921 13.7969 15.0772 13.2812 15.0929C12.4375 15.1085 11.6094 15.1241 10.7656 15.1554C10.2031 15.171 9.625 15.1866 9.0625 15.1866C8.92188 15.1866 8.73438 15.0304 8.73438 14.8585C8.71875 14.6866 8.84375 14.6397 8.98438 14.6241C9.04688 14.6241 9.09375 14.6085 9.15625 14.6085C9.85937 14.5929 10.5781 14.5772 11.2812 14.5616C12.0312 14.546 12.7656 14.5304 13.5156 14.4991C14.0312 14.4679 14.3906 14.0929 14.3906 13.5929C14.4062 13.0616 13.9844 12.6554 13.4219 12.671C12.5938 12.6866 11.5313 12.5772 10.6719 12.4366C9.65625 12.2804 9.15625 11.7491 8.17187 11.4366C6.64062 10.9522 5.09375 11.1241 3.51562 11.1554C3.51562 11.046 3.51562 10.9366 3.5 10.8272C3.48437 10.4835 3.32812 10.3272 2.96875 10.3429C2.04687 10.3585 1.125 10.3897 0.21875 10.4054C0.15625 10.4054 0.109375 10.421 0 10.421C0.046875 10.9054 0.09375 11.3897 0.15625 11.8585C0.40625 13.5929 1.01562 15.2335 1.98437 16.7179C2.03125 16.7804 2.14062 16.8429 2.21875 16.8429C2.53125 16.8585 2.84375 16.8429 3.15625 16.8272C3.46875 16.8116 3.64063 16.6397 3.625 16.3272C3.625 16.2335 3.625 16.1554 3.625 16.0616C4.32813 16.2647 5.03125 16.4835 5.75 16.6866C7.0625 17.0616 8.375 17.4835 9.70312 17.8116C10.7969 18.0929 11.9063 18.1241 12.9531 17.546C15.1719 16.3272 17.3906 15.1085 19.6094 13.8897C19.7187 13.8272 19.8125 13.7335 19.8906 13.6241C20.1406 13.2647 19.9531 12.7647 19.5156 12.7022Z" fill="#1C7DF8"/>
</g>
<defs>
<clipPath id="clip0_504_124">
<rect width="20" height="20" fill="white"/>
</clipPath>
</defs>
</svg>
