<svg width="139" height="139" viewBox="0 0 139 139" fill="none" xmlns="http://www.w3.org/2000/svg">
<g filter="url(#filter0_d_470_155)">
<path d="M24 37.9872C24 29.1577 31.1577 22 39.9873 22L99.3428 22C108.172 22 115.33 29.1577 115.33 37.9873V97.344C115.33 106.173 108.172 113.331 99.3427 113.331H39.9872C31.1577 113.331 24 106.173 24 97.3439V37.9872Z" fill="white"/>
</g>
<g clip-path="url(#clip0_470_155)">
<path d="M92.8875 74.25C92.3648 76.1801 91.6004 78.0364 90.6125 79.775L94.75 83.9125L85.9125 92.75L81.775 88.6125C80.0364 89.6004 78.1801 90.3648 76.25 90.8875V96.75H63.75V90.8875C62.6345 90.5888 61.5437 90.2043 60.4875 89.7375L67.5 82.7875C81.0375 85.1125 90.1125 69.4375 81.8 58.7625C79.7433 56.1374 76.8705 54.2726 73.6355 53.4627C70.4005 52.6528 66.9879 52.944 63.9369 54.2902C60.886 55.6365 58.3706 57.9611 56.7884 60.8967C55.2061 63.8322 54.6472 67.2113 55.2 70.5L48.2625 77.5125C47.7957 76.4563 47.4112 75.3655 47.1125 74.25H41.25V61.75H47.1125C47.6352 59.8199 48.3996 57.9636 49.3875 56.225L45.25 52.0875L54.0875 43.25L58.225 47.3875C59.9636 46.3996 61.8199 45.6352 63.75 45.1125V39.25H76.25V45.1125C78.1801 45.6352 80.0364 46.3996 81.775 47.3875L85.9125 43.25L94.75 52.0875L90.6125 56.225C91.6004 57.9636 92.3648 59.8199 92.8875 61.75H98.75V74.25H92.8875Z" fill="#1C7DF8"/>
<path d="M92.8875 74.25C92.3648 76.1801 91.6004 78.0364 90.6125 79.775L94.75 83.9125L88.5 90.1625C87.4117 90.8181 86.2799 91.3986 85.1125 91.9L81.8 88.5875C80.0548 89.586 78.1899 90.3589 76.25 90.8875V94.1375C72.0096 94.514 67.7387 93.9374 63.75 92.45V90.8875C62.6345 90.5888 61.5437 90.2043 60.4875 89.7375L67.5 82.7875C70.7896 83.3378 74.1687 82.7761 77.1033 81.191C80.0379 79.606 82.3605 77.0882 83.7041 74.0355C85.0476 70.9828 85.3354 67.5693 84.522 64.3348C83.7085 61.1002 81.8403 58.229 79.2125 56.175C68.5625 47.85 52.875 56.9625 55.2 70.5L48.2625 77.5125C46.6125 73.7625 47.6875 74.25 46.3625 74.25C45.0688 70.2175 44.6887 65.9476 45.25 61.75H47.1125C47.6352 59.8199 48.3996 57.9636 49.3875 56.225L47.325 54.1625C49.0312 50.2339 51.5936 46.7362 54.825 43.925L58.2875 47.3875C60.0064 46.4044 61.8414 45.6402 63.75 45.1125V39.25H76.25V45.1125C78.1801 45.6352 80.0364 46.3996 81.775 47.3875L85.9125 43.25L94.75 52.0875L90.6125 56.225C91.6004 57.9636 92.3648 59.8199 92.8875 61.75H98.75V74.25H92.8875Z" fill="#1C7DF8"/>
<path d="M43.75 94.2499C43.0905 93.585 42.7204 92.6864 42.7204 91.7499C42.7204 90.8134 43.0905 89.9148 43.75 89.2499L62.15 70.4999C61.5993 68.9418 61.5011 67.2596 61.8667 65.648C62.2323 64.0364 63.0469 62.5612 64.2161 61.3933C65.3853 60.2254 66.8613 59.4125 68.4734 59.0487C70.0854 58.6848 71.7675 58.785 73.325 59.3374L67.7375 64.9124L69.5125 68.4499L73.05 70.2249L78.625 64.6374C79.1827 66.1931 79.2885 67.8748 78.9301 69.4881C78.5716 71.1014 77.7637 72.5801 76.5997 73.7533C75.4357 74.9264 73.9633 75.7459 72.3529 76.117C70.7425 76.488 69.06 76.3954 67.5 75.8499L48.75 94.2499C48.0851 94.9094 47.1865 95.2795 46.25 95.2795C45.3135 95.2795 44.4149 94.9094 43.75 94.2499Z" fill="#72D962"/>
<path d="M69.625 72.5752C68.8847 72.4962 68.1361 72.5806 67.432 72.8225C66.7279 73.0644 66.0854 73.4579 65.55 73.9752L49.2125 90.0752C47.5 91.8252 44.5375 91.9252 43.25 89.8502C42.7875 90.6012 42.62 91.497 42.78 92.3644C42.9399 93.2317 43.4159 94.0089 44.1159 94.5455C44.8158 95.0821 45.6899 95.34 46.5691 95.2693C47.4482 95.1986 48.2698 94.8043 48.875 94.1627L67.5 75.8502C68.9678 76.3699 70.5477 76.4885 72.0766 76.1938C73.6055 75.8991 75.0281 75.2017 76.1976 74.1737C77.3671 73.1456 78.241 71.8242 78.7292 70.3456C79.2175 68.867 79.3023 67.285 78.975 65.7627C78.5125 67.8416 77.3078 69.6805 75.5865 70.9346C73.8652 72.1887 71.7456 72.7721 69.625 72.5752Z" fill="#72D962"/>
<path d="M98.75 60.5H93.825C93.3878 59.103 92.8272 57.7477 92.15 56.45L95.6375 53C95.7547 52.8838 95.8477 52.7455 95.9111 52.5932C95.9746 52.4409 96.0072 52.2775 96.0072 52.1125C96.0072 51.9475 95.9746 51.7841 95.9111 51.6318C95.8477 51.4795 95.7547 51.3412 95.6375 51.225L86.8 42.3625C86.6838 42.2453 86.5455 42.1523 86.3932 42.0889C86.2409 42.0254 86.0775 41.9928 85.9125 41.9928C85.7475 41.9928 85.5841 42.0254 85.4318 42.0889C85.2795 42.1523 85.1412 42.2453 85.025 42.3625L81.55 45.85C80.2523 45.1728 78.897 44.6122 77.5 44.175V39.25C77.5 38.9185 77.3683 38.6005 77.1339 38.3661C76.8995 38.1317 76.5815 38 76.25 38H63.75C63.4185 38 63.1005 38.1317 62.8661 38.3661C62.6317 38.6005 62.5 38.9185 62.5 39.25V44.175C61.103 44.6122 59.7477 45.1728 58.45 45.85L55 42.3625C54.8838 42.2453 54.7455 42.1523 54.5932 42.0889C54.4409 42.0254 54.2775 41.9928 54.1125 41.9928C53.9475 41.9928 53.7841 42.0254 53.6318 42.0889C53.4795 42.1523 53.3412 42.2453 53.225 42.3625L44.3625 51.2C44.2453 51.3162 44.1523 51.4545 44.0889 51.6068C44.0254 51.7591 43.9928 51.9225 43.9928 52.0875C43.9928 52.2525 44.0254 52.4159 44.0889 52.5682C44.1523 52.7205 44.2453 52.8588 44.3625 52.975L47.85 56.45C47.1728 57.7477 46.6122 59.103 46.175 60.5H41.25C40.9185 60.5 40.6005 60.6317 40.3661 60.8661C40.1317 61.1005 40 61.4185 40 61.75V74.25C40 74.5815 40.1317 74.8995 40.3661 75.1339C40.6005 75.3683 40.9185 75.5 41.25 75.5H46.175C46.4406 76.3519 46.7578 77.1868 47.125 78C47.2076 78.1851 47.3339 78.3473 47.4931 78.4727C47.6523 78.5981 47.8397 78.6829 48.0389 78.7198C48.2382 78.7567 48.4435 78.7446 48.637 78.6845C48.8306 78.6245 49.0066 78.5182 49.15 78.375C56.525 70.875 56.5875 71.1125 56.4375 70.2375C54.0375 56.3375 72.125 48.35 80.8375 59.525C82.4268 61.5554 83.4131 63.9918 83.6839 66.5561C83.9547 69.1203 83.499 71.7089 82.3688 74.0265C81.2387 76.3442 79.4797 78.2973 77.2926 79.663C75.1055 81.0287 72.5785 81.7519 70 81.75C67.7875 81.75 67.3375 81.2125 66.65 81.9C59.225 89.225 59.0875 89.0625 59.2625 89.9625C59.3001 90.162 59.3858 90.3494 59.5121 90.5084C59.6385 90.6674 59.8016 90.7932 59.9875 90.875C60.8007 91.2422 61.6356 91.5594 62.4875 91.825V96.75C62.4875 97.0815 62.6192 97.3995 62.8536 97.6339C63.088 97.8683 63.406 98 63.7375 98H76.25C76.5815 98 76.8995 97.8683 77.1339 97.6339C77.3683 97.3995 77.5 97.0815 77.5 96.75V91.825C78.897 91.3878 80.2523 90.8272 81.55 90.15L85 93.6375C85.1162 93.7547 85.2545 93.8477 85.4068 93.9111C85.5591 93.9746 85.7225 94.0072 85.8875 94.0072C86.0525 94.0072 86.2159 93.9746 86.3682 93.9111C86.5205 93.8477 86.6588 93.7547 86.775 93.6375L95.6125 84.8C95.7297 84.6838 95.8227 84.5455 95.8861 84.3932C95.9496 84.2409 95.9822 84.0775 95.9822 83.9125C95.9822 83.7475 95.9496 83.5841 95.8861 83.4318C95.8227 83.2795 95.7297 83.1412 95.6125 83.025L92.125 79.55C92.8108 78.2532 93.3797 76.8978 93.825 75.5H98.75C99.0815 75.5 99.3995 75.3683 99.6339 75.1339C99.8683 74.8995 100 74.5815 100 74.25V61.75C100 61.4185 99.8683 61.1005 99.6339 60.8661C99.3995 60.6317 99.0815 60.5 98.75 60.5ZM97.5 73C92.825 73 92.0125 72.7125 91.675 73.925C89.5875 81.6875 87.1375 78.0625 92.925 83.925L85.85 91C82.5875 87.725 82.175 86.925 81.1 87.5375C74.1125 91.5 75 87.275 75 95.5H65C65 89.0875 65.4125 90.1875 62.7375 89.25L67.9625 84.0875C84.2125 86.2 92.9625 65.2625 80 55.1625C68.75 46.4125 52.075 55.55 53.875 70L48.75 75.2625C47.8 72.55 48.75 73 42.5 73V63C47.175 63 47.9875 63.2875 48.325 62.075C50.4125 54.3125 52.8625 57.9375 47.075 52.075L54.15 45C57.4125 48.275 57.825 49.075 58.9 48.4625C65.8875 44.5 65 48.725 65 40.5H75C75 45.175 74.7125 45.9875 75.925 46.325C83.6875 48.4125 80.0625 50.8625 85.925 45.075L93 52.15C89.725 55.4125 88.925 55.825 89.5375 56.9C93.5 63.8875 89.275 63 97.5 63V73Z" fill="#1C7DF8"/>
<path d="M79.8125 64.2502C79.7409 64.0504 79.6195 63.872 79.4598 63.7321C79.3002 63.5921 79.1075 63.4951 78.9 63.4502C78.0125 63.2502 78.125 63.4502 72.8 68.7377L70.4375 67.5627L69.2625 65.2002C74.6 59.8627 74.75 60.0002 74.55 59.1002C74.5051 58.8927 74.4081 58.7 74.2682 58.5404C74.1282 58.3807 73.9499 58.2594 73.75 58.1877C72.0319 57.576 70.1792 57.4458 68.3924 57.8111C66.6056 58.1765 64.9527 59.0236 63.6127 60.2606C62.2726 61.4977 61.2964 63.0777 60.7896 64.8297C60.2828 66.5816 60.2648 68.4388 60.7375 70.2002L42.8375 88.3502C41.9341 89.2536 41.4266 90.4789 41.4266 91.7565C41.4266 93.0341 41.9341 94.2593 42.8375 95.1627C43.7409 96.0661 44.9662 96.5736 46.2437 96.5736C47.5213 96.5736 48.7466 96.0661 49.65 95.1627L67.8 77.2627C69.5614 77.7354 71.4186 77.7174 73.1706 77.2106C74.9225 76.7038 76.5025 75.7276 77.7396 74.3875C78.9767 73.0475 79.8237 71.3946 80.1891 69.6078C80.5545 67.821 80.4242 65.9683 79.8125 64.2502ZM47.8875 93.3752C47.4457 93.7596 46.8746 93.962 46.2894 93.9417C45.7042 93.9214 45.1485 93.6798 44.7344 93.2658C44.3204 92.8517 44.0788 92.296 44.0585 91.7108C44.0382 91.1256 44.2406 90.5545 44.625 90.1127C64.525 69.9127 63.7125 71.1752 63.375 70.1127C62.9604 68.9466 62.8408 67.696 63.0269 66.4724C63.213 65.2488 63.699 64.0903 64.4416 63.1002C65.1842 62.1101 66.1603 61.3191 67.2828 60.7978C68.4053 60.2766 69.6394 60.0412 70.875 60.1127C66.7 64.2502 66.0875 64.4502 66.625 65.5002C68.5125 69.2502 68.45 69.3502 68.95 69.6002C72.45 71.3502 73.1 71.9627 73.95 71.1252L77.9125 67.1752C77.984 68.4108 77.7486 69.6449 77.2274 70.7674C76.7061 71.8899 75.9151 72.866 74.925 73.6086C73.9349 74.3512 72.7764 74.8372 71.5528 75.0233C70.3292 75.2094 69.0786 75.0898 67.9125 74.6752C66.825 74.2502 68.0625 73.4877 47.8875 93.3752Z" fill="#72D962"/>
</g>
<defs>
<filter id="filter0_d_470_155" x="0.710701" y="0.429077" width="137.909" height="137.91" filterUnits="userSpaceOnUse" color-interpolation-filters="sRGB">
<feFlood flood-opacity="0" result="BackgroundImageFix"/>
<feColorMatrix in="SourceAlpha" type="matrix" values="0 0 0 0 0 0 0 0 0 0 0 0 0 0 0 0 0 0 127 0" result="hardAlpha"/>
<feOffset dy="1.71838"/>
<feGaussianBlur stdDeviation="11.6446"/>
<feColorMatrix type="matrix" values="0 0 0 0 0.0734028 0 0 0 0 0.629167 0 0 0 0 0.3624 0 0 0 0.37 0"/>
<feBlend mode="normal" in2="BackgroundImageFix" result="effect1_dropShadow_470_155"/>
<feBlend mode="normal" in="SourceGraphic" in2="effect1_dropShadow_470_155" result="shape"/>
</filter>
<clipPath id="clip0_470_155">
<rect width="60" height="60" fill="white" transform="translate(40 38)"/>
</clipPath>
</defs>
</svg>
