<svg width="600" height="151" viewBox="0 0 600 151" fill="none" xmlns="http://www.w3.org/2000/svg">
<path d="M589.917 69.6C589.717 63.9 585.117 59 578.317 59C570.817 59 566.517 63.7 565.817 69.6H589.917ZM578.517 50.4C590.817 50.4 599.917 59.4 599.917 71.9C599.917 72.8 599.917 74.4 599.717 75.1C599.717 76.2 598.617 77.1 597.617 77.1H565.017C565.017 83.4 570.917 89.8 579.117 89.8C584.617 89.8 587.817 87.8 590.717 86C591.617 85.3 592.517 85.1 593.417 86.2L596.117 90.5C597.017 91.4 597.217 92.3 595.917 93.7C592.517 96.6 586.317 99.6 578.417 99.6C564.017 99.6 554.917 88.5 554.917 75.2C555.117 61.7 564.217 50.4 578.517 50.4ZM514.717 94.7C514.017 94.3 513.317 93.3 513.817 92.2L515.917 87.9C516.417 87 517.717 86.5 518.917 87.2C521.617 88.8 525.117 90.6 530.517 90.6C534.417 90.6 536.717 88.8 536.717 86.1C536.717 82.9 533.117 80.9 526.717 78C519.417 74.8 513.917 71 513.917 63.3C513.917 57.4 518.017 50.6 529.417 50.6C536.017 50.6 540.817 52.6 543.117 54C544.217 54.9 544.717 56.3 544.017 57.4L542.417 60.6C541.717 62 540.317 62 539.417 61.5C536.217 60.1 533.017 59.2 529.417 59.2C525.317 59.2 523.517 61.2 523.517 63.3C523.517 66.2 526.917 68 531.517 70.1C540.217 73.7 546.817 76.9 546.817 85.5C546.817 92.7 540.417 99.1 529.917 99.1C522.717 99.4 517.517 96.5 514.717 94.7ZM481.717 91.1C486.517 91.1 491.317 87.7 492.617 85.5V77.8C491.917 77.3 488.317 76.2 483.917 76.2C478.417 76.2 474.117 79.1 474.117 83.9C474.417 87.9 476.917 91.1 481.717 91.1ZM483.317 68.7C488.117 68.7 492.917 70.1 492.917 70.1C493.117 62.6 491.317 59.5 485.417 59.5C479.917 59.5 474.717 61.1 472.217 61.8C470.817 62 469.917 61.1 469.517 59.8L468.617 56C468.417 54.4 469.117 53.7 470.217 53.3C471.117 53.1 477.717 50.6 486.417 50.6C501.417 50.6 502.817 59.6 502.817 71.2V96.1C502.717 97.3 501.717 98.3 500.517 98.4H497.117C496.217 98.4 495.717 98 495.317 96.8L494.217 93.6C490.317 97.4 485.117 99.5 479.617 99.5C470.717 99.5 464.317 93.6 464.317 83.9C464.417 75.2 471.217 68.7 483.317 68.7ZM439.117 50.4C446.417 50.4 451.917 53.1 456.217 58.5C457.117 59.6 456.917 61 455.717 61.9L452.117 65.3C450.717 66.4 449.817 65.5 449.117 64.8C447.117 62.5 443.217 60.1 439.317 60.1C431.317 60.1 424.917 66.7 424.917 74.8C424.917 83.2 431.117 89.7 438.817 89.7C445.017 89.7 447.517 86.3 450.017 83.8C450.917 82.9 452.117 82.9 453.217 83.6L456.417 86.1C457.517 87 458.017 88.1 457.317 89.5C453.417 95.4 447.117 99.2 438.817 99.2C425.617 99.2 414.617 88.8 414.617 74.8C414.917 61.2 426.117 50.4 439.117 50.4ZM393.117 29.5C393.117 28.4 394.017 27.2 395.417 27.2H401.117C402.317 27.3 403.317 28.2 403.417 29.5V96C403.317 97.2 402.317 98.2 401.117 98.3H395.417C394.117 98.3 393.117 97.3 393.117 96V29.5ZM368.017 29.5C368.017 28.4 368.917 27.2 370.317 27.2H376.017C377.217 27.3 378.217 28.2 378.317 29.5V96C378.217 97.2 377.217 98.2 376.017 98.3H370.317C369.017 98.3 368.017 97.3 368.017 96V29.5ZM332.917 91.1C337.717 91.1 342.517 87.7 343.817 85.5V77.8C343.117 77.3 339.517 76.2 335.117 76.2C329.617 76.2 325.317 79.1 325.317 83.9C325.417 87.9 327.917 91.1 332.917 91.1ZM334.317 68.7C339.117 68.7 343.917 70.1 343.917 70.1C344.117 62.6 342.317 59.5 336.417 59.5C330.917 59.5 325.717 61.1 323.217 61.8C321.817 62 320.917 61.1 320.517 59.8L319.617 56C319.417 54.4 320.117 53.7 321.217 53.3C322.117 53.1 328.717 50.6 337.417 50.6C352.417 50.6 354.017 59.6 354.017 71.2V96.1C353.917 97.3 352.917 98.3 351.717 98.4H348.317C347.417 98.4 346.917 98 346.317 96.8L345.217 93.6C341.317 97.4 336.117 99.5 330.617 99.5C321.717 99.5 315.317 93.6 315.317 83.9C315.317 75.2 322.217 68.7 334.317 68.7ZM234.017 53.7C234.017 52.6 234.917 51.4 236.317 51.4H238.617C239.717 51.4 240.417 51.8 240.717 52.8L242.117 56.9C243.017 55.8 248.017 50.3 257.117 50.3C263.917 50.3 268.017 53 271.517 57.8C272.917 56.4 278.317 50.3 287.417 50.3C301.817 50.3 305.417 60.2 305.417 72.5V96C305.417 97.2 304.417 98.3 303.117 98.3H297.417C296.017 98.3 295.117 97.4 295.117 96V72C295.117 64.5 292.117 60 285.817 60C278.717 60 275.317 64.7 274.417 65.4C274.617 66.3 274.917 69.2 274.917 71.7V95.9C274.917 97 274.017 98.2 272.917 98.2H266.817C265.417 98.2 264.517 97.3 264.517 95.9V71.9C264.517 64.2 261.817 59.9 255.217 59.9C248.117 59.9 244.517 65.1 244.017 66.7V95.9C243.917 97.1 242.917 98.1 241.717 98.2H236.017C234.717 98.2 233.717 97.2 233.717 95.9V53.6H234.017V53.7ZM190.917 94.7C190.217 94.3 189.517 93.3 190.017 92.2L192.017 87.9C192.517 87 193.817 86.5 195.017 87.2C197.717 88.8 201.217 90.6 206.617 90.6C210.517 90.6 212.817 88.8 212.817 86.1C212.817 82.9 209.217 80.9 202.817 78C195.517 74.8 190.017 71 190.017 63.3C190.017 57.4 194.117 50.6 205.517 50.6C212.117 50.6 216.917 52.6 219.217 54C220.317 54.9 220.817 56.3 220.117 57.4L218.517 60.6C217.817 62 216.517 62 215.517 61.5C212.317 60.1 209.117 59.2 205.517 59.2C201.417 59.2 199.617 61.2 199.617 63.3C199.617 66.2 203.017 68 207.617 70.1C216.317 73.7 222.917 76.9 222.917 85.5C222.917 92.7 216.517 99.1 206.017 99.1C198.917 99.4 193.717 96.5 190.917 94.7ZM65.117 18.1L91.317 30.7C92.617 31.3 93.117 32.9 92.517 34.2C92.317 34.7 91.817 35.1 91.317 35.4L65.917 48.3C65.117 48.7 64.317 48.7 63.517 48.3L37.317 35.7C36.017 35.1 35.517 33.5 36.117 32.2C36.317 31.7 36.817 31.3 37.317 31L62.717 18.1C63.517 17.7 64.417 17.7 65.117 18.1ZM65.317 66.1L127.317 34.6C128.617 33.9 129.117 32.4 128.417 31.1C128.117 30.6 127.717 30.2 127.217 30L65.817 0.3C65.117 -0.1 64.217 -0.1 63.417 0.3L1.41698 31.8C0.116978 32.5 -0.383022 34 0.316978 35.3C0.616978 35.8 1.01698 36.2 1.51698 36.5L63.017 66.1C63.717 66.4 64.617 66.4 65.317 66.1ZM117.417 88.8C116.917 99.6 111.017 109.4 101.717 114.9C93.117 119.3 86.117 114.8 86.117 104.8C86.617 94 92.517 84.2 101.817 78.7C110.417 74.3 117.417 78.8 117.417 88.8ZM135.717 115.8V45.7C135.717 44.3 134.517 43.1 133.017 43.1C132.617 43.1 132.217 43.2 131.817 43.4L69.217 75.4C68.317 75.8 67.817 76.7 67.817 77.7V147.8C67.817 149.2 69.017 150.4 70.517 150.4C70.917 150.4 71.317 150.3 71.717 150.1L134.317 118.2C135.217 117.7 135.717 116.8 135.717 115.8ZM39.017 122L10.817 108.5C9.51698 107.9 9.01698 106.3 9.61698 105C9.71698 104.9 9.71698 104.8 9.81698 104.7L23.917 84C24.717 82.8 26.417 82.5 27.617 83.3C28.017 83.6 28.417 84 28.617 84.5L42.717 118.7C43.317 120 42.717 121.5 41.417 122.1C40.517 122.4 39.717 122.4 39.017 122Z" fill="#1F7CE0"/>
</svg>
