<svg width="20" height="20" viewBox="0 0 20 20" fill="none" xmlns="http://www.w3.org/2000/svg">
<path d="M15.5619 19.1002C15.3998 19.0998 15.2402 19.06 15.0969 18.9842L9.99989 16.3042L4.90289 18.9842C4.73785 19.0707 4.55194 19.1093 4.36612 19.0958C4.1803 19.0823 4.00196 19.0171 3.8512 18.9076C3.70045 18.7981 3.58327 18.6487 3.5129 18.4762C3.44252 18.3037 3.42173 18.1149 3.45289 17.9312L4.42589 12.2552L0.301886 8.23524C0.168476 8.10498 0.07414 7.94002 0.0295306 7.75898C-0.0150789 7.57794 -0.00818501 7.38804 0.0494338 7.21071C0.107053 7.03338 0.213101 6.87569 0.355605 6.75545C0.498109 6.63521 0.671391 6.5572 0.855886 6.53024L6.55489 5.70224L9.10389 0.53824C9.19571 0.382081 9.32673 0.252615 9.48397 0.162662C9.64122 0.0727096 9.81923 0.0253906 10.0004 0.0253906C10.1815 0.0253906 10.3596 0.0727096 10.5168 0.162662C10.674 0.252615 10.8051 0.382081 10.8969 0.53824L13.4449 5.70224L19.1439 6.53024C19.3284 6.5572 19.5017 6.63521 19.6442 6.75545C19.7867 6.87569 19.8927 7.03338 19.9503 7.21071C20.008 7.38804 20.0149 7.57794 19.9702 7.75898C19.9256 7.94002 19.8313 8.10498 19.6979 8.23524L15.5739 12.2552L16.5479 17.9312C16.5725 18.0747 16.5655 18.2218 16.5273 18.3623C16.4892 18.5028 16.4208 18.6333 16.327 18.7446C16.2332 18.8559 16.1162 18.9454 15.9842 19.0069C15.8523 19.0683 15.7075 19.1001 15.5619 19.1002Z" fill="#FFD700"/>
</svg>
